<?xml version="1.0" encoding="UTF-8" standalone="no"?>
<!DOCTYPE svg PUBLIC "-//W3C//DTD SVG 20010904//EN"
              "http://www.w3.org/TR/2001/REC-SVG-20010904/DTD/svg10.dtd">

<svg xmlns="http://www.w3.org/2000/svg"
     width="121.931mm" height="121.931mm"
     viewBox="0 0 576 576">
  <path id="Selection"
        fill="none" stroke="black" stroke-width="1"
        d="M 414.00,126.00
           C 414.00,126.00 459.00,126.00 459.00,126.00
             459.00,126.00 459.00,135.00 459.00,135.00
             459.00,135.00 468.00,135.00 468.00,135.00
             468.00,135.00 468.00,144.00 468.00,144.00
             468.00,144.00 477.00,144.00 477.00,144.00
             477.00,144.00 477.00,153.00 477.00,153.00
             477.00,153.00 522.00,153.00 522.00,153.00
             522.00,153.00 522.00,162.00 522.00,162.00
             522.00,162.00 531.00,162.00 531.00,162.00
             531.00,162.00 531.00,180.00 531.00,180.00
             531.00,180.00 540.00,180.00 540.00,180.00
             540.00,180.00 540.00,198.00 540.00,198.00
             540.00,198.00 549.00,198.00 549.00,198.00
             549.00,198.00 549.00,234.00 549.00,234.00
             549.00,234.00 558.00,234.00 558.00,234.00
             558.00,234.00 558.00,252.00 558.00,252.00
             558.00,252.00 567.00,252.00 567.00,252.00
             567.00,252.00 567.00,279.00 567.00,279.00
             567.00,279.00 576.00,279.00 576.00,279.00
             576.00,279.00 576.00,333.00 576.00,333.00
             576.00,333.00 567.00,333.00 567.00,333.00
             567.00,333.00 567.00,351.00 567.00,351.00
             567.00,351.00 558.00,351.00 558.00,351.00
             558.00,351.00 558.00,360.00 558.00,360.00
             558.00,360.00 549.00,360.00 549.00,360.00
             549.00,360.00 549.00,369.00 549.00,369.00
             549.00,369.00 540.00,369.00 540.00,369.00
             540.00,369.00 540.00,378.00 540.00,378.00
             540.00,378.00 531.00,378.00 531.00,378.00
             531.00,378.00 531.00,387.00 531.00,387.00
             531.00,387.00 504.00,387.00 504.00,387.00
             504.00,387.00 504.00,396.00 504.00,396.00
             504.00,396.00 477.00,396.00 477.00,396.00
             477.00,396.00 477.00,405.00 477.00,405.00
             477.00,405.00 468.00,405.00 468.00,405.00
             468.00,405.00 468.00,414.00 468.00,414.00
             468.00,414.00 477.00,414.00 477.00,414.00
             477.00,414.00 477.00,423.00 477.00,423.00
             477.00,423.00 486.00,423.00 486.00,423.00
             486.00,423.00 486.00,459.00 486.00,459.00
             486.00,459.00 522.00,459.00 522.00,459.00
             522.00,459.00 522.00,468.00 522.00,468.00
             522.00,468.00 531.00,468.00 531.00,468.00
             531.00,468.00 531.00,513.00 531.00,513.00
             531.00,513.00 522.00,513.00 522.00,513.00
             522.00,513.00 522.00,522.00 522.00,522.00
             522.00,522.00 513.00,522.00 513.00,522.00
             513.00,522.00 513.00,531.00 513.00,531.00
             513.00,531.00 504.00,531.00 504.00,531.00
             504.00,531.00 504.00,540.00 504.00,540.00
             504.00,540.00 495.00,540.00 495.00,540.00
             495.00,540.00 495.00,531.00 495.00,531.00
             495.00,531.00 486.00,531.00 486.00,531.00
             486.00,531.00 486.00,522.00 486.00,522.00
             486.00,522.00 477.00,522.00 477.00,522.00
             477.00,522.00 477.00,513.00 477.00,513.00
             477.00,513.00 468.00,513.00 468.00,513.00
             468.00,513.00 468.00,504.00 468.00,504.00
             468.00,504.00 459.00,504.00 459.00,504.00
             459.00,504.00 459.00,495.00 459.00,495.00
             459.00,495.00 450.00,495.00 450.00,495.00
             450.00,495.00 450.00,486.00 450.00,486.00
             450.00,486.00 432.00,486.00 432.00,486.00
             432.00,486.00 432.00,477.00 432.00,477.00
             432.00,477.00 414.00,477.00 414.00,477.00
             414.00,477.00 414.00,468.00 414.00,468.00
             414.00,468.00 378.00,468.00 378.00,468.00
             378.00,468.00 378.00,459.00 378.00,459.00
             378.00,459.00 369.00,459.00 369.00,459.00
             369.00,459.00 369.00,450.00 369.00,450.00
             369.00,450.00 360.00,450.00 360.00,450.00
             360.00,450.00 360.00,423.00 360.00,423.00
             360.00,423.00 333.00,423.00 333.00,423.00
             333.00,423.00 333.00,432.00 333.00,432.00
             333.00,432.00 342.00,432.00 342.00,432.00
             342.00,432.00 342.00,441.00 342.00,441.00
             342.00,441.00 306.00,441.00 306.00,441.00
             306.00,441.00 306.00,432.00 306.00,432.00
             306.00,432.00 252.00,432.00 252.00,432.00
             252.00,432.00 252.00,441.00 252.00,441.00
             252.00,441.00 243.00,441.00 243.00,441.00
             243.00,441.00 243.00,432.00 243.00,432.00
             243.00,432.00 234.00,432.00 234.00,432.00
             234.00,432.00 234.00,423.00 234.00,423.00
             234.00,423.00 162.00,423.00 162.00,423.00
             162.00,423.00 162.00,414.00 162.00,414.00
             162.00,414.00 126.00,414.00 126.00,414.00
             126.00,414.00 126.00,405.00 126.00,405.00
             126.00,405.00 99.00,405.00 99.00,405.00
             99.00,405.00 99.00,396.00 99.00,396.00
             99.00,396.00 72.00,396.00 72.00,396.00
             72.00,396.00 72.00,387.00 72.00,387.00
             72.00,387.00 45.00,387.00 45.00,387.00
             45.00,387.00 45.00,378.00 45.00,378.00
             45.00,378.00 36.00,378.00 36.00,378.00
             36.00,378.00 36.00,369.00 36.00,369.00
             36.00,369.00 27.00,369.00 27.00,369.00
             27.00,369.00 27.00,360.00 27.00,360.00
             27.00,360.00 18.00,360.00 18.00,360.00
             18.00,360.00 18.00,351.00 18.00,351.00
             18.00,351.00 9.00,351.00 9.00,351.00
             9.00,351.00 9.00,333.00 9.00,333.00
             9.00,333.00 0.00,333.00 0.00,333.00
             0.00,333.00 0.00,279.00 0.00,279.00
             0.00,279.00 9.00,279.00 9.00,279.00
             9.00,279.00 9.00,252.00 9.00,252.00
             9.00,252.00 18.00,252.00 18.00,252.00
             18.00,252.00 18.00,234.00 18.00,234.00
             18.00,234.00 27.00,234.00 27.00,234.00
             27.00,234.00 27.00,198.00 27.00,198.00
             27.00,198.00 36.00,198.00 36.00,198.00
             36.00,198.00 36.00,180.00 36.00,180.00
             36.00,180.00 45.00,180.00 45.00,180.00
             45.00,180.00 45.00,162.00 45.00,162.00
             45.00,162.00 54.00,162.00 54.00,162.00
             54.00,162.00 54.00,153.00 54.00,153.00
             54.00,153.00 99.00,153.00 99.00,153.00
             99.00,153.00 99.00,162.00 99.00,162.00
             99.00,162.00 108.00,162.00 108.00,162.00
             108.00,162.00 108.00,180.00 108.00,180.00
             108.00,180.00 117.00,180.00 117.00,180.00
             117.00,180.00 117.00,189.00 117.00,189.00
             117.00,189.00 108.00,189.00 108.00,189.00
             108.00,189.00 108.00,198.00 108.00,198.00
             108.00,198.00 99.00,198.00 99.00,198.00
             99.00,198.00 99.00,216.00 99.00,216.00
             99.00,216.00 117.00,216.00 117.00,216.00
             117.00,216.00 117.00,207.00 117.00,207.00
             117.00,207.00 189.00,207.00 189.00,207.00
             189.00,207.00 189.00,198.00 189.00,198.00
             189.00,198.00 198.00,198.00 198.00,198.00
             198.00,198.00 198.00,189.00 198.00,189.00
             198.00,189.00 207.00,189.00 207.00,189.00
             207.00,189.00 207.00,180.00 207.00,180.00
             207.00,180.00 216.00,180.00 216.00,180.00
             216.00,180.00 216.00,171.00 216.00,171.00
             216.00,171.00 234.00,171.00 234.00,171.00
             234.00,171.00 234.00,162.00 234.00,162.00
             234.00,162.00 261.00,162.00 261.00,162.00
             261.00,162.00 261.00,153.00 261.00,153.00
             261.00,153.00 315.00,153.00 315.00,153.00
             315.00,153.00 315.00,162.00 315.00,162.00
             315.00,162.00 342.00,162.00 342.00,162.00
             342.00,162.00 342.00,171.00 342.00,171.00
             342.00,171.00 369.00,171.00 369.00,171.00
             369.00,171.00 369.00,162.00 369.00,162.00
             369.00,162.00 387.00,162.00 387.00,162.00
             387.00,162.00 387.00,153.00 387.00,153.00
             387.00,153.00 396.00,153.00 396.00,153.00
             396.00,153.00 396.00,144.00 396.00,144.00
             396.00,144.00 405.00,144.00 405.00,144.00
             405.00,144.00 405.00,135.00 405.00,135.00
             405.00,135.00 414.00,135.00 414.00,135.00
             414.00,135.00 414.00,126.00 414.00,126.00 Z
           M 414.00,180.00
           C 414.00,180.00 396.00,180.00 396.00,180.00
             396.00,180.00 396.00,189.00 396.00,189.00
             396.00,189.00 378.00,189.00 378.00,189.00
             378.00,189.00 378.00,198.00 378.00,198.00
             378.00,198.00 387.00,198.00 387.00,198.00
             387.00,198.00 387.00,207.00 387.00,207.00
             387.00,207.00 459.00,207.00 459.00,207.00
             459.00,207.00 459.00,216.00 459.00,216.00
             459.00,216.00 477.00,216.00 477.00,216.00
             477.00,216.00 477.00,198.00 477.00,198.00
             477.00,198.00 423.00,198.00 423.00,198.00
             423.00,198.00 423.00,189.00 423.00,189.00
             423.00,189.00 414.00,189.00 414.00,189.00
             414.00,189.00 414.00,180.00 414.00,180.00 Z" />
</svg>
