<svg xmlns="http://www.w3.org/2000/svg" viewBox="0 -0.5 64 64" shape-rendering="crispEdges">
<metadata>Made with Pixels to Svg https://codepen.io/shshaw/pen/XbxvNj</metadata>
<path stroke="rgba(37,9,0,0.21568627450980393)" d="M20 27h1M43 27h1M41 28h1M21 29h1M40 29h1M42 29h1M19 30h1M24 30h1M30 30h1M39 30h1M44 30h1M33 31h1M35 31h1" />
<path stroke="#4d3e23" d="M20 28h1M43 28h1M18 29h1M20 29h1M41 29h1M43 29h1M45 29h1M18 30h1M20 30h2M25 30h1M28 30h2M40 30h1M42 30h2M45 30h1M18 31h2M22 31h2M29 31h2M34 31h1M36 31h2M42 31h1M45 31h1M18 32h1M22 32h1M28 32h1M33 32h1M35 32h1M44 32h2M18 33h2M21 33h1M27 33h1M42 33h2M45 33h1M18 34h2M21 34h1M27 34h1M42 34h1M44 34h1M18 35h1M42 35h2M45 35h1M18 36h1M23 36h1M42 36h1M44 36h1M29 37h1M41 37h3M45 37h1M22 38h1M41 38h2M44 38h1M28 39h1M41 39h3M19 40h1M40 40h2M44 40h1M39 41h4M20 42h1M39 42h2M43 42h1M22 43h1M39 43h3M29 44h1M39 44h1M39 45h1M31 46h1M26 47h1M33 47h1M27 48h1M34 48h1" />
<path stroke="#5f4c2a" d="M26 30h2M20 31h2M24 31h5M31 31h2M38 31h2M43 31h2M19 32h3M23 32h1M25 32h1M29 32h4M34 32h1M36 32h1M43 32h1M20 33h1M22 33h1M28 33h2M31 33h1M33 33h1M35 33h1M44 33h1M25 34h1M28 34h1M43 34h1M45 34h1M19 35h1M21 35h1M24 35h1M27 35h1M31 35h1M44 35h1M19 36h1M30 36h1M43 36h1M45 36h1M18 37h2M23 37h1M26 37h1M44 37h1M18 38h2M29 38h1M43 38h1M45 38h1M19 39h1M22 39h1M40 39h1M44 39h1M20 40h1M22 40h1M28 40h1M39 40h1M42 40h2M20 41h1M28 41h1M43 41h1M21 42h1M23 42h1M41 42h2M21 43h1M23 43h1M30 43h1M42 43h1M22 44h2M30 44h1M40 44h2M24 45h1M29 45h2M25 46h1M27 46h1M30 46h1M32 46h1M34 46h1M27 47h1M30 47h3M34 47h1M35 48h1" />
<path stroke="#6e5831" d="M41 30h1M40 31h2M24 32h1M26 32h2M37 32h4M42 32h1M23 33h4M30 33h1M32 33h1M34 33h1M36 33h4M20 34h1M22 34h3M26 34h1M29 34h11M20 35h1M22 35h2M25 35h2M28 35h3M32 35h9M20 36h3M24 36h6M31 36h11M20 37h3M24 37h2M27 37h2M30 37h11M20 38h2M23 38h6M30 38h3M37 38h4M20 39h2M23 39h1M25 39h3M29 39h2M38 39h2M21 40h1M23 40h5M29 40h1M38 40h1M21 41h7M29 41h2M32 41h1M35 41h1M37 41h2M22 42h1M26 42h2M29 42h5M35 42h2M38 42h1M26 43h2M29 43h1M31 43h4M36 43h3M26 44h3M31 44h8M26 45h3M31 45h8M26 46h1M28 46h2M33 46h1M35 46h4M28 47h2M35 47h2M36 48h2" />
<path stroke="#7e683f" d="M41 32h1M40 33h2M40 34h2M41 35h1M33 38h4M24 39h1M31 39h7M30 40h8M31 41h1M33 41h2M36 41h1M24 42h2M28 42h1M34 42h1M37 42h1M24 43h2M28 43h1M35 43h1M24 44h2M25 45h1" />
</svg>