<svg id="svg" version="1.1" xmlns="http://www.w3.org/2000/svg" xmlns:xlink="http://www.w3.org/1999/xlink" width="400" height="400" viewBox="0, 0, 400,400"><g id="svgg"><path id="path0" d="M287.200 90.400 L 287.200 93.600 284.000 93.600 L 280.800 93.600 280.800 96.600 L 280.800 99.600 277.800 99.600 L 274.800 99.600 274.800 102.800 L 274.800 106.000 271.600 106.000 L 268.400 106.000 268.400 109.000 L 268.400 112.000 265.600 112.000 L 262.800 112.000 262.800 121.800 L 262.800 131.600 269.000 131.600 L 275.200 131.600 275.200 128.400 L 275.200 125.200 281.200 125.200 L 287.200 125.200 287.200 128.400 L 287.200 131.600 290.400 131.600 L 293.600 131.600 293.600 134.805 L 293.600 138.009 309.300 137.905 L 325.000 137.800 325.000 134.600 L 325.000 131.400 321.900 131.283 L 318.800 131.166 318.800 128.183 L 318.800 125.200 322.000 125.200 L 325.200 125.200 325.200 128.200 L 325.200 131.200 328.254 131.200 L 331.307 131.200 331.019 137.400 L 330.731 143.600 343.565 143.600 L 356.400 143.600 356.400 146.800 L 356.400 150.000 359.390 150.000 L 362.380 150.000 362.490 143.700 L 362.600 137.400 368.900 137.290 L 375.200 137.180 375.200 134.190 L 375.200 131.200 372.000 131.200 L 368.800 131.200 368.800 128.217 L 368.800 125.234 365.700 125.117 L 362.600 125.000 362.490 118.700 L 362.380 112.400 346.744 112.400 L 331.109 112.400 331.400 106.000 L 331.691 99.600 328.446 99.600 L 325.200 99.600 325.200 96.600 L 325.200 93.600 322.200 93.600 L 319.200 93.600 319.200 90.400 L 319.200 87.200 303.200 87.200 L 287.200 87.200 287.200 90.400 M312.717 96.900 L 312.834 100.000 315.817 100.000 L 318.800 100.000 318.800 109.400 L 318.800 118.800 315.817 118.800 L 312.834 118.800 312.717 121.900 L 312.600 125.000 303.200 125.000 L 293.800 125.000 293.683 121.900 L 293.566 118.800 290.583 118.800 L 287.600 118.800 287.600 109.400 L 287.600 100.000 290.600 100.000 L 293.600 100.000 293.600 97.067 C 293.600 93.284,292.773 93.570,303.374 93.693 L 312.600 93.800 312.717 96.900 M43.900 112.696 L 37.600 112.820 37.600 119.010 L 37.600 125.200 34.618 125.200 L 31.635 125.200 31.518 128.100 L 31.400 131.000 28.100 131.116 L 24.800 131.232 24.800 134.206 L 24.800 137.180 31.100 137.290 L 37.400 137.400 37.600 143.600 L 37.800 149.800 40.700 149.918 L 43.600 150.035 43.600 146.818 L 43.600 143.600 56.442 143.600 L 69.284 143.600 68.994 137.400 L 68.703 131.200 71.952 131.200 L 75.200 131.200 75.200 128.200 L 75.200 125.200 72.000 125.200 L 68.800 125.200 68.800 128.200 L 68.800 131.200 65.600 131.200 L 62.400 131.200 62.400 125.000 L 62.400 118.800 65.617 118.800 L 68.834 118.800 68.717 115.700 L 68.600 112.600 59.400 112.586 C 54.340 112.578,47.365 112.627,43.900 112.696 M181.471 112.663 C 181.322 112.812,181.200 114.253,181.200 115.867 L 181.200 118.800 172.000 118.800 L 162.800 118.800 162.800 121.793 L 162.800 124.785 172.100 124.893 L 181.400 125.000 181.517 128.100 L 181.634 131.200 184.400 131.200 L 187.166 131.200 187.283 128.100 L 187.400 125.000 200.000 125.000 L 212.600 125.000 212.717 128.100 L 212.834 131.200 215.600 131.200 L 218.366 131.200 218.483 128.100 L 218.600 125.000 227.900 124.893 L 237.200 124.785 237.200 121.793 L 237.200 118.800 228.017 118.800 L 218.834 118.800 218.717 115.700 L 218.600 112.600 200.171 112.496 C 190.034 112.439,181.619 112.514,181.471 112.663 M331.200 115.600 L 331.200 118.800 334.400 118.800 L 337.600 118.800 337.600 125.000 L 337.600 131.200 334.400 131.200 L 331.200 131.200 331.200 125.000 L 331.200 118.800 328.200 118.800 L 325.200 118.800 325.200 115.600 L 325.200 112.400 328.200 112.400 L 331.200 112.400 331.200 115.600 M250.000 121.600 L 250.000 124.800 253.000 124.800 L 256.000 124.800 256.000 121.600 L 256.000 118.400 253.000 118.400 L 250.000 118.400 250.000 121.600 M150.400 127.920 C 150.400 131.326,150.127 131.600,146.738 131.600 L 144.035 131.600 143.918 134.500 L 143.800 137.400 140.717 137.517 L 137.633 137.633 137.517 140.717 L 137.400 143.800 134.510 143.917 L 131.621 144.035 131.510 150.117 L 131.400 156.200 128.300 156.317 L 125.200 156.434 125.200 162.600 L 125.200 168.766 122.100 168.883 L 119.000 169.000 118.868 171.800 C 118.795 173.340,118.859 177.525,119.010 181.100 L 119.285 187.600 122.043 187.600 L 124.800 187.600 124.800 182.662 C 124.800 179.946,124.917 175.806,125.061 173.462 L 125.322 169.200 128.061 169.200 L 130.800 169.200 130.800 171.976 C 130.800 173.503,130.980 174.864,131.200 175.000 C 131.420 175.136,131.600 176.677,131.600 178.424 L 131.600 181.600 134.362 181.600 L 137.124 181.600 137.413 187.600 L 137.702 193.600 144.051 193.600 L 150.400 193.600 150.400 190.800 L 150.400 188.000 153.120 188.000 C 154.616 188.000,156.024 187.816,156.249 187.591 C 156.689 187.151,184.820 187.325,190.500 187.803 L 193.600 188.063 193.600 190.832 L 193.600 193.600 200.000 193.663 C 203.520 193.697,210.540 193.725,215.600 193.725 C 220.660 193.725,229.120 193.697,234.400 193.663 L 244.000 193.600 244.000 190.800 L 244.000 188.000 246.720 188.000 C 250.126 188.000,250.400 187.727,250.400 184.338 L 250.400 181.635 253.300 181.518 L 256.200 181.400 256.317 178.300 L 256.434 175.200 259.217 175.200 L 262.000 175.200 262.000 177.920 C 262.000 181.324,262.274 181.600,265.653 181.600 C 268.884 181.600,268.653 182.072,269.022 174.700 L 269.296 169.200 271.987 169.200 L 274.678 169.200 274.939 173.462 C 275.083 175.806,275.200 180.044,275.200 182.880 L 275.200 188.035 278.100 187.918 L 281.000 187.800 281.000 178.400 L 281.000 169.000 278.141 168.883 L 275.283 168.767 274.993 162.583 L 274.703 156.400 271.752 156.400 L 268.800 156.400 268.800 154.462 C 268.800 153.396,268.683 150.614,268.540 148.279 L 268.280 144.033 265.440 143.916 L 262.600 143.800 262.483 140.700 L 262.366 137.600 259.393 137.600 L 256.420 137.600 256.310 143.900 L 256.200 150.200 253.200 150.200 L 250.200 150.200 250.083 147.100 L 249.966 144.000 246.783 144.000 L 243.600 144.000 243.600 140.861 L 243.600 137.722 239.000 137.476 C 236.470 137.340,232.330 137.340,229.800 137.476 L 225.200 137.722 225.200 140.861 L 225.200 144.000 222.017 144.000 L 218.834 144.000 218.717 147.100 L 218.600 150.200 212.400 150.200 L 206.200 150.200 206.083 147.100 L 205.966 144.000 200.000 144.000 L 194.034 144.000 193.917 147.100 L 193.800 150.200 190.800 150.111 C 189.150 150.062,186.405 149.913,184.700 149.779 L 181.600 149.537 181.600 146.768 L 181.600 144.000 179.662 144.000 C 178.596 144.000,175.806 143.883,173.462 143.739 L 169.200 143.478 169.200 140.788 C 169.200 137.044,169.277 137.080,161.966 137.428 L 155.887 137.717 156.178 131.459 L 156.469 125.200 153.435 125.200 L 150.400 125.200 150.400 127.920 M243.600 127.767 C 243.600 131.563,243.631 131.600,246.843 131.600 L 249.600 131.600 249.600 128.400 L 249.600 125.200 246.600 125.200 L 243.600 125.200 243.600 127.767 M176.521 150.260 L 180.767 150.520 180.884 153.360 L 181.000 156.200 184.100 156.317 L 187.200 156.434 187.200 159.217 L 187.200 162.000 184.424 162.000 C 182.897 162.000,181.536 162.180,181.400 162.400 C 181.242 162.656,175.537 162.800,165.600 162.800 C 155.663 162.800,149.958 162.656,149.800 162.400 C 149.664 162.180,148.303 162.000,146.776 162.000 L 144.000 162.000 144.000 159.261 L 144.000 156.522 148.500 156.263 C 150.975 156.120,155.115 156.003,157.700 156.002 L 162.400 156.000 162.400 153.000 L 162.400 150.000 167.338 150.000 C 170.054 150.000,174.186 150.117,176.521 150.260 M237.683 153.100 L 237.800 156.200 243.174 156.075 C 250.696 155.900,250.400 155.764,250.400 159.408 C 250.400 161.053,250.265 162.428,250.100 162.463 C 249.074 162.678,230.665 162.735,225.084 162.541 L 218.368 162.307 218.484 159.254 L 218.600 156.200 221.700 156.083 L 224.800 155.966 224.800 152.983 L 224.800 150.000 231.183 150.000 L 237.566 150.000 237.683 153.100 M106.400 153.200 L 106.400 156.000 112.400 156.000 L 118.400 156.000 118.400 153.200 L 118.400 150.400 112.400 150.400 L 106.400 150.400 106.400 153.200 M94.000 159.400 L 94.000 162.400 100.000 162.400 L 106.000 162.400 106.000 159.400 L 106.000 156.400 100.000 156.400 L 94.000 156.400 94.000 159.400 M176.538 169.061 L 180.800 169.322 180.800 172.000 L 180.800 174.678 176.538 174.939 C 171.065 175.274,154.326 175.273,148.500 174.937 L 144.000 174.678 144.000 171.956 L 144.000 169.235 146.900 169.097 C 152.552 168.828,172.338 168.804,176.538 169.061 M243.917 171.900 L 243.800 175.000 234.300 175.107 L 224.800 175.214 224.800 172.007 L 224.800 168.800 234.417 168.800 L 244.034 168.800 243.917 171.900 M256.000 172.000 L 256.000 174.800 253.200 174.800 L 250.400 174.800 250.400 172.000 L 250.400 169.200 253.200 169.200 L 256.000 169.200 256.000 172.000 " stroke="none" fill="#f2ca95" fill-rule="evenodd"></path><path id="path1" d="M300.400 96.800 L 300.400 99.600 306.200 99.600 L 312.000 99.600 312.000 96.800 L 312.000 94.000 306.200 94.000 L 300.400 94.000 300.400 96.800 M312.400 103.400 L 312.400 106.400 309.417 106.400 L 306.434 106.400 306.317 109.500 L 306.200 112.600 303.300 112.718 L 300.400 112.835 300.400 118.818 L 300.400 124.800 306.400 124.800 L 312.400 124.800 312.400 121.600 L 312.400 118.400 315.400 118.400 L 318.400 118.400 318.400 109.400 L 318.400 100.400 315.400 100.400 L 312.400 100.400 312.400 103.400 M256.084 115.300 L 256.200 118.600 259.300 118.717 L 262.400 118.834 262.400 115.417 L 262.400 112.000 259.184 112.000 L 255.968 112.000 256.084 115.300 M162.800 127.983 L 162.800 130.766 165.900 130.883 L 169.000 131.000 169.117 134.100 L 169.234 137.200 172.217 137.200 L 175.200 137.200 175.200 140.400 L 175.200 143.600 181.600 143.600 L 188.000 143.600 188.000 146.600 L 188.000 149.600 190.800 149.600 L 193.600 149.600 193.600 146.600 L 193.600 143.600 200.000 143.600 L 206.400 143.600 206.400 146.600 L 206.400 149.600 209.400 149.600 L 212.400 149.600 212.400 146.600 L 212.400 143.600 218.600 143.600 L 224.800 143.600 224.800 140.400 L 224.800 137.200 227.783 137.200 L 230.766 137.200 230.883 134.100 L 231.000 131.000 234.100 130.883 L 237.200 130.766 237.200 127.983 L 237.200 125.200 228.217 125.200 L 219.234 125.200 219.117 128.300 L 219.000 131.400 215.700 131.516 L 212.400 131.632 212.400 128.416 L 212.400 125.200 200.217 125.200 L 188.034 125.200 187.917 128.300 L 187.800 131.400 184.400 131.400 L 181.000 131.400 180.883 128.300 L 180.766 125.200 171.783 125.200 L 162.800 125.200 162.800 127.983 M250.267 131.467 C 250.120 131.613,250.000 133.053,250.000 134.667 L 250.000 137.600 247.000 137.600 L 244.000 137.600 244.000 140.583 L 244.000 143.566 247.100 143.683 L 250.200 143.800 250.317 146.900 L 250.434 150.000 253.217 150.000 L 256.000 150.000 256.000 140.600 L 256.000 131.200 253.267 131.200 C 251.763 131.200,250.413 131.320,250.267 131.467 M156.400 134.400 L 156.400 137.200 159.200 137.200 L 162.000 137.200 162.000 134.400 L 162.000 131.600 159.200 131.600 L 156.400 131.600 156.400 134.400 M238.000 134.400 L 238.000 137.200 240.800 137.200 L 243.600 137.200 243.600 134.400 L 243.600 131.600 240.800 131.600 L 238.000 131.600 238.000 134.400 M18.400 149.539 L 18.400 162.000 15.200 162.000 L 12.000 162.000 12.000 168.400 L 12.000 174.800 9.000 174.800 L 6.000 174.800 6.000 184.200 L 6.000 193.600 3.000 193.600 L 0.000 193.600 0.000 212.600 L 0.000 231.600 3.000 231.600 L 6.000 231.600 6.000 237.800 L 6.000 244.000 9.000 244.000 L 12.000 244.000 12.000 247.200 L 12.000 250.400 15.200 250.400 L 18.400 250.400 18.400 253.400 L 18.400 256.400 21.600 256.400 L 24.800 256.400 24.800 259.600 L 24.800 262.800 27.800 262.800 L 30.800 262.800 30.800 266.000 L 30.800 269.200 40.200 269.200 L 49.600 269.200 49.600 272.200 L 49.600 275.200 59.000 275.200 L 68.400 275.200 68.400 278.400 L 68.400 281.600 77.800 281.600 L 87.200 281.600 87.200 284.800 L 87.200 288.000 99.600 288.000 L 112.000 288.000 112.000 291.000 L 112.000 294.000 134.200 294.000 L 156.400 294.000 156.400 290.800 L 156.400 287.600 153.217 287.600 L 150.034 287.600 149.917 284.500 L 149.800 281.400 143.700 281.290 L 137.600 281.179 137.600 278.206 L 137.600 275.234 134.500 275.117 L 131.400 275.000 131.283 271.900 L 131.166 268.800 128.183 268.800 L 125.200 268.800 125.200 262.617 L 125.200 256.434 122.100 256.317 L 119.000 256.200 118.800 250.000 L 118.600 243.800 115.498 243.683 L 112.396 243.566 112.498 206.083 L 112.600 168.600 115.500 168.482 L 118.400 168.365 118.400 162.382 L 118.400 156.400 112.400 156.400 L 106.400 156.400 106.400 159.600 L 106.400 162.800 100.000 162.800 L 93.600 162.800 93.600 159.400 L 93.600 156.000 99.783 156.000 L 105.966 156.000 106.083 152.900 L 106.200 149.800 112.146 149.689 C 119.273 149.556,119.200 149.519,119.200 153.249 L 119.200 156.000 122.000 156.000 L 124.800 156.000 124.800 149.800 L 124.800 143.600 102.800 143.600 L 80.800 143.600 80.800 146.600 L 80.800 149.600 75.000 149.600 L 69.200 149.600 69.200 146.800 L 69.200 144.000 56.600 144.000 L 44.000 144.000 44.000 147.200 L 44.000 150.400 40.600 150.400 L 37.200 150.400 37.200 144.000 L 37.200 137.600 32.663 137.600 C 30.167 137.600,25.937 137.482,23.263 137.339 L 18.400 137.077 18.400 149.539 M369.110 137.499 L 362.820 137.620 362.710 143.910 L 362.600 150.200 359.400 150.200 L 356.200 150.200 356.083 147.100 L 355.966 144.000 343.383 144.000 L 330.800 144.000 330.800 146.800 L 330.800 149.600 325.000 149.600 L 319.200 149.600 319.200 146.600 L 319.200 143.600 297.200 143.600 L 275.200 143.600 275.200 149.783 L 275.200 155.966 278.300 156.083 L 281.400 156.200 281.510 162.300 L 281.621 168.400 284.568 168.400 C 286.566 168.400,287.570 168.561,287.687 168.900 C 287.782 169.175,287.757 186.140,287.630 206.600 L 287.400 243.800 284.300 243.917 L 281.200 244.034 281.200 250.217 L 281.200 256.400 278.210 256.400 L 275.221 256.400 275.110 262.500 L 275.000 268.600 271.917 268.717 L 268.833 268.833 268.717 271.917 L 268.600 275.000 265.500 275.117 L 262.400 275.234 262.400 278.217 L 262.400 281.200 256.217 281.200 L 250.034 281.200 249.917 284.300 L 249.800 287.400 246.800 287.600 L 243.800 287.800 243.683 290.900 L 243.566 294.000 246.583 294.000 L 249.600 294.000 249.600 303.400 L 249.600 312.800 252.800 312.800 L 256.000 312.800 256.000 316.000 L 256.000 319.200 258.983 319.200 L 261.966 319.200 262.086 322.300 L 262.205 325.400 262.403 322.099 L 262.600 318.798 259.517 318.799 L 256.434 318.800 256.317 315.700 L 256.200 312.600 253.100 312.483 L 250.000 312.366 250.000 303.183 L 250.000 294.000 256.400 294.000 L 262.800 294.000 262.800 291.017 L 262.800 288.034 265.900 287.917 L 269.000 287.800 269.117 284.700 L 269.234 281.600 272.017 281.600 L 274.800 281.600 274.800 287.583 L 274.800 293.566 271.700 293.683 L 268.600 293.800 268.480 296.560 C 268.413 298.121,268.543 299.503,268.780 299.740 C 269.037 299.997,269.200 302.542,269.200 306.280 L 269.200 312.400 272.200 312.400 L 275.200 312.400 275.200 315.383 L 275.200 318.366 278.300 318.483 L 281.400 318.600 281.516 321.900 L 281.632 325.200 284.416 325.200 L 287.200 325.200 287.200 328.400 L 287.200 331.600 293.400 331.600 L 299.600 331.600 299.600 334.800 L 299.600 338.000 305.800 338.000 L 312.000 338.000 312.000 341.000 L 312.000 344.000 315.200 344.000 L 318.400 344.000 318.400 347.200 L 318.400 350.400 321.600 350.400 L 324.800 350.400 324.800 353.443 L 324.800 356.485 331.400 356.194 L 338.000 355.903 338.000 358.951 L 338.000 362.000 347.200 362.000 C 353.067 362.000,356.400 362.145,356.400 362.400 C 356.400 362.633,357.733 362.800,359.600 362.800 L 362.800 362.800 362.800 359.600 L 362.800 356.400 366.000 356.400 L 369.200 356.400 369.200 344.000 L 369.200 331.600 372.200 331.600 L 375.200 331.600 375.200 328.200 L 375.200 324.800 369.000 324.800 L 362.800 324.800 362.800 321.600 L 362.800 318.400 350.400 318.400 L 338.000 318.400 338.000 306.000 L 338.000 293.600 334.800 293.600 L 331.600 293.600 331.600 290.400 L 331.600 287.200 328.400 287.200 L 325.200 287.200 325.200 284.400 L 325.200 281.600 328.400 281.600 L 331.600 281.600 331.600 278.400 L 331.600 275.200 341.000 275.200 L 350.400 275.200 350.400 272.200 L 350.400 269.200 359.800 269.200 L 369.200 269.200 369.200 266.000 L 369.200 262.800 372.200 262.800 L 375.200 262.800 375.200 259.600 L 375.200 256.400 378.400 256.400 L 381.600 256.400 381.600 253.400 L 381.600 250.400 384.800 250.400 L 388.000 250.400 388.000 247.200 L 388.000 244.000 391.000 244.000 L 394.000 244.000 394.000 237.800 L 394.000 231.600 397.000 231.600 L 400.000 231.600 400.000 212.600 L 400.000 193.600 397.000 193.600 L 394.000 193.600 394.000 184.200 L 394.000 174.800 391.000 174.800 L 388.000 174.800 388.000 168.400 L 388.000 162.000 384.800 162.000 L 381.600 162.000 381.600 149.600 L 381.600 137.200 378.500 137.289 C 376.795 137.338,372.570 137.433,369.110 137.499 M312.800 290.600 L 312.800 293.600 315.800 293.600 L 318.800 293.600 318.800 299.800 L 318.800 306.000 315.818 306.000 L 312.835 306.000 312.718 303.100 L 312.600 300.200 309.500 300.083 L 306.400 299.966 306.400 293.783 L 306.400 287.600 309.600 287.600 L 312.800 287.600 312.800 290.600 M287.917 309.500 L 287.800 312.600 284.400 312.600 L 281.000 312.600 280.883 309.500 L 280.766 306.400 284.400 306.400 L 288.034 306.400 287.917 309.500 M306.400 315.593 L 306.400 318.385 315.700 318.493 L 325.000 318.600 325.117 321.700 L 325.234 324.800 334.417 324.800 L 343.600 324.800 343.600 328.000 L 343.600 331.200 340.610 331.200 L 337.620 331.200 337.510 337.500 L 337.400 343.800 334.200 343.800 L 331.000 343.800 330.882 340.900 L 330.765 338.000 325.062 338.000 C 318.341 338.000,318.400 338.032,318.400 334.320 L 318.400 331.600 315.400 331.600 L 312.400 331.600 312.400 328.400 L 312.400 325.200 309.200 325.200 L 306.000 325.200 306.000 322.200 L 306.000 319.200 299.800 319.200 L 293.600 319.200 293.600 316.000 L 293.600 312.800 300.000 312.800 L 306.400 312.800 306.400 315.593 M374.800 328.000 L 374.800 330.800 372.000 330.800 L 369.200 330.800 369.200 328.000 L 369.200 325.200 372.000 325.200 L 374.800 325.200 374.800 328.000 M362.800 344.000 L 362.800 350.400 359.600 350.400 L 356.400 350.400 356.400 353.400 L 356.400 356.400 349.983 356.400 L 343.566 356.400 343.683 353.300 L 343.800 350.200 350.000 350.000 L 356.200 349.800 356.310 343.700 L 356.421 337.600 359.610 337.600 L 362.800 337.600 362.800 344.000 " stroke="none" fill="#262423" fill-rule="evenodd"></path><path id="path2" d="M315.500 100.287 L 318.400 100.435 318.400 109.400 L 318.400 118.365 315.700 118.509 L 313.000 118.652 315.800 118.626 L 318.600 118.600 318.600 109.400 L 318.600 100.200 315.600 100.170 L 312.600 100.139 315.500 100.287 M293.772 109.400 C 293.772 114.460,293.829 116.475,293.899 113.877 C 293.969 111.280,293.968 107.140,293.898 104.677 C 293.828 102.215,293.771 104.340,293.772 109.400 M250.400 128.200 L 250.400 131.200 253.400 131.200 L 256.400 131.200 256.400 128.200 L 256.400 125.200 253.400 125.200 L 250.400 125.200 250.400 128.200 M182.900 131.491 C 183.725 131.578,185.075 131.578,185.900 131.491 C 186.725 131.405,186.050 131.334,184.400 131.334 C 182.750 131.334,182.075 131.405,182.900 131.491 M214.100 131.491 C 214.925 131.578,216.275 131.578,217.100 131.491 C 217.925 131.405,217.250 131.334,215.600 131.334 C 213.950 131.334,213.275 131.405,214.100 131.491 M157.911 137.493 C 158.851 137.578,160.291 137.577,161.111 137.491 C 161.930 137.405,161.160 137.336,159.400 137.337 C 157.640 137.339,156.970 137.409,157.911 137.493 M224.968 137.740 C 224.854 138.037,224.824 139.522,224.902 141.040 L 225.043 143.800 225.122 140.717 L 225.200 137.634 228.300 137.497 L 231.400 137.361 228.287 137.280 C 225.986 137.221,225.121 137.341,224.968 137.740 M239.100 137.493 C 240.035 137.577,241.565 137.577,242.500 137.493 C 243.435 137.409,242.670 137.340,240.800 137.340 C 238.930 137.340,238.165 137.409,239.100 137.493 M362.537 141.000 C 362.539 142.760,362.609 143.430,362.693 142.489 C 362.778 141.549,362.777 140.109,362.691 139.289 C 362.605 138.470,362.536 139.240,362.537 141.000 M37.340 146.800 C 37.340 148.670,37.409 149.435,37.493 148.500 C 37.577 147.565,37.577 146.035,37.493 145.100 C 37.409 144.165,37.340 144.930,37.340 146.800 M64.112 143.895 C 65.164 143.977,66.784 143.976,67.712 143.892 C 68.640 143.808,67.780 143.741,65.800 143.742 C 63.820 143.743,63.060 143.812,64.112 143.895 M212.567 144.142 C 212.452 144.440,212.423 145.835,212.502 147.242 L 212.646 149.800 212.723 146.917 L 212.800 144.034 215.900 143.897 L 219.000 143.761 215.887 143.680 C 213.580 143.621,212.721 143.740,212.567 144.142 M332.512 143.895 C 333.564 143.977,335.184 143.976,336.112 143.892 C 337.040 143.808,336.180 143.741,334.200 143.742 C 332.220 143.743,331.460 143.812,332.512 143.895 M356.137 147.000 C 356.139 148.760,356.209 149.430,356.293 148.489 C 356.378 147.549,356.377 146.109,356.291 145.289 C 356.205 144.470,356.136 145.240,356.137 147.000 M168.783 150.294 L 174.767 150.421 174.909 153.310 L 175.050 156.200 175.025 153.200 L 175.000 150.200 168.900 150.184 L 162.799 150.168 168.783 150.294 M106.077 153.090 L 106.000 155.979 99.900 156.101 L 93.800 156.222 99.913 156.311 C 106.891 156.413,106.514 156.622,106.298 152.758 L 106.154 150.200 106.077 153.090 M231.200 153.183 L 231.200 155.966 228.100 156.083 L 225.000 156.200 224.883 159.300 L 224.766 162.400 231.244 162.400 L 237.722 162.400 237.463 157.900 C 237.320 155.425,237.203 152.725,237.202 151.900 L 237.200 150.400 234.200 150.400 L 231.200 150.400 231.200 153.183 M118.961 162.400 C 118.961 165.810,119.022 167.205,119.097 165.500 C 119.172 163.795,119.172 161.005,119.097 159.300 C 119.022 157.595,118.961 158.990,118.961 162.400 M243.600 159.417 L 243.600 162.434 246.700 162.317 L 249.800 162.200 249.918 159.300 L 250.035 156.400 246.818 156.400 L 243.600 156.400 243.600 159.417 M101.511 162.693 C 102.451 162.778,103.891 162.777,104.711 162.691 C 105.530 162.605,104.760 162.536,103.000 162.537 C 101.240 162.539,100.570 162.609,101.511 162.693 M112.576 169.319 C 112.466 169.605,112.432 172.350,112.500 175.419 L 112.625 181.000 112.712 175.118 L 112.800 169.235 115.700 169.097 L 118.600 168.959 115.687 168.879 C 113.609 168.823,112.718 168.949,112.576 169.319 M284.290 169.097 L 287.179 169.235 287.301 175.317 L 287.422 181.400 287.511 175.100 L 287.600 168.800 284.500 168.879 L 281.400 168.959 284.290 169.097 M174.934 172.000 C 174.934 173.650,175.005 174.325,175.091 173.500 C 175.178 172.675,175.178 171.325,175.091 170.500 C 175.005 169.675,174.934 170.350,174.934 172.000 M225.200 172.000 L 225.200 174.800 234.400 174.800 L 243.600 174.800 243.600 172.000 L 243.600 169.200 234.400 169.200 L 225.200 169.200 225.200 172.000 M268.937 178.200 C 268.939 179.960,269.009 180.630,269.093 179.689 C 269.178 178.749,269.177 177.309,269.091 176.489 C 269.005 175.670,268.936 176.440,268.937 178.200 M118.540 184.400 C 118.540 186.270,118.609 187.035,118.693 186.100 C 118.777 185.165,118.777 183.635,118.693 182.700 C 118.609 181.765,118.540 182.530,118.540 184.400 M257.911 181.493 C 258.851 181.578,260.291 181.577,261.111 181.491 C 261.930 181.405,261.160 181.336,259.400 181.337 C 257.640 181.339,256.970 181.409,257.911 181.493 M281.361 187.600 C 281.361 191.010,281.422 192.405,281.497 190.700 C 281.572 188.995,281.572 186.205,281.497 184.500 C 281.422 182.795,281.361 184.190,281.361 187.600 M165.500 187.898 C 167.315 187.972,170.285 187.972,172.100 187.898 C 173.915 187.823,172.430 187.763,168.800 187.763 C 165.170 187.763,163.685 187.823,165.500 187.898 M250.081 193.700 L 250.000 200.000 245.463 200.000 C 242.967 200.000,238.737 200.118,236.063 200.261 L 231.200 200.523 231.200 203.461 L 231.200 206.400 228.217 206.400 L 225.234 206.400 225.117 209.500 L 225.000 212.600 222.000 212.600 L 219.000 212.600 218.883 209.500 L 218.766 206.400 215.800 206.400 L 212.834 206.400 212.717 209.500 L 212.600 212.600 209.400 212.600 L 206.200 212.600 206.083 209.500 L 205.966 206.400 203.000 206.400 L 200.034 206.400 199.917 209.500 L 199.800 212.600 196.800 212.600 L 193.800 212.600 193.683 209.500 L 193.566 206.400 190.600 206.400 L 187.634 206.400 187.517 209.500 L 187.400 212.600 184.300 212.717 L 181.200 212.834 181.200 215.817 L 181.200 218.800 178.217 218.800 L 175.234 218.800 175.117 221.900 L 175.000 225.000 171.943 225.116 L 168.887 225.232 168.611 218.716 C 168.460 215.132,168.396 210.850,168.468 209.200 L 168.600 206.200 171.700 206.083 L 174.800 205.966 174.800 202.983 L 174.800 200.000 168.817 200.000 L 162.834 200.000 162.717 203.100 L 162.600 206.200 159.400 206.200 L 156.200 206.200 156.083 203.083 L 155.966 199.966 153.083 200.083 L 150.200 200.200 150.083 203.300 L 149.966 206.400 147.000 206.400 L 144.034 206.400 143.917 209.500 L 143.800 212.600 140.700 212.717 L 137.600 212.834 137.600 219.017 L 137.600 225.200 134.400 225.200 L 131.200 225.200 131.200 219.000 L 131.200 212.800 128.200 212.800 L 125.200 212.800 125.200 231.400 L 125.200 250.000 128.190 250.000 L 131.179 250.000 131.290 256.100 L 131.400 262.200 134.500 262.317 L 137.600 262.434 137.600 265.417 L 137.600 268.400 140.600 268.400 L 143.600 268.400 143.600 265.400 L 143.600 262.400 146.793 262.400 L 149.986 262.400 150.093 271.900 L 150.200 281.400 153.083 281.517 L 155.966 281.634 156.083 284.517 L 156.200 287.400 159.400 287.600 L 162.600 287.800 162.718 290.700 L 162.835 293.600 165.818 293.600 L 168.800 293.600 168.800 290.600 L 168.800 287.600 172.000 287.600 L 175.200 287.600 175.200 294.000 L 175.200 300.400 181.192 300.400 C 188.309 300.400,187.684 301.112,187.515 293.200 L 187.400 287.800 184.300 287.683 L 181.200 287.566 181.200 281.183 L 181.200 274.800 184.400 274.800 L 187.600 274.800 187.600 271.800 L 187.600 268.800 190.800 268.800 L 194.000 268.800 194.000 277.952 L 194.000 287.103 200.200 287.394 L 206.400 287.684 206.400 290.642 L 206.400 293.600 209.400 293.600 L 212.400 293.600 212.400 290.600 L 212.400 287.600 215.590 287.600 L 218.779 287.600 218.890 293.700 L 219.000 299.800 222.100 299.917 L 225.200 300.034 225.200 303.227 L 225.200 306.420 231.500 306.310 L 237.800 306.200 237.922 303.817 C 238.134 299.692,238.062 299.600,234.592 299.600 L 231.600 299.600 231.600 296.800 L 231.600 294.000 237.600 294.000 L 243.600 294.000 243.600 272.017 L 243.600 250.034 246.700 249.917 L 249.800 249.800 249.917 246.700 L 250.034 243.600 253.017 243.600 L 256.000 243.600 256.000 237.417 L 256.000 231.234 259.100 231.117 L 262.200 231.000 262.400 218.600 L 262.600 206.200 265.700 206.083 L 268.800 205.966 268.800 203.200 L 268.800 200.434 265.700 200.317 L 262.600 200.200 262.490 193.900 L 262.380 187.600 259.390 187.600 L 256.400 187.600 256.400 190.800 L 256.400 194.000 253.416 194.000 L 250.432 194.000 250.298 190.700 C 250.221 188.832,250.127 190.134,250.081 193.700 M137.337 191.000 C 137.339 192.760,137.409 193.430,137.493 192.489 C 137.578 191.549,137.577 190.109,137.491 189.289 C 137.405 188.470,137.336 189.240,137.337 191.000 M187.370 190.800 L 187.400 193.800 190.501 193.827 L 193.603 193.854 190.619 193.711 L 187.634 193.567 187.487 190.683 L 187.339 187.800 187.370 190.800 M274.937 191.000 C 274.939 192.760,275.009 193.430,275.093 192.489 C 275.178 191.549,275.177 190.109,275.091 189.289 C 275.005 188.470,274.936 189.240,274.937 191.000 M120.300 193.893 C 121.235 193.977,122.765 193.977,123.700 193.893 C 124.635 193.809,123.870 193.740,122.000 193.740 C 120.130 193.740,119.365 193.809,120.300 193.893 M212.478 196.930 L 212.400 200.061 209.237 199.930 C 207.497 199.859,206.158 199.935,206.260 200.100 C 206.612 200.665,212.407 200.447,212.632 199.860 C 212.746 199.563,212.776 198.078,212.698 196.560 L 212.557 193.800 212.478 196.930 M218.573 197.099 L 218.600 200.200 221.701 200.227 L 224.803 200.254 221.818 200.110 L 218.833 199.967 218.690 196.982 L 218.546 193.997 218.573 197.099 M162.600 215.600 L 162.600 218.600 159.517 218.717 L 156.433 218.833 156.317 221.917 L 156.200 225.000 153.348 225.117 L 150.495 225.233 150.206 231.417 L 149.916 237.600 146.965 237.600 L 144.015 237.600 143.907 246.900 L 143.800 256.200 140.764 256.316 L 137.729 256.431 137.468 247.172 C 137.162 236.326,136.885 237.200,140.624 237.200 L 143.600 237.200 143.600 231.000 L 143.600 224.800 146.800 224.800 L 150.000 224.800 150.000 221.800 L 150.000 218.800 153.000 218.800 L 156.000 218.800 156.000 215.867 C 156.000 212.257,155.907 212.344,159.582 212.485 L 162.600 212.600 162.600 215.600 M200.000 222.000 L 200.000 225.200 197.000 225.200 L 194.000 225.200 194.000 228.183 L 194.000 231.166 190.900 231.283 L 187.800 231.400 187.600 237.600 L 187.400 243.800 184.561 243.916 L 181.721 244.033 181.461 248.879 C 181.317 251.545,181.200 255.677,181.200 258.063 L 181.200 262.400 178.000 262.400 L 174.800 262.400 174.800 253.000 L 174.800 243.600 178.000 243.600 L 181.200 243.600 181.200 237.417 L 181.200 231.234 184.300 231.117 L 187.400 231.000 187.517 227.900 L 187.634 224.800 190.617 224.800 L 193.600 224.800 193.600 221.800 L 193.600 218.800 196.800 218.800 L 200.000 218.800 200.000 222.000 M168.800 234.400 L 168.800 237.600 165.600 237.600 L 162.400 237.600 162.400 234.400 L 162.400 231.200 165.600 231.200 L 168.800 231.200 168.800 234.400 M330.883 359.500 L 331.000 362.600 334.083 362.717 L 337.167 362.833 337.283 365.917 L 337.400 369.000 346.900 369.033 L 356.400 369.065 356.400 365.933 L 356.400 362.800 346.800 362.800 L 337.200 362.800 337.200 359.600 L 337.200 356.400 333.983 356.400 L 330.766 356.400 330.883 359.500 " stroke="none" fill="#6e5f37" fill-rule="evenodd"></path><path id="path3" d="M37.200 108.983 L 37.200 111.966 34.100 112.083 L 31.000 112.200 30.890 118.500 L 30.780 124.800 27.790 124.800 L 24.800 124.800 24.800 128.000 L 24.800 131.200 28.000 131.200 L 31.200 131.200 31.200 128.217 L 31.200 125.234 34.300 125.117 L 37.400 125.000 37.510 118.700 L 37.620 112.400 53.210 112.400 L 68.800 112.400 68.800 115.600 L 68.800 118.800 65.800 118.800 L 62.800 118.800 62.800 125.018 L 62.800 131.235 65.700 131.118 L 68.600 131.000 68.717 127.900 L 68.834 124.800 72.033 124.800 L 75.232 124.800 75.116 128.100 L 75.000 131.400 71.883 131.517 L 68.767 131.634 68.883 134.717 L 69.000 137.800 72.100 137.917 L 75.200 138.034 75.200 134.817 L 75.200 131.600 78.400 131.600 L 81.600 131.600 81.600 128.200 L 81.600 124.800 78.400 124.800 L 75.200 124.800 75.200 118.400 L 75.200 112.000 72.200 112.000 L 69.200 112.000 69.200 109.000 L 69.200 106.000 53.200 106.000 L 37.200 106.000 37.200 108.983 M180.800 108.993 L 180.800 111.985 171.500 112.093 L 162.200 112.200 162.083 115.300 L 161.966 118.400 155.783 118.400 L 149.600 118.400 149.600 121.600 L 149.600 124.800 146.600 124.800 L 143.600 124.800 143.600 127.800 L 143.600 130.800 140.400 130.800 L 137.200 130.800 137.200 134.000 L 137.200 137.200 134.000 137.200 L 130.800 137.200 130.800 140.400 L 130.800 143.600 128.000 143.600 L 125.200 143.600 125.200 150.000 L 125.200 156.400 122.200 156.400 L 119.200 156.400 119.200 162.320 C 119.200 169.284,119.245 169.200,115.520 169.200 L 112.800 169.200 112.800 175.200 L 112.800 181.200 115.800 181.200 L 118.800 181.200 118.800 175.017 L 118.800 168.834 121.900 168.717 L 125.000 168.600 125.110 162.500 L 125.221 156.400 128.200 156.400 L 131.180 156.400 131.290 150.100 L 131.400 143.800 134.500 143.683 L 137.600 143.566 137.600 140.583 L 137.600 137.600 140.583 137.600 L 143.566 137.600 143.683 134.500 L 143.800 131.400 146.900 131.283 L 150.000 131.166 150.000 128.183 L 150.000 125.200 153.200 125.200 L 156.400 125.200 156.400 128.200 L 156.400 131.200 159.400 131.200 L 162.400 131.200 162.400 128.207 L 162.400 125.214 171.900 125.100 L 181.400 124.985 171.900 124.892 L 162.400 124.800 162.400 121.800 L 162.400 118.800 171.800 118.800 L 181.200 118.800 181.200 115.600 L 181.200 112.400 199.983 112.400 L 218.766 112.400 218.883 115.500 L 219.000 118.600 228.300 118.707 L 237.600 118.815 237.600 121.800 L 237.600 124.786 228.100 124.900 C 221.488 124.980,223.373 125.043,234.300 125.108 L 250.000 125.200 250.000 128.267 C 250.000 129.953,250.106 131.227,250.236 131.097 C 250.366 130.967,250.342 128.057,250.182 124.631 L 249.893 118.400 243.946 118.400 L 238.000 118.400 238.000 115.200 L 238.000 112.000 228.600 112.000 L 219.200 112.000 219.200 109.000 L 219.200 106.000 200.000 106.000 L 180.800 106.000 180.800 108.993 M331.600 109.200 L 331.600 112.400 347.200 112.400 L 362.800 112.400 362.800 118.600 L 362.800 124.800 365.800 124.800 L 368.800 124.800 368.800 128.000 L 368.800 131.200 372.000 131.200 L 375.200 131.200 375.200 128.000 L 375.200 124.800 372.210 124.800 L 369.220 124.800 369.110 118.500 L 369.000 112.200 365.900 112.083 L 362.800 111.966 362.800 108.983 L 362.800 106.000 347.200 106.000 L 331.600 106.000 331.600 109.200 M325.200 115.600 L 325.200 118.400 328.200 118.400 L 331.200 118.400 331.200 115.600 L 331.200 112.800 328.200 112.800 L 325.200 112.800 325.200 115.600 M331.600 125.000 L 331.600 131.235 334.500 131.118 L 337.400 131.000 337.400 125.000 L 337.400 119.000 334.500 118.882 L 331.600 118.765 331.600 125.000 M199.983 125.097 L 212.367 125.211 212.508 128.106 L 212.650 131.000 212.625 128.000 L 212.600 125.000 200.100 124.991 L 187.600 124.983 199.983 125.097 M318.882 128.100 L 319.000 131.000 321.900 131.118 L 324.800 131.235 324.800 128.218 L 324.800 125.200 321.782 125.200 L 318.765 125.200 318.882 128.100 M234.600 131.173 L 231.400 131.400 231.373 134.501 L 231.346 137.603 231.490 134.601 L 231.634 131.600 234.399 131.600 L 237.165 131.600 237.286 134.500 L 237.407 137.400 237.604 134.099 C 237.712 132.284,237.800 130.832,237.800 130.872 C 237.800 130.913,236.360 131.049,234.600 131.173 M162.575 131.722 C 162.457 132.029,162.424 133.522,162.502 135.040 L 162.643 137.800 162.722 134.700 L 162.800 131.600 165.582 131.600 L 168.365 131.600 168.509 134.300 L 168.652 137.000 168.626 134.200 L 168.600 131.400 165.694 131.282 C 163.497 131.193,162.736 131.301,162.575 131.722 M243.773 134.299 L 243.800 137.400 246.800 137.400 L 249.800 137.400 249.830 134.400 L 249.861 131.400 249.713 134.300 L 249.565 137.200 246.799 137.200 L 244.034 137.200 243.890 134.199 L 243.746 131.197 243.773 134.299 M256.400 134.383 L 256.400 137.600 259.400 137.600 L 262.400 137.600 262.400 140.583 L 262.400 143.566 265.500 143.683 L 268.600 143.800 268.800 150.000 L 269.000 156.200 272.100 156.317 L 275.200 156.434 275.200 162.617 L 275.200 168.800 278.200 168.800 L 281.200 168.800 281.199 175.100 L 281.198 181.400 284.199 181.268 L 287.200 181.137 287.200 175.186 L 287.200 169.235 284.300 169.118 L 281.400 169.000 281.290 162.717 L 281.180 156.433 278.090 156.317 L 275.000 156.200 274.890 149.900 L 274.780 143.600 271.990 143.600 L 269.200 143.600 269.200 140.400 L 269.200 137.200 266.018 137.200 L 262.835 137.200 262.718 134.300 L 262.600 131.400 259.500 131.283 L 256.400 131.166 256.400 134.383 M156.134 134.400 C 156.134 136.050,156.205 136.725,156.291 135.900 C 156.378 135.075,156.378 133.725,156.291 132.900 C 156.205 132.075,156.134 132.750,156.134 134.400 M325.200 134.818 L 325.200 138.035 328.100 137.918 L 331.000 137.800 331.117 134.700 L 331.234 131.600 328.217 131.600 L 325.200 131.600 325.200 134.818 M174.970 140.800 L 175.000 143.800 181.083 143.910 L 187.167 144.021 187.309 146.910 L 187.450 149.800 187.425 146.800 L 187.400 143.800 181.317 143.690 L 175.235 143.579 175.087 140.690 L 174.939 137.800 174.970 140.800 M193.772 144.129 C 193.656 144.432,193.624 145.922,193.702 147.440 L 193.843 150.200 193.922 147.100 L 194.000 144.000 199.982 144.000 L 205.965 144.000 206.109 146.700 L 206.252 149.400 206.226 146.600 L 206.200 143.800 200.091 143.690 C 195.201 143.601,193.941 143.689,193.772 144.129 M215.900 143.897 L 212.800 144.034 212.800 146.584 C 212.800 147.987,212.688 149.427,212.550 149.785 C 212.331 150.357,212.679 150.421,215.450 150.318 L 218.600 150.200 218.717 147.116 L 218.833 144.032 222.117 143.897 L 225.400 143.763 222.200 143.762 C 220.440 143.761,217.605 143.822,215.900 143.897 M162.537 153.000 C 162.539 154.760,162.609 155.430,162.693 154.489 C 162.778 153.549,162.777 152.109,162.691 151.289 C 162.605 150.470,162.536 151.240,162.537 153.000 M225.000 153.090 L 225.000 156.200 221.800 156.250 L 218.600 156.300 218.483 159.350 L 218.366 162.400 221.566 162.400 L 224.766 162.400 224.883 159.300 L 225.000 156.200 228.100 156.083 L 231.200 155.966 231.200 153.183 L 231.200 150.400 234.155 150.400 L 237.109 150.400 237.400 156.400 L 237.691 162.400 240.645 162.400 L 243.600 162.400 243.600 159.400 L 243.600 156.400 240.617 156.400 L 237.634 156.400 237.517 153.300 L 237.400 150.200 231.200 150.090 L 225.000 149.979 225.000 153.090 M178.182 156.290 L 181.167 156.433 181.310 159.418 L 181.454 162.403 181.427 159.301 L 181.400 156.200 178.299 156.173 L 175.197 156.146 178.182 156.290 M149.734 159.200 C 149.734 160.850,149.805 161.525,149.891 160.700 C 149.978 159.875,149.978 158.525,149.891 157.700 C 149.805 156.875,149.734 157.550,149.734 159.200 M249.932 159.401 C 249.859 161.051,249.935 162.401,250.100 162.401 C 250.265 162.400,250.400 161.050,250.400 159.400 C 250.400 155.525,250.102 155.525,249.932 159.401 M224.800 172.007 L 224.800 175.214 234.300 175.107 L 243.800 175.000 243.917 171.900 L 244.034 168.800 234.417 168.800 L 224.800 168.800 224.800 172.007 M149.770 172.000 L 149.800 175.000 162.300 175.009 L 174.800 175.017 162.418 174.903 L 150.035 174.789 149.887 171.894 L 149.739 169.000 149.770 172.000 M243.600 172.000 L 243.600 174.800 234.400 174.800 L 225.200 174.800 225.200 172.000 L 225.200 169.200 234.400 169.200 L 243.600 169.200 243.600 172.000 M125.067 175.067 C 124.920 175.213,124.800 178.198,124.800 181.698 L 124.800 188.063 121.799 187.932 L 118.798 187.800 118.799 190.700 L 118.800 193.600 122.000 193.600 L 125.200 193.600 125.200 184.417 L 125.200 175.234 128.300 175.097 L 131.400 174.961 128.367 174.880 C 126.698 174.836,125.213 174.920,125.067 175.067 M271.789 175.090 L 274.780 175.233 274.906 181.617 L 275.031 188.001 275.015 181.500 L 275.000 175.000 271.899 174.973 L 268.797 174.946 271.789 175.090 M131.280 184.270 L 131.200 187.539 134.363 187.670 C 136.103 187.741,137.442 187.665,137.340 187.500 C 137.237 187.335,135.911 187.200,134.393 187.200 L 131.634 187.200 131.497 184.100 L 131.361 181.000 131.280 184.270 M256.000 184.182 L 256.000 187.165 253.100 187.303 L 250.200 187.441 253.300 187.521 L 256.400 187.600 256.400 184.400 C 256.400 182.640,256.310 181.200,256.200 181.200 C 256.090 181.200,256.000 182.542,256.000 184.182 M262.480 184.300 L 262.400 187.600 265.600 187.600 L 268.800 187.600 268.721 184.500 L 268.641 181.400 268.503 184.300 L 268.365 187.200 265.599 187.200 L 262.834 187.200 262.697 184.100 L 262.561 181.000 262.480 184.300 M156.078 190.493 L 156.000 193.585 146.700 193.700 L 137.400 193.815 146.713 193.908 C 157.321 194.013,156.511 194.329,156.298 190.160 L 156.157 187.400 156.078 190.493 M249.600 190.794 L 249.600 193.588 237.300 193.694 L 225.000 193.800 224.882 196.700 L 224.765 199.600 222.000 199.600 L 219.235 199.600 219.118 196.700 L 219.000 193.800 215.800 193.771 L 212.600 193.742 215.700 193.888 L 218.800 194.034 218.800 197.017 L 218.800 200.000 222.000 200.000 L 225.200 200.000 225.200 197.000 L 225.200 194.000 237.600 194.000 L 250.000 194.000 250.000 191.000 C 250.000 189.350,249.910 188.000,249.800 188.000 C 249.690 188.000,249.600 189.257,249.600 190.794 M199.782 193.894 L 205.965 194.020 206.083 196.910 L 206.200 199.800 209.200 199.825 L 212.200 199.850 209.317 199.709 L 206.434 199.567 206.317 196.683 L 206.200 193.800 199.900 193.784 L 193.599 193.769 199.782 193.894 M276.711 193.893 C 277.651 193.978,279.091 193.977,279.911 193.891 C 280.730 193.805,279.960 193.736,278.200 193.737 C 276.440 193.739,275.770 193.809,276.711 193.893 " stroke="none" fill="#9c7444" fill-rule="evenodd"></path><path id="path4" d="M295.511 100.293 C 296.451 100.378,297.891 100.377,298.711 100.291 C 299.530 100.205,298.760 100.136,297.000 100.137 C 295.240 100.139,294.570 100.209,295.511 100.293 M295.300 118.691 C 296.125 118.778,297.475 118.778,298.300 118.691 C 299.125 118.605,298.450 118.534,296.800 118.534 C 295.150 118.534,294.475 118.605,295.300 118.691 M162.478 128.083 L 162.400 131.166 159.300 131.303 L 156.200 131.439 159.313 131.520 C 162.946 131.613,162.898 131.667,162.698 127.760 L 162.557 125.000 162.478 128.083 M237.373 128.299 L 237.400 131.400 240.501 131.427 L 243.603 131.454 240.618 131.310 L 237.633 131.167 237.490 128.182 L 237.346 125.197 237.373 128.299 M170.500 137.491 C 171.325 137.578,172.675 137.578,173.500 137.491 C 174.325 137.405,173.650 137.334,172.000 137.334 C 170.350 137.334,169.675 137.405,170.500 137.491 M37.334 140.800 C 37.334 142.450,37.405 143.125,37.491 142.300 C 37.578 141.475,37.578 140.125,37.491 139.300 C 37.405 138.475,37.334 139.150,37.334 140.800 M256.160 143.800 C 256.161 147.100,256.222 148.397,256.298 146.682 C 256.373 144.967,256.372 142.267,256.297 140.682 C 256.221 139.097,256.159 140.500,256.160 143.800 M274.962 149.800 C 274.962 153.320,275.024 154.706,275.098 152.881 C 275.172 151.056,275.172 148.176,275.097 146.481 C 275.022 144.786,274.961 146.280,274.962 149.800 M189.111 149.893 C 190.051 149.978,191.491 149.977,192.311 149.891 C 193.130 149.805,192.360 149.736,190.600 149.737 C 188.840 149.739,188.170 149.809,189.111 149.893 M207.911 149.893 C 208.851 149.978,210.291 149.977,211.111 149.891 C 211.930 149.805,211.160 149.736,209.400 149.737 C 207.640 149.739,206.970 149.809,207.911 149.893 M150.134 159.200 C 150.134 160.850,150.205 161.525,150.291 160.700 C 150.378 159.875,150.378 158.525,150.291 157.700 C 150.205 156.875,150.134 157.550,150.134 159.200 M150.167 169.342 C 150.052 169.640,150.023 171.035,150.102 172.442 L 150.246 175.000 150.323 172.106 L 150.400 169.212 162.700 169.100 L 175.000 168.988 162.687 168.894 C 152.631 168.817,150.337 168.899,150.167 169.342 M130.984 181.500 L 131.000 187.800 134.000 187.825 L 137.000 187.850 134.110 187.709 L 131.220 187.567 131.094 181.383 L 130.969 175.199 130.984 181.500 M112.758 181.320 C 112.935 181.495,114.321 181.584,115.840 181.516 L 118.600 181.392 115.518 181.196 C 113.823 181.088,112.581 181.144,112.758 181.320 M268.879 184.356 L 268.800 187.712 263.300 187.475 C 260.275 187.344,256.090 187.382,254.000 187.558 L 250.200 187.879 253.100 187.940 L 256.000 188.000 256.000 190.782 L 256.000 193.565 253.100 193.703 L 250.200 193.841 253.300 193.921 L 256.400 194.000 256.400 190.800 L 256.400 187.600 259.390 187.600 L 262.380 187.600 262.490 193.900 L 262.600 200.200 265.700 200.317 L 268.800 200.434 268.800 203.200 L 268.800 205.966 265.700 206.083 L 262.600 206.200 262.400 218.600 L 262.200 231.000 259.100 231.117 L 256.000 231.234 256.000 237.417 L 256.000 243.600 253.017 243.600 L 250.034 243.600 249.917 246.700 L 249.800 249.800 246.700 249.917 L 243.600 250.034 243.695 268.717 L 243.790 287.400 243.900 271.900 L 244.009 256.400 246.988 256.400 L 249.966 256.400 250.083 253.300 L 250.200 250.200 253.300 250.083 L 256.400 249.966 256.400 240.800 L 256.400 231.634 259.500 231.517 L 262.600 231.400 262.706 218.900 L 262.811 206.400 269.023 206.400 L 275.235 206.400 275.118 209.300 L 275.000 212.200 271.900 212.317 L 268.800 212.434 268.800 215.600 L 268.800 218.766 271.900 218.883 L 275.000 219.000 275.117 221.883 L 275.234 224.766 272.117 224.883 L 269.000 225.000 268.883 228.083 L 268.767 231.166 271.883 231.283 L 275.000 231.400 275.000 234.400 L 275.000 237.400 271.900 237.517 L 268.800 237.634 268.800 240.600 L 268.800 243.566 271.900 243.683 L 275.000 243.800 275.000 246.800 L 275.000 249.800 268.683 249.910 L 262.367 250.020 262.483 253.110 L 262.600 256.200 265.700 256.317 L 268.800 256.434 268.800 259.417 L 268.800 262.400 262.600 262.400 L 256.400 262.400 256.400 265.600 L 256.400 268.800 259.400 268.800 L 262.400 268.800 262.400 271.800 L 262.400 274.800 265.358 274.800 L 268.316 274.800 268.606 268.600 L 268.897 262.400 271.800 262.400 L 274.703 262.400 274.993 256.217 L 275.283 250.033 278.141 249.917 L 281.000 249.800 281.000 246.800 L 281.000 243.800 278.100 243.682 L 275.200 243.565 275.200 240.582 L 275.200 237.600 278.200 237.600 L 281.200 237.600 281.200 240.600 L 281.200 243.600 284.200 243.600 L 287.200 243.600 287.200 240.600 L 287.200 237.600 284.200 237.600 L 281.200 237.600 281.200 234.400 L 281.200 231.200 284.200 231.200 L 287.200 231.200 287.200 228.000 L 287.200 224.800 284.200 224.800 L 281.200 224.800 281.200 221.800 L 281.200 218.800 284.200 218.800 L 287.200 218.800 287.200 215.600 L 287.200 212.400 284.200 212.400 L 281.200 212.400 281.200 209.400 L 281.200 206.400 278.200 206.400 L 275.200 206.400 275.200 203.200 L 275.200 200.000 278.170 200.000 L 281.139 200.000 281.270 196.900 L 281.400 193.800 275.117 193.683 L 268.834 193.566 268.717 196.683 L 268.600 199.800 265.700 199.918 L 262.800 200.035 262.800 194.018 L 262.800 188.000 265.813 188.000 C 269.343 188.000,269.291 188.064,269.098 183.963 L 268.959 181.000 268.879 184.356 M282.900 181.491 C 283.725 181.578,285.075 181.578,285.900 181.491 C 286.725 181.405,286.050 181.334,284.400 181.334 C 282.750 181.334,282.075 181.405,282.900 181.491 M118.540 190.800 C 118.540 192.670,118.609 193.435,118.693 192.500 C 118.777 191.565,118.777 190.035,118.693 189.100 C 118.609 188.165,118.540 188.930,118.540 190.800 M159.300 187.917 L 162.400 188.034 162.400 190.775 L 162.400 193.516 156.200 193.806 L 150.000 194.097 150.000 197.032 L 150.000 199.966 146.900 200.083 L 143.800 200.200 143.683 203.300 L 143.566 206.400 140.593 206.400 L 137.620 206.400 137.510 200.100 L 137.400 193.800 131.317 193.690 L 125.234 193.579 125.117 196.690 L 125.000 199.800 121.900 199.917 L 118.800 200.034 118.800 203.217 L 118.800 206.400 122.061 206.400 L 125.322 206.400 125.061 210.662 C 124.917 213.006,124.800 215.796,124.800 216.862 L 124.800 218.800 121.800 218.800 L 118.800 218.800 118.800 225.000 L 118.800 231.200 115.800 231.200 L 112.800 231.200 112.800 237.383 L 112.800 243.566 115.900 243.683 L 119.000 243.800 119.117 246.883 L 119.233 249.966 122.117 250.083 L 125.000 250.200 125.110 256.283 L 125.221 262.365 128.110 262.483 L 131.000 262.600 131.354 268.700 L 131.707 274.800 134.654 274.800 L 137.600 274.800 137.600 271.800 L 137.600 268.800 140.600 268.800 L 143.600 268.800 143.600 272.000 L 143.600 275.200 140.582 275.200 L 137.565 275.200 137.682 278.100 L 137.800 281.000 144.000 281.200 L 150.200 281.400 150.317 284.283 L 150.434 287.166 153.317 287.283 L 156.200 287.400 156.316 290.700 L 156.432 294.000 162.616 294.000 L 168.800 294.000 168.800 296.970 L 168.800 299.939 172.001 300.070 L 175.202 300.200 175.201 293.900 L 175.200 287.600 172.000 287.600 L 168.800 287.600 168.800 290.600 L 168.800 293.600 165.818 293.600 L 162.835 293.600 162.718 290.700 L 162.600 287.800 159.400 287.600 L 156.200 287.400 156.083 284.517 L 155.966 281.634 153.083 281.517 L 150.200 281.400 150.093 271.900 L 149.986 262.400 146.793 262.400 L 143.600 262.400 143.600 265.400 L 143.600 268.400 140.600 268.400 L 137.600 268.400 137.600 265.417 L 137.600 262.434 134.500 262.317 L 131.400 262.200 131.290 256.100 L 131.179 250.000 128.190 250.000 L 125.200 250.000 125.200 231.400 L 125.200 212.800 128.200 212.800 L 131.200 212.800 131.200 219.000 L 131.200 225.200 134.400 225.200 L 137.600 225.200 137.600 219.017 L 137.600 212.834 140.700 212.717 L 143.800 212.600 143.917 209.500 L 144.034 206.400 147.000 206.400 L 149.966 206.400 150.083 203.300 L 150.200 200.200 153.083 200.083 L 155.966 199.966 156.083 203.083 L 156.200 206.200 159.400 206.200 L 162.600 206.200 162.717 203.100 L 162.834 200.000 168.817 200.000 L 174.800 200.000 174.800 202.983 L 174.800 205.966 171.700 206.083 L 168.600 206.200 168.468 209.200 C 168.396 210.850,168.460 215.132,168.611 218.716 L 168.887 225.232 171.943 225.116 L 175.000 225.000 175.117 221.900 L 175.234 218.800 178.217 218.800 L 181.200 218.800 181.200 215.817 L 181.200 212.834 184.300 212.717 L 187.400 212.600 187.517 209.500 L 187.634 206.400 190.600 206.400 L 193.566 206.400 193.683 209.500 L 193.800 212.600 196.800 212.600 L 199.800 212.600 199.917 209.500 L 200.034 206.400 203.000 206.400 L 205.966 206.400 206.083 209.500 L 206.200 212.600 209.400 212.600 L 212.600 212.600 212.717 209.500 L 212.834 206.400 215.800 206.400 L 218.766 206.400 218.883 209.500 L 219.000 212.600 222.000 212.600 L 225.000 212.600 225.117 209.500 L 225.234 206.400 228.217 206.400 L 231.200 206.400 231.200 203.461 L 231.200 200.523 236.063 200.261 C 238.737 200.118,242.967 200.000,245.463 200.000 L 250.000 200.000 250.000 197.000 L 250.000 194.000 243.818 194.000 L 237.635 194.000 237.518 196.900 L 237.400 199.800 231.200 200.000 L 225.000 200.200 225.000 203.200 L 225.000 206.200 222.000 206.200 L 219.000 206.200 218.883 203.100 L 218.766 200.000 215.583 200.000 L 212.400 200.000 212.400 203.200 L 212.400 206.400 209.448 206.400 L 206.497 206.400 206.206 200.200 L 205.916 194.000 199.758 194.000 L 193.600 194.000 193.600 197.000 L 193.600 200.000 187.400 200.000 L 181.200 200.000 181.200 196.800 L 181.200 193.600 178.200 193.600 L 175.200 193.600 175.200 190.810 L 175.200 188.021 181.300 187.910 C 184.655 187.850,180.380 187.800,171.800 187.800 C 163.220 187.800,157.595 187.853,159.300 187.917 M181.117 203.100 L 181.000 206.200 178.110 206.317 L 175.221 206.435 175.110 212.517 L 175.000 218.600 172.000 218.600 L 169.000 218.600 168.890 212.500 L 168.779 206.400 171.990 206.400 L 175.200 206.400 175.200 203.200 L 175.200 200.000 178.217 200.000 L 181.234 200.000 181.117 203.100 M137.463 210.900 C 137.320 213.375,137.203 216.165,137.202 217.100 L 137.200 218.800 134.400 218.800 L 131.600 218.800 131.598 217.100 C 131.597 216.165,131.480 213.375,131.337 210.900 L 131.078 206.400 134.400 206.400 L 137.722 206.400 137.463 210.900 M156.282 212.651 C 156.127 212.806,156.000 214.253,156.000 215.867 L 156.000 218.800 153.000 218.800 L 150.000 218.800 150.000 221.800 L 150.000 224.800 146.800 224.800 L 143.600 224.800 143.600 231.000 L 143.600 237.200 140.624 237.200 C 136.885 237.200,137.162 236.326,137.468 247.172 L 137.729 256.431 140.764 256.316 L 143.800 256.200 143.907 246.900 L 144.015 237.600 146.965 237.600 L 149.916 237.600 150.206 231.417 L 150.495 225.233 153.348 225.117 L 156.200 225.000 156.317 221.917 L 156.433 218.833 159.517 218.717 L 162.600 218.600 162.600 215.600 L 162.600 212.600 159.582 212.485 C 157.922 212.421,156.437 212.496,156.282 212.651 M281.200 215.600 L 281.200 218.800 278.200 218.800 L 275.200 218.800 275.200 215.600 L 275.200 212.400 278.200 212.400 L 281.200 212.400 281.200 215.600 M193.600 221.800 L 193.600 224.800 190.617 224.800 L 187.634 224.800 187.517 227.900 L 187.400 231.000 184.300 231.117 L 181.200 231.234 181.200 237.417 L 181.200 243.600 178.000 243.600 L 174.800 243.600 174.800 253.000 L 174.800 262.400 178.000 262.400 L 181.200 262.400 181.200 258.063 C 181.200 255.677,181.317 251.545,181.461 248.879 L 181.721 244.033 184.561 243.916 L 187.400 243.800 187.600 237.600 L 187.800 231.400 190.900 231.283 L 194.000 231.166 194.000 228.183 L 194.000 225.200 197.000 225.200 L 200.000 225.200 200.000 222.000 L 200.000 218.800 196.800 218.800 L 193.600 218.800 193.600 221.800 M149.918 228.100 L 149.800 231.000 146.900 231.118 L 144.000 231.235 144.000 228.218 L 144.000 225.200 147.018 225.200 L 150.035 225.200 149.918 228.100 M281.200 228.200 L 281.200 231.200 278.200 231.200 L 275.200 231.200 275.200 228.200 L 275.200 225.200 278.200 225.200 L 281.200 225.200 281.200 228.200 M162.400 234.400 L 162.400 237.600 165.600 237.600 L 168.800 237.600 168.800 234.400 L 168.800 231.200 165.600 231.200 L 162.400 231.200 162.400 234.400 M187.200 234.600 L 187.200 237.600 184.400 237.600 L 181.600 237.600 181.600 234.600 L 181.600 231.600 184.400 231.600 L 187.200 231.600 187.200 234.600 M143.600 240.600 L 143.600 243.600 140.600 243.600 L 137.600 243.600 137.600 240.600 L 137.600 237.600 140.600 237.600 L 143.600 237.600 143.600 240.600 M181.200 247.000 L 181.200 250.000 178.200 250.000 L 175.200 250.000 175.200 247.000 L 175.200 244.000 178.200 244.000 L 181.200 244.000 181.200 247.000 M187.600 271.800 L 187.600 274.800 184.400 274.800 L 181.200 274.800 181.200 281.183 L 181.200 287.566 184.300 287.683 L 187.400 287.800 187.400 294.100 L 187.400 300.401 196.900 300.400 L 206.400 300.400 206.400 297.200 L 206.400 294.000 209.400 294.000 L 212.400 294.000 212.400 296.983 L 212.400 299.966 215.500 300.083 L 218.600 300.200 218.717 303.300 L 218.834 306.400 222.017 306.400 L 225.200 306.400 225.200 303.217 L 225.200 300.034 222.100 299.917 L 219.000 299.800 218.890 293.700 L 218.779 287.600 215.590 287.600 L 212.400 287.600 212.400 290.600 L 212.400 293.600 209.400 293.600 L 206.400 293.600 206.400 290.642 L 206.400 287.684 200.200 287.394 L 194.000 287.103 194.000 277.952 L 194.000 268.800 190.800 268.800 L 187.600 268.800 187.600 271.800 M187.600 278.200 L 187.600 281.200 184.600 281.200 L 181.600 281.200 181.600 278.200 L 181.600 275.200 184.600 275.200 L 187.600 275.200 187.600 278.200 M250.082 278.100 L 250.200 281.000 256.200 281.000 L 262.200 281.000 262.318 278.100 L 262.435 275.200 256.200 275.200 L 249.965 275.200 250.082 278.100 M200.000 290.600 L 200.000 293.600 196.800 293.600 L 193.600 293.600 193.600 290.867 C 193.600 287.504,193.498 287.600,197.067 287.600 L 200.000 287.600 200.000 290.600 " stroke="none" fill="#5c4c2c" fill-rule="evenodd"></path><path id="path5" d="M300.137 97.000 C 300.139 98.760,300.209 99.430,300.293 98.489 C 300.378 97.549,300.377 96.109,300.291 95.289 C 300.205 94.470,300.136 95.240,300.137 97.000 M256.358 118.920 C 256.535 119.095,257.921 119.184,259.440 119.116 L 262.200 118.992 259.118 118.796 C 257.423 118.688,256.181 118.744,256.358 118.920 M299.996 121.718 L 300.193 125.000 300.315 122.039 C 300.382 120.410,300.294 118.933,300.119 118.757 C 299.943 118.580,299.888 119.913,299.996 121.718 M250.134 146.800 C 250.134 148.450,250.205 149.125,250.291 148.300 C 250.378 147.475,250.378 146.125,250.291 145.300 C 250.205 144.475,250.134 145.150,250.134 146.800 M106.261 149.900 C 106.158 150.065,107.992 150.153,110.337 150.095 C 117.919 149.908,118.741 149.750,112.524 149.674 C 109.182 149.633,106.363 149.735,106.261 149.900 M38.912 150.295 C 39.964 150.377,41.584 150.376,42.512 150.292 C 43.440 150.208,42.580 150.141,40.600 150.142 C 38.620 150.143,37.860 150.212,38.912 150.295 M357.911 150.293 C 358.851 150.378,360.291 150.377,361.111 150.291 C 361.930 150.205,361.160 150.136,359.400 150.137 C 357.640 150.139,356.970 150.209,357.911 150.293 M118.934 153.200 C 118.934 154.850,119.005 155.525,119.091 154.700 C 119.178 153.875,119.178 152.525,119.091 151.700 C 119.005 150.875,118.934 151.550,118.934 153.200 M118.537 159.400 C 118.539 161.160,118.609 161.830,118.693 160.889 C 118.778 159.949,118.777 158.509,118.691 157.689 C 118.605 156.870,118.536 157.640,118.537 159.400 M281.337 159.400 C 281.339 161.160,281.409 161.830,281.493 160.889 C 281.578 159.949,281.577 158.509,281.491 157.689 C 281.405 156.870,281.336 157.640,281.337 159.400 M283.111 168.693 C 284.051 168.778,285.491 168.777,286.311 168.691 C 287.130 168.605,286.360 168.536,284.600 168.537 C 282.840 168.539,282.170 168.609,283.111 168.693 M287.761 175.200 C 287.761 178.610,287.822 180.005,287.897 178.300 C 287.972 176.595,287.972 173.805,287.897 172.100 C 287.822 170.395,287.761 171.790,287.761 175.200 M306.400 293.783 L 306.400 299.966 309.500 300.083 L 312.600 300.200 312.718 303.100 L 312.835 306.000 315.818 306.000 L 318.800 306.000 318.800 299.800 L 318.800 293.600 315.800 293.600 L 312.800 293.600 312.800 290.600 L 312.800 287.600 309.600 287.600 L 306.400 287.600 306.400 293.783 M280.883 309.500 L 281.000 312.600 284.400 312.600 L 287.800 312.600 287.917 309.500 L 288.034 306.400 284.400 306.400 L 280.766 306.400 280.883 309.500 M293.600 316.000 L 293.600 319.200 299.800 319.200 L 306.000 319.200 306.000 322.200 L 306.000 325.200 309.200 325.200 L 312.400 325.200 312.400 328.400 L 312.400 331.600 315.400 331.600 L 318.400 331.600 318.400 334.320 C 318.400 338.032,318.341 338.000,325.062 338.000 L 330.765 338.000 330.882 340.900 L 331.000 343.800 334.200 343.800 L 337.400 343.800 337.510 337.500 L 337.620 331.200 340.610 331.200 L 343.600 331.200 343.600 328.000 L 343.600 324.800 334.417 324.800 L 325.234 324.800 325.117 321.700 L 325.000 318.600 315.700 318.493 L 306.400 318.385 306.400 315.593 L 306.400 312.800 300.000 312.800 L 293.600 312.800 293.600 316.000 M369.200 328.000 L 369.200 330.800 372.000 330.800 L 374.800 330.800 374.800 328.000 L 374.800 325.200 372.000 325.200 L 369.200 325.200 369.200 328.000 M356.310 343.700 L 356.200 349.800 350.000 350.000 L 343.800 350.200 343.683 353.300 L 343.566 356.400 349.983 356.400 L 356.400 356.400 356.400 353.400 L 356.400 350.400 359.600 350.400 L 362.800 350.400 362.800 344.000 L 362.800 337.600 359.610 337.600 L 356.421 337.600 356.310 343.700 M334.083 356.297 L 337.167 356.433 337.283 359.517 L 337.400 362.600 346.900 362.707 C 353.149 362.778,356.400 362.675,356.400 362.407 C 356.400 362.143,353.176 362.000,347.200 362.000 L 338.000 362.000 338.000 359.000 L 338.000 356.000 334.500 356.080 L 331.000 356.161 334.083 356.297 M343.600 372.000 L 343.600 375.200 347.000 375.200 L 350.400 375.200 350.400 372.000 L 350.400 368.800 347.000 368.800 L 343.600 368.800 343.600 372.000 " stroke="none" fill="#443c3c" fill-rule="evenodd"></path><path id="path6" d="M312.000 96.800 L 312.000 99.600 306.224 99.600 C 302.804 99.600,300.346 99.763,300.200 100.000 C 300.064 100.220,298.613 100.400,296.976 100.400 L 294.000 100.400 294.000 109.370 L 294.000 118.339 297.201 118.470 L 300.402 118.600 300.401 115.718 L 300.400 112.835 303.300 112.718 L 306.200 112.600 306.317 109.500 L 306.434 106.400 309.417 106.400 L 312.400 106.400 312.400 100.200 C 312.400 96.790,312.310 94.000,312.200 94.000 C 312.090 94.000,312.000 95.260,312.000 96.800 M180.937 128.200 C 180.939 129.960,181.009 130.630,181.093 129.689 C 181.178 128.749,181.177 127.309,181.091 126.489 C 181.005 125.670,180.936 126.440,180.937 128.200 M187.737 128.200 C 187.739 129.960,187.809 130.630,187.893 129.689 C 187.978 128.749,187.977 127.309,187.891 126.489 C 187.805 125.670,187.736 126.440,187.737 128.200 M218.937 128.200 C 218.939 129.960,219.009 130.630,219.093 129.689 C 219.178 128.749,219.177 127.309,219.091 126.489 C 219.005 125.670,218.936 126.440,218.937 128.200 M165.782 131.090 L 168.767 131.233 168.910 134.218 L 169.054 137.203 169.027 134.101 L 169.000 131.000 165.899 130.973 L 162.797 130.946 165.782 131.090 M230.968 131.340 C 230.854 131.637,230.824 133.122,230.902 134.640 L 231.043 137.400 231.122 134.317 L 231.200 131.234 234.300 131.097 L 237.400 130.961 234.287 130.880 C 231.986 130.821,231.121 130.941,230.968 131.340 M162.134 134.400 C 162.134 136.050,162.205 136.725,162.291 135.900 C 162.378 135.075,162.378 133.725,162.291 132.900 C 162.205 132.075,162.134 132.750,162.134 134.400 M237.734 134.400 C 237.734 136.050,237.805 136.725,237.891 135.900 C 237.978 135.075,237.978 133.725,237.891 132.900 C 237.805 132.075,237.734 132.750,237.734 134.400 M256.134 134.400 C 256.134 136.050,256.205 136.725,256.291 135.900 C 256.378 135.075,256.378 133.725,256.291 132.900 C 256.205 132.075,256.134 132.750,256.134 134.400 M124.888 149.682 L 124.800 155.965 121.900 156.103 L 119.000 156.241 121.913 156.321 C 125.467 156.418,125.253 156.883,125.100 149.382 L 124.977 143.400 124.888 149.682 M187.737 146.600 C 187.739 148.360,187.809 149.030,187.893 148.089 C 187.978 147.149,187.977 145.709,187.891 144.889 C 187.805 144.070,187.736 144.840,187.737 146.600 M162.800 153.400 L 162.800 156.400 156.600 156.400 L 150.400 156.400 150.400 159.405 L 150.400 162.410 165.700 162.305 L 181.000 162.200 181.118 159.300 L 181.235 156.400 178.018 156.400 L 174.800 156.400 174.800 153.400 L 174.800 150.400 168.800 150.400 L 162.800 150.400 162.800 153.400 M276.711 156.293 C 277.651 156.378,279.091 156.377,279.911 156.291 C 280.730 156.205,279.960 156.136,278.200 156.137 C 276.440 156.139,275.770 156.209,276.711 156.293 M118.478 165.282 L 118.400 168.365 115.500 168.503 L 112.600 168.641 115.513 168.721 C 118.922 168.814,118.897 168.843,118.698 164.960 L 118.557 162.200 118.478 165.282 M281.337 165.400 C 281.339 167.160,281.409 167.830,281.493 166.889 C 281.578 165.949,281.577 164.509,281.491 163.689 C 281.405 162.870,281.336 163.640,281.337 165.400 M150.400 172.000 L 150.400 174.800 162.600 174.800 L 174.800 174.800 174.800 172.000 L 174.800 169.200 162.600 169.200 L 150.400 169.200 150.400 172.000 M125.200 184.400 L 125.200 193.600 131.200 193.600 L 137.200 193.600 137.200 190.817 L 137.200 188.034 134.100 187.917 L 131.000 187.800 130.890 181.500 L 130.780 175.200 127.990 175.200 L 125.200 175.200 125.200 184.400 M269.110 181.500 L 269.000 187.800 265.900 187.917 L 262.800 188.034 262.800 194.034 L 262.800 200.035 265.700 199.918 L 268.600 199.800 268.717 196.700 L 268.834 193.600 271.817 193.600 L 274.800 193.600 274.800 184.400 L 274.800 175.200 272.010 175.200 L 269.220 175.200 269.110 181.500 M112.488 212.600 C 112.538 229.760,112.633 240.965,112.699 237.500 L 112.820 231.200 115.810 231.200 L 118.800 231.200 118.800 225.000 L 118.800 218.800 121.800 218.800 L 124.800 218.800 124.800 216.862 C 124.800 215.796,124.917 213.006,125.061 210.662 L 125.322 206.400 122.061 206.400 L 118.800 206.400 118.800 203.217 L 118.800 200.034 121.900 199.917 L 125.000 199.800 125.118 196.900 L 125.235 194.000 121.818 194.000 L 118.400 194.000 118.400 187.832 L 118.400 181.663 115.399 181.532 L 112.398 181.400 112.488 212.600 M284.500 181.518 L 281.600 181.635 281.598 186.318 C 281.597 188.893,281.480 193.025,281.337 195.500 L 281.078 200.000 278.139 200.000 L 275.200 200.000 275.200 203.200 L 275.200 206.400 269.006 206.400 L 262.811 206.400 262.706 218.900 L 262.600 231.400 259.500 231.517 L 256.400 231.634 256.400 240.800 L 256.400 249.966 253.300 250.083 L 250.200 250.200 250.083 253.300 L 249.966 256.400 246.983 256.400 L 244.000 256.400 244.000 271.567 C 244.000 279.909,243.908 286.974,243.795 287.267 C 243.568 287.854,249.102 287.825,249.713 287.236 C 249.884 287.071,250.025 284.298,250.025 281.075 L 250.025 275.215 259.313 275.107 L 268.600 275.000 268.717 271.917 L 268.833 268.833 271.917 268.717 L 275.000 268.600 275.110 262.500 L 275.221 256.400 278.210 256.400 L 281.200 256.400 281.201 253.100 L 281.202 249.800 278.242 249.930 L 275.281 250.060 274.992 256.230 L 274.703 262.400 271.752 262.400 L 268.800 262.400 268.800 259.417 L 268.800 256.434 265.700 256.317 L 262.600 256.200 262.483 253.110 L 262.367 250.020 268.683 249.910 L 275.000 249.800 275.000 246.800 L 275.000 243.800 271.900 243.683 L 268.800 243.566 268.800 240.600 L 268.800 237.634 271.900 237.517 L 275.000 237.400 275.000 234.400 L 275.000 231.400 271.883 231.283 L 268.767 231.166 268.883 228.083 L 269.000 225.000 272.117 224.883 L 275.234 224.766 275.117 221.883 L 275.000 219.000 271.900 218.883 L 268.800 218.766 268.800 215.600 L 268.800 212.434 271.900 212.317 L 275.000 212.200 275.118 209.300 L 275.235 206.400 278.218 206.400 L 281.200 206.400 281.200 209.400 L 281.200 212.400 278.200 212.400 L 275.200 212.400 275.200 215.600 L 275.200 218.800 278.200 218.800 L 281.200 218.800 281.200 221.800 L 281.200 224.800 284.200 224.800 L 287.200 224.800 287.200 228.000 L 287.200 231.200 284.200 231.200 L 281.200 231.200 281.200 228.200 L 281.200 225.200 278.200 225.200 L 275.200 225.200 275.200 228.200 L 275.200 231.200 278.200 231.200 L 281.200 231.200 281.200 234.400 L 281.200 237.600 278.200 237.600 L 275.200 237.600 275.200 240.558 L 275.200 243.517 281.030 243.808 C 284.518 243.983,287.010 243.950,287.233 243.727 C 287.458 243.502,287.564 231.110,287.502 212.378 L 287.400 181.400 284.500 181.518 M256.400 184.400 L 256.400 187.200 259.400 187.200 L 262.400 187.200 262.400 184.400 L 262.400 181.600 259.400 181.600 L 256.400 181.600 256.400 184.400 M156.400 190.800 L 156.400 193.600 159.400 193.600 L 162.400 193.600 162.400 190.800 L 162.400 188.000 159.400 188.000 L 156.400 188.000 156.400 190.800 M175.200 190.800 L 175.200 193.600 178.200 193.600 L 181.200 193.600 181.200 196.800 L 181.200 200.000 178.200 200.000 L 175.200 200.000 175.200 203.200 L 175.200 206.400 171.990 206.400 L 168.779 206.400 168.890 212.500 L 169.000 218.600 172.000 218.600 L 175.000 218.600 175.110 212.517 L 175.221 206.435 178.110 206.317 L 181.000 206.200 181.117 203.100 L 181.234 200.000 187.417 200.000 L 193.600 200.000 193.600 197.000 L 193.600 194.000 190.400 194.000 L 187.200 194.000 187.200 191.000 L 187.200 188.000 181.200 188.000 L 175.200 188.000 175.200 190.800 M250.400 190.800 L 250.400 193.600 253.200 193.600 L 256.000 193.600 256.000 190.800 L 256.000 188.000 253.200 188.000 L 250.400 188.000 250.400 190.800 M137.600 200.200 L 137.600 206.400 134.339 206.400 L 131.078 206.400 131.337 210.900 C 131.480 213.375,131.597 216.165,131.598 217.100 L 131.600 218.800 134.352 218.800 L 137.103 218.800 137.394 212.600 L 137.684 206.400 140.625 206.400 L 143.566 206.400 143.683 203.300 L 143.800 200.200 146.900 200.083 L 150.000 199.966 150.000 196.983 L 150.000 194.000 143.800 194.000 L 137.600 194.000 137.600 200.200 M212.800 197.000 L 212.800 200.000 215.600 200.000 L 218.400 200.000 218.400 197.000 L 218.400 194.000 215.600 194.000 L 212.800 194.000 212.800 197.000 M225.200 197.010 L 225.200 200.021 231.300 199.910 L 237.400 199.800 237.518 196.900 L 237.635 194.000 231.418 194.000 L 225.200 194.000 225.200 197.010 M206.400 203.400 L 206.400 206.400 209.400 206.400 L 212.400 206.400 212.400 203.400 L 212.400 200.400 209.400 200.400 L 206.400 200.400 206.400 203.400 M218.882 203.300 L 219.000 206.200 222.000 206.200 L 225.000 206.200 225.118 203.300 L 225.235 200.400 222.000 200.400 L 218.765 200.400 218.882 203.300 M287.200 215.600 L 287.200 218.800 284.200 218.800 L 281.200 218.800 281.200 215.600 L 281.200 212.400 284.200 212.400 L 287.200 212.400 287.200 215.600 M144.000 228.218 L 144.000 231.235 146.900 231.118 L 149.800 231.000 149.918 228.100 L 150.035 225.200 147.018 225.200 L 144.000 225.200 144.000 228.218 M181.600 234.600 L 181.600 237.600 184.400 237.600 L 187.200 237.600 187.200 234.600 L 187.200 231.600 184.400 231.600 L 181.600 231.600 181.600 234.600 M137.600 240.600 L 137.600 243.600 140.600 243.600 L 143.600 243.600 143.600 240.600 L 143.600 237.600 140.600 237.600 L 137.600 237.600 137.600 240.600 M287.200 240.600 L 287.200 243.600 284.200 243.600 L 281.200 243.600 281.200 240.600 L 281.200 237.600 284.200 237.600 L 287.200 237.600 287.200 240.600 M118.800 249.937 L 119.000 256.200 122.117 256.317 L 125.234 256.434 125.117 253.317 L 125.000 250.200 122.100 250.082 L 119.200 249.965 119.200 247.006 C 119.200 245.379,119.065 243.963,118.900 243.861 C 118.735 243.758,118.690 246.493,118.800 249.937 M175.200 247.000 L 175.200 250.000 178.200 250.000 L 181.200 250.000 181.200 247.000 L 181.200 244.000 178.200 244.000 L 175.200 244.000 175.200 247.000 M125.200 265.582 L 125.200 268.800 128.183 268.800 L 131.166 268.800 131.283 271.900 L 131.400 275.000 137.500 275.110 L 143.600 275.221 143.600 272.010 L 143.600 268.800 140.600 268.800 L 137.600 268.800 137.600 271.800 L 137.600 274.800 134.654 274.800 L 131.707 274.800 131.354 268.700 L 131.000 262.600 128.100 262.482 L 125.200 262.365 125.200 265.582 M268.798 264.100 C 268.797 265.035,268.680 267.825,268.537 270.300 L 268.278 274.800 265.339 274.800 L 262.400 274.800 262.400 271.800 L 262.400 268.800 259.400 268.800 L 256.400 268.800 256.400 265.600 L 256.400 262.400 262.600 262.400 L 268.800 262.400 268.798 264.100 M181.600 278.200 L 181.600 281.200 184.600 281.200 L 187.600 281.200 187.600 278.200 L 187.600 275.200 184.600 275.200 L 181.600 275.200 181.600 278.200 M149.930 284.437 L 150.061 287.600 153.130 287.521 L 156.200 287.441 153.300 287.303 L 150.400 287.165 150.400 284.406 C 150.400 282.889,150.265 281.563,150.100 281.460 C 149.935 281.358,149.859 282.697,149.930 284.437 M269.117 284.700 L 269.000 287.800 265.900 287.917 L 262.800 288.034 262.800 291.017 L 262.800 294.000 256.400 294.000 L 250.000 294.000 250.000 303.183 L 250.000 312.366 253.100 312.483 L 256.200 312.600 256.317 315.700 L 256.434 318.800 259.517 318.799 L 262.600 318.798 262.470 321.999 L 262.339 325.200 271.986 325.200 L 281.632 325.200 281.516 321.900 L 281.400 318.600 278.300 318.483 L 275.200 318.366 275.200 315.383 L 275.200 312.400 272.200 312.400 L 269.200 312.400 269.200 306.280 C 269.200 302.542,269.037 299.997,268.780 299.740 C 268.543 299.503,268.413 298.121,268.480 296.560 L 268.600 293.800 271.700 293.683 L 274.800 293.566 274.800 287.583 L 274.800 281.600 272.017 281.600 L 269.234 281.600 269.117 284.700 M193.867 287.867 C 193.720 288.013,193.600 289.363,193.600 290.867 L 193.600 293.600 196.800 293.600 L 200.000 293.600 200.000 290.600 L 200.000 287.600 197.067 287.600 C 195.453 287.600,194.013 287.720,193.867 287.867 M162.000 296.567 C 162.000 300.393,162.007 300.400,165.443 300.400 L 168.400 300.400 168.400 303.400 L 168.400 306.400 171.817 306.400 L 175.234 306.400 175.117 303.300 L 175.000 300.200 171.900 300.083 L 168.800 299.966 168.800 296.983 L 168.800 294.000 165.400 294.000 L 162.000 294.000 162.000 296.567 M206.400 297.200 L 206.400 300.400 209.200 300.400 L 212.000 300.400 212.000 303.400 L 212.000 306.400 215.417 306.400 L 218.834 306.400 218.717 303.300 L 218.600 300.200 215.500 300.083 L 212.400 299.966 212.400 296.983 L 212.400 294.000 209.400 294.000 L 206.400 294.000 206.400 297.200 " stroke="none" fill="#4d3b23" fill-rule="evenodd"></path><path id="path7" d="M293.867 93.867 C 293.720 94.013,293.600 95.453,293.600 97.067 L 293.600 100.000 290.600 100.000 L 287.600 100.000 287.600 109.400 L 287.600 118.800 290.583 118.800 L 293.566 118.800 293.683 121.900 L 293.800 125.000 297.200 125.027 L 300.600 125.055 297.317 124.912 L 294.033 124.768 293.917 121.684 L 293.800 118.600 290.900 118.482 L 288.000 118.365 288.000 115.382 L 288.000 112.400 290.800 112.400 L 293.600 112.400 293.600 109.400 L 293.600 106.400 290.800 106.400 L 288.000 106.400 288.000 103.418 L 288.000 100.435 290.900 100.318 L 293.800 100.200 293.917 97.116 L 294.033 94.032 297.317 93.897 L 300.600 93.763 297.367 93.681 C 295.588 93.637,294.013 93.720,293.867 93.867 M312.396 96.918 L 312.593 100.200 312.715 97.239 C 312.782 95.610,312.694 94.133,312.519 93.957 C 312.343 93.780,312.288 95.113,312.396 96.918 M331.279 109.083 L 331.200 112.366 328.100 112.503 L 325.000 112.639 328.113 112.720 C 331.763 112.814,331.693 112.896,331.498 108.763 L 331.359 105.800 331.279 109.083 M40.719 112.698 C 42.544 112.772,45.424 112.772,47.119 112.697 C 48.814 112.622,47.320 112.561,43.800 112.562 C 40.280 112.562,38.894 112.624,40.719 112.698 M362.584 118.700 L 362.600 125.000 365.600 125.025 L 368.600 125.050 365.710 124.909 L 362.820 124.767 362.694 118.583 L 362.569 112.399 362.584 118.700 M328.199 118.690 L 331.200 118.834 331.200 125.017 L 331.200 131.200 328.217 131.200 L 325.234 131.200 325.097 128.100 L 324.961 125.000 324.880 128.316 L 324.800 131.632 328.100 131.516 L 331.400 131.400 331.400 125.000 L 331.400 118.600 328.299 118.573 L 325.197 118.546 328.199 118.690 M62.562 125.000 C 62.562 128.520,62.624 129.906,62.698 128.081 C 62.772 126.256,62.772 123.376,62.697 121.681 C 62.622 119.986,62.561 121.480,62.562 125.000 M162.537 121.800 C 162.539 123.560,162.609 124.230,162.693 123.289 C 162.778 122.349,162.777 120.909,162.691 120.089 C 162.605 119.270,162.536 120.040,162.537 121.800 M237.337 121.800 C 237.339 123.560,237.409 124.230,237.493 123.289 C 237.578 122.349,237.577 120.909,237.491 120.089 C 237.405 119.270,237.336 120.040,237.337 121.800 M256.078 121.683 L 256.000 124.766 252.900 124.883 L 249.800 125.000 249.684 128.300 L 249.568 131.600 246.784 131.600 L 244.000 131.600 244.000 134.400 L 244.000 137.200 246.762 137.200 L 249.524 137.200 249.813 131.200 L 250.102 125.200 253.064 125.200 C 256.520 125.200,256.496 125.229,256.298 121.360 L 256.157 118.600 256.078 121.683 M262.563 125.200 C 262.563 128.830,262.623 130.315,262.698 128.500 C 262.772 126.685,262.772 123.715,262.698 121.900 C 262.623 120.085,262.563 121.570,262.563 125.200 M312.537 121.800 C 312.539 123.560,312.609 124.230,312.693 123.289 C 312.778 122.349,312.777 120.909,312.691 120.089 C 312.605 119.270,312.536 120.040,312.537 121.800 M70.300 125.093 C 71.235 125.177,72.765 125.177,73.700 125.093 C 74.635 125.009,73.870 124.940,72.000 124.940 C 70.130 124.940,69.365 125.009,70.300 125.093 M31.334 128.000 C 31.334 129.650,31.405 130.325,31.491 129.500 C 31.578 128.675,31.578 127.325,31.491 126.500 C 31.405 125.675,31.334 126.350,31.334 128.000 M150.134 128.000 C 150.134 129.650,150.205 130.325,150.291 129.500 C 150.378 128.675,150.378 127.325,150.291 126.500 C 150.205 125.675,150.134 126.350,150.134 128.000 M181.334 128.000 C 181.334 129.650,181.405 130.325,181.491 129.500 C 181.578 128.675,181.578 127.325,181.491 126.500 C 181.405 125.675,181.334 126.350,181.334 128.000 M187.334 128.000 C 187.334 129.650,187.405 130.325,187.491 129.500 C 187.578 128.675,187.578 127.325,187.491 126.500 C 187.405 125.675,187.334 126.350,187.334 128.000 M218.534 128.000 C 218.534 129.650,218.605 130.325,218.691 129.500 C 218.778 128.675,218.778 127.325,218.691 126.500 C 218.605 125.675,218.534 126.350,218.534 128.000 M237.682 128.100 L 237.800 131.000 240.800 131.116 L 243.800 131.232 243.668 128.216 L 243.537 125.200 240.551 125.200 L 237.565 125.200 237.682 128.100 M68.757 131.319 C 68.933 131.494,70.410 131.582,72.039 131.515 L 75.000 131.393 71.718 131.196 C 69.913 131.088,68.580 131.143,68.757 131.319 M143.767 131.742 C 143.652 132.040,143.623 133.435,143.702 134.842 L 143.846 137.400 143.923 134.518 L 144.000 131.635 146.900 131.497 L 149.800 131.359 146.887 131.279 C 144.748 131.221,143.920 131.344,143.767 131.742 M162.800 134.400 L 162.800 137.200 165.520 137.200 C 168.923 137.200,169.200 137.475,169.200 140.848 L 169.200 143.537 172.100 143.668 L 175.000 143.800 174.870 140.716 L 174.740 137.633 171.670 137.516 L 168.600 137.400 168.482 134.500 L 168.365 131.600 165.582 131.600 L 162.800 131.600 162.800 134.400 M231.600 134.368 L 231.600 137.137 234.500 137.268 L 237.400 137.400 237.268 134.500 L 237.137 131.600 234.368 131.600 L 231.600 131.600 231.600 134.368 M28.100 137.497 C 29.805 137.572,32.595 137.572,34.300 137.497 C 36.005 137.422,34.610 137.361,31.200 137.361 C 27.790 137.361,26.395 137.422,28.100 137.497 M365.700 137.497 C 367.405 137.572,370.195 137.572,371.900 137.497 C 373.605 137.422,372.210 137.361,368.800 137.361 C 365.390 137.361,363.995 137.422,365.700 137.497 M131.376 144.118 C 131.267 144.404,131.233 147.239,131.300 150.418 L 131.424 156.200 131.512 150.118 L 131.600 144.035 134.500 143.897 L 137.400 143.759 134.487 143.679 C 132.411 143.623,131.518 143.749,131.376 144.118 M245.111 143.893 C 246.051 143.978,247.491 143.977,248.311 143.891 C 249.130 143.805,248.360 143.736,246.600 143.737 C 244.840 143.739,244.170 143.809,245.111 143.893 M265.483 143.887 L 268.366 144.034 268.509 146.717 L 268.652 149.400 268.626 146.600 L 268.600 143.800 265.600 143.770 L 262.600 143.739 265.483 143.887 M181.600 146.800 L 181.600 149.600 184.400 149.600 L 187.200 149.600 187.200 146.800 L 187.200 144.000 184.400 144.000 L 181.600 144.000 181.600 146.800 M206.357 150.119 C 206.533 150.294,208.010 150.382,209.639 150.315 L 212.600 150.193 209.318 149.996 C 207.513 149.888,206.180 149.943,206.357 150.119 M112.400 150.294 L 118.400 150.421 118.400 153.200 L 118.400 155.979 112.300 156.090 L 106.200 156.200 106.175 159.200 L 106.150 162.200 106.291 159.310 L 106.433 156.421 112.517 156.310 L 118.600 156.200 118.600 153.200 L 118.600 150.200 112.500 150.184 L 106.399 150.168 112.400 150.294 M189.300 150.291 C 190.125 150.378,191.475 150.378,192.300 150.291 C 193.125 150.205,192.450 150.134,190.800 150.134 C 189.150 150.134,188.475 150.205,189.300 150.291 M251.700 150.291 C 252.525 150.378,253.875 150.378,254.700 150.291 C 255.525 150.205,254.850 150.134,253.200 150.134 C 251.550 150.134,250.875 150.205,251.700 150.291 M175.200 153.200 L 175.200 156.000 178.000 156.000 L 180.800 156.000 180.800 153.200 L 180.800 150.400 178.000 150.400 L 175.200 150.400 175.200 153.200 M224.877 153.082 L 224.800 155.965 221.900 156.103 L 219.000 156.241 221.913 156.321 C 225.304 156.413,225.303 156.415,225.098 152.758 L 224.954 150.200 224.877 153.082 M153.119 156.298 C 154.944 156.372,157.824 156.372,159.519 156.297 C 161.214 156.222,159.720 156.161,156.200 156.162 C 152.680 156.162,151.294 156.224,153.119 156.298 M245.111 156.293 C 246.051 156.378,247.491 156.377,248.311 156.291 C 249.130 156.205,248.360 156.136,246.600 156.137 C 244.840 156.139,244.170 156.209,245.111 156.293 M144.000 159.200 L 144.000 162.000 146.776 162.000 C 148.303 162.000,149.664 162.180,149.800 162.400 C 149.960 162.658,155.603 162.767,165.724 162.707 L 181.400 162.614 165.600 162.407 L 149.800 162.200 149.682 159.300 L 149.565 156.400 146.782 156.400 L 144.000 156.400 144.000 159.200 M181.600 159.200 L 181.600 162.000 184.400 162.000 L 187.200 162.000 187.200 159.200 L 187.200 156.400 184.400 156.400 L 181.600 156.400 181.600 159.200 M274.940 159.600 C 274.940 161.470,275.009 162.235,275.093 161.300 C 275.177 160.365,275.177 158.835,275.093 157.900 C 275.009 156.965,274.940 157.730,274.940 159.600 M228.319 162.698 C 230.144 162.772,233.024 162.772,234.719 162.697 C 236.414 162.622,234.920 162.561,231.400 162.562 C 227.880 162.562,226.494 162.624,228.319 162.698 M245.111 162.693 C 246.051 162.778,247.491 162.777,248.311 162.691 C 249.130 162.605,248.360 162.536,246.600 162.537 C 244.840 162.539,244.170 162.609,245.111 162.693 M146.900 169.097 L 144.000 169.235 144.000 172.018 L 144.000 174.800 146.768 174.800 L 149.537 174.800 149.668 171.799 C 149.741 170.149,149.800 168.834,149.800 168.879 C 149.800 168.923,148.495 169.021,146.900 169.097 M125.132 172.100 L 125.000 175.000 127.900 174.868 L 130.800 174.737 130.800 171.968 L 130.800 169.200 128.032 169.200 L 125.263 169.200 125.132 172.100 M175.132 172.100 L 175.000 175.000 177.900 174.868 L 180.800 174.737 180.800 171.968 L 180.800 169.200 178.032 169.200 L 175.263 169.200 175.132 172.100 M250.400 172.000 L 250.400 174.800 253.200 174.800 L 256.000 174.800 256.000 172.000 L 256.000 169.200 253.200 169.200 L 250.400 169.200 250.400 172.000 M269.200 171.968 L 269.200 174.737 272.100 174.868 L 275.000 175.000 274.868 172.100 L 274.737 169.200 271.968 169.200 L 269.200 169.200 269.200 171.968 M131.337 178.200 C 131.339 179.960,131.409 180.630,131.493 179.689 C 131.578 178.749,131.577 177.309,131.491 176.489 C 131.405 175.670,131.336 176.440,131.337 178.200 M256.400 178.200 L 256.400 181.200 259.300 181.201 L 262.200 181.202 262.068 178.201 L 261.937 175.200 259.168 175.200 L 256.400 175.200 256.400 178.200 M268.400 181.133 C 268.400 181.444,267.467 181.600,265.600 181.600 L 262.800 181.600 262.800 184.400 L 262.800 187.200 265.568 187.200 L 268.337 187.200 268.475 184.100 C 268.551 182.395,268.566 180.925,268.507 180.833 C 268.448 180.742,268.400 180.877,268.400 181.133 M118.976 184.600 L 119.000 187.800 121.800 187.826 L 124.600 187.852 121.916 187.709 L 119.232 187.566 119.092 184.483 L 118.952 181.400 118.976 184.600 M131.600 184.368 L 131.600 187.137 134.500 187.268 L 137.400 187.400 137.268 184.500 L 137.137 181.600 134.368 181.600 L 131.600 181.600 131.600 184.368 M250.400 184.320 C 250.400 187.729,250.129 188.000,246.720 188.000 L 244.000 188.000 244.000 190.800 L 244.000 193.600 246.800 193.600 L 249.600 193.600 249.600 190.880 C 249.600 187.471,249.871 187.200,253.280 187.200 L 256.000 187.200 256.000 184.400 L 256.000 181.600 253.200 181.600 L 250.400 181.600 250.400 184.320 M163.874 187.499 C 168.094 187.564,175.114 187.564,179.474 187.500 C 183.833 187.435,180.380 187.382,171.800 187.382 C 163.220 187.382,159.653 187.435,163.874 187.499 M187.599 190.700 L 187.600 193.600 190.600 193.600 L 193.600 193.600 193.600 190.832 L 193.600 188.063 190.599 187.932 L 187.598 187.800 187.599 190.700 M278.100 187.897 L 275.200 188.035 275.200 190.818 L 275.200 193.600 278.200 193.600 L 281.200 193.600 281.200 190.600 C 281.200 188.950,281.155 187.636,281.100 187.679 C 281.045 187.723,279.695 187.821,278.100 187.897 M150.400 190.800 L 150.400 193.600 153.200 193.600 L 156.000 193.600 156.000 190.800 L 156.000 188.000 153.200 188.000 L 150.400 188.000 150.400 190.800 M206.332 196.700 L 206.463 199.600 209.400 199.600 L 212.337 199.600 212.468 196.700 L 212.600 193.800 209.400 193.800 L 206.200 193.800 206.332 196.700 M222.100 193.897 L 219.200 194.035 219.200 196.818 L 219.200 199.600 221.968 199.600 L 224.737 199.600 224.868 196.599 C 224.941 194.949,225.000 193.634,225.000 193.679 C 225.000 193.723,223.695 193.821,222.100 193.897 " stroke="none" fill="#948c84" fill-rule="evenodd"></path><path id="path8" d="M303.318 93.898 C 305.033 93.973,307.733 93.972,309.318 93.897 C 310.903 93.821,309.500 93.759,306.200 93.760 C 302.900 93.761,301.603 93.822,303.318 93.898 M293.917 97.100 L 293.800 100.200 290.900 100.318 L 288.000 100.435 288.000 103.418 L 288.000 106.400 290.783 106.400 L 293.566 106.400 293.683 103.300 L 293.800 100.200 296.800 100.000 L 299.800 99.800 299.918 96.900 L 300.035 94.000 297.034 94.000 L 294.034 94.000 293.917 97.100 M262.540 115.600 C 262.540 117.470,262.609 118.235,262.693 117.300 C 262.777 116.365,262.777 114.835,262.693 113.900 C 262.609 112.965,262.540 113.730,262.540 115.600 M288.000 115.382 L 288.000 118.365 290.900 118.482 L 293.800 118.600 293.917 121.700 L 294.034 124.800 297.034 124.800 L 300.035 124.800 299.918 121.900 L 299.800 119.000 296.800 118.800 L 293.800 118.600 293.683 115.500 L 293.566 112.400 290.783 112.400 L 288.000 112.400 288.000 115.382 M256.318 122.100 C 256.253 123.695,256.259 126.395,256.330 128.100 L 256.461 131.200 259.430 131.200 L 262.400 131.200 262.400 125.200 L 262.400 119.200 259.418 119.200 L 256.435 119.200 256.318 122.100 M303.300 125.097 C 305.005 125.172,307.795 125.172,309.500 125.097 C 311.205 125.022,309.810 124.961,306.400 124.961 C 302.990 124.961,301.595 125.022,303.300 125.097 M243.737 140.600 C 243.739 142.360,243.809 143.030,243.893 142.089 C 243.978 141.149,243.977 139.709,243.891 138.889 C 243.805 138.070,243.736 138.840,243.737 140.600 M43.767 144.142 C 43.652 144.440,43.623 145.835,43.702 147.242 L 43.846 149.800 43.923 146.907 L 44.000 144.015 53.300 143.900 L 62.600 143.785 53.287 143.692 C 45.756 143.618,43.935 143.704,43.767 144.142 M342.100 143.899 C 344.685 143.968,348.915 143.968,351.500 143.899 C 354.085 143.829,351.970 143.772,346.800 143.772 C 341.630 143.772,339.515 143.829,342.100 143.899 M362.534 146.800 C 362.534 148.450,362.605 149.125,362.691 148.300 C 362.778 147.475,362.778 146.125,362.691 145.300 C 362.605 144.475,362.534 145.150,362.534 146.800 M93.773 159.499 L 93.800 162.600 96.901 162.627 L 100.003 162.654 97.018 162.510 L 94.033 162.367 93.890 159.382 L 93.746 156.397 93.773 159.499 " stroke="none" fill="#847c7c" fill-rule="evenodd"></path></g></svg>