<svg xmlns="http://www.w3.org/2000/svg" viewBox="0 -0.5 64 64" shape-rendering="crispEdges">
<metadata>Made with Pixels to Svg https://codepen.io/shshaw/pen/XbxvNj</metadata>
<path stroke="#dbcdbd" d="M4 21h1M59 21h1M10 22h1M53 22h1" />
<path stroke="#f2e2d1" d="M5 21h2M57 21h2M6 22h2M9 22h1M54 22h1M56 22h2" />
<path stroke="#fdecd7" d="M7 21h1M56 21h1M8 22h1M55 22h1M6 23h1M57 23h1" />
<path stroke="#111111" d="M3 22h3M58 22h3M3 23h1M7 23h4M13 23h7M44 23h7M53 23h4M60 23h1M3 24h1M6 24h1M10 24h3M15 24h2M51 24h3M57 24h1M60 24h1M3 25h1M9 25h1M54 25h1M60 25h1M2 26h1M8 26h1M55 26h1M61 26h1M2 27h1M7 27h1M56 27h1M61 27h1M1 28h1M6 28h1M57 28h1M62 28h1M1 29h1M62 29h1M1 30h1M62 30h1M0 31h1M6 31h1M57 31h1M63 31h1M0 32h1M6 32h1M57 32h1M63 32h1M0 33h1M6 33h1M57 33h1M63 33h1M0 34h1M6 34h1M57 34h1M63 34h1M0 35h1M6 35h1M57 35h1M63 35h1M0 36h1M63 36h1M1 37h1M62 37h1M1 38h1M62 38h1M2 39h1M61 39h1M3 40h1M60 40h1M4 41h1M59 41h1M5 42h3M56 42h3M8 43h3M53 43h3M11 44h3M50 44h3M14 45h4M46 45h4M18 46h7M39 46h7" />
<path stroke="#1b1b1b" d="M4 23h1M4 24h1M13 24h1M19 24h1M50 24h1M8 25h1M10 25h1M53 25h1M55 25h1M3 26h1M7 26h1M18 26h1M56 26h1M6 27h1M57 27h1M2 28h1M17 30h1M1 31h1M17 31h1M17 32h1M17 33h1M17 34h1M17 35h1M1 36h1M6 36h1M17 36h1M57 36h1M4 37h1M58 37h1M2 38h3M58 38h2M3 39h3M18 39h1M58 39h3M4 40h2M58 40h2M5 41h1M19 41h1M58 41h1M8 42h1M11 43h1M20 43h1M43 43h1M14 44h1M19 44h3M42 44h3M49 44h1M18 45h6M40 45h6" />
<path stroke="#2a2a2a" d="M5 23h1M59 23h1M5 24h1M7 24h1M45 24h4M56 24h1M59 24h1M5 25h2M12 25h3M45 25h7M57 25h3M5 26h1M9 26h7M46 26h9M58 26h3M4 27h2M8 27h8M46 27h10M58 27h3M4 28h2M8 28h8M46 28h10M58 28h3M4 29h2M7 29h8M46 29h11M58 29h4M3 30h12M46 30h12M59 30h3M3 31h3M7 31h8M46 31h11M59 31h3M3 32h3M7 32h8M46 32h11M59 32h4M3 33h2M7 33h8M46 33h11M59 33h4M3 34h2M7 34h8M46 34h11M59 34h3M4 35h1M7 35h8M46 35h11M59 35h3M7 36h8M46 36h11M60 36h2M7 37h8M46 37h11M60 37h1M6 38h10M46 38h11M6 39h10M46 39h10M7 40h9M46 40h10M9 41h6M47 41h8M50 42h4" />
<path stroke="#232323" d="M58 23h1M8 24h2M14 24h1M44 24h1M49 24h1M54 24h2M58 24h1M4 25h1M7 25h1M11 25h1M17 25h2M52 25h1M56 25h1M4 26h1M6 26h1M16 26h2M45 26h1M57 26h1M3 27h1M16 27h2M3 28h1M7 28h1M16 28h2M56 28h1M61 28h1M2 29h2M6 29h1M15 29h3M57 29h1M2 30h1M15 30h2M58 30h1M2 31h1M15 31h2M58 31h1M62 31h1M1 32h2M15 32h2M58 32h1M1 33h2M5 33h1M15 33h2M58 33h1M1 34h2M5 34h1M15 34h2M58 34h1M62 34h1M1 35h3M5 35h1M15 35h2M58 35h1M62 35h1M2 36h4M15 36h2M58 36h2M62 36h1M2 37h2M5 37h2M15 37h3M57 37h1M59 37h1M61 37h1M5 38h1M16 38h2M57 38h1M60 38h2M16 39h2M45 39h1M56 39h2M6 40h1M16 40h3M45 40h1M56 40h2M6 41h3M15 41h4M44 41h3M55 41h3M9 42h11M44 42h6M54 42h2M12 43h8M44 43h9M15 44h4M45 44h4" />
<path stroke="#d1d1d1" d="M17 24h2M15 25h2" />
</svg>