<svg xmlns="http://www.w3.org/2000/svg" viewBox="0 -0.5 64 64" shape-rendering="crispEdges">
<metadata>Made with Pixels to Svg https://codepen.io/shshaw/pen/XbxvNj</metadata>
<path stroke="#2a2a2a" d="M45 44h1M47 44h1M44 45h1M46 45h1M48 45h1M45 46h1M47 46h1M45 47h1M47 47h1M57 53h1M56 55h1" />
<path stroke="#161616" d="M46 44h1M48 44h1M45 45h1M47 45h1M49 45h3M44 46h1M46 46h1M48 46h1M44 47h1M46 47h1M48 47h1M51 47h2M45 48h5M51 48h2M47 49h4M55 52h3M54 53h3M54 54h3M54 55h2" />
<path stroke="#42230b" d="M43 45h1M42 46h2M40 47h3M40 48h2M40 49h2M41 50h2M42 51h1" />
<path stroke="rgba(34,34,34,0.058823529411764705)" d="M40 46h1" />
<path stroke="#463f3a" d="M49 46h1M49 47h2M50 48h1M45 49h1M47 50h2M49 51h3M50 52h5M51 53h3M53 54h1M57 54h1M57 55h1M55 56h2M55 59h1" />
<path stroke="#35302c" d="M50 46h3M43 47h1M53 47h1M43 48h2M53 48h1M43 49h2M46 49h1M51 49h2M44 50h3M49 50h3M45 51h4M52 51h6M47 52h3M58 52h1M49 53h2M58 53h1M51 54h2M58 54h1M52 55h2M58 55h1M53 56h2M57 56h2M54 57h4" />
<path stroke="#582f0e" d="M42 48h1M42 49h1M43 50h1M43 51h2" />
<path stroke="#1f1f1f" d="M53 49h1M52 50h2M46 52h1M48 53h1M50 54h1M51 55h1M52 56h1" />
<path stroke="rgba(64,64,64,0.047058823529411764)" d="M59 52h1" />
<path stroke="#625c58" d="M53 57h1M54 58h3" />
</svg>