<svg xmlns="http://www.w3.org/2000/svg" viewBox="0 -0.5 64 64" shape-rendering="crispEdges">
<metadata>Made with Pixels to Svg https://codepen.io/shshaw/pen/XbxvNj</metadata>
<path stroke="#e8d6c8" d="M46 14h1M50 14h1M45 15h1M51 15h1M52 16h1M52 17h1M50 20h1M50 21h2" />
<path stroke="#fae6d7" d="M47 14h3M50 15h1M51 16h1M51 17h1M51 18h1M45 19h2M50 19h3M46 20h4M47 21h3" />
<path stroke="#eee5de" d="M46 15h1M45 16h1M45 17h1M45 18h1" />
<path stroke="#847e7a" d="M47 15h1M46 16h1" />
<path stroke="#3b2c22" d="M48 15h2M49 17h1M48 18h1" />
<path stroke="rgba(224,226,231,0.45098039215686275)" d="M44 16h1M43 17h2M42 18h3M40 19h5M41 20h3" />
<path stroke="#543f31" d="M47 16h2M47 17h1" />
<path stroke="#4a382b" d="M49 16h1M48 17h1M47 18h1" />
<path stroke="#2d221a" d="M50 16h1M50 17h1M49 18h2M48 19h2" />
<path stroke="#928883" d="M46 17h1" />
<path stroke="#7d7976" d="M46 18h1M47 19h1" />
</svg>