<svg xmlns="http://www.w3.org/2000/svg" viewBox="0 -0.5 64 64" shape-rendering="crispEdges">
<metadata>Made with Pixels to Svg https://codepen.io/shshaw/pen/XbxvNj</metadata>
<path stroke="#000814" d="M41 18h1M41 19h1M41 20h1M40 21h1M39 22h2M40 23h1" />
<path stroke="rgba(37,9,0,0.21568627450980393)" d="M40 20h1M39 21h1M35 22h1M34 23h1" />
<path stroke="#ffea00" d="M36 22h1M40 25h1" />
<path stroke="#f8ef8c" d="M37 22h1M40 24h1" />
<path stroke="#fcf8cf" d="M38 22h1M39 23h1" />
<path stroke="#ffdd00" d="M35 23h1M40 26h1M39 27h1M38 28h1" />
<path stroke="rgba(250,240,140,0.2)" d="M37 23h2M35 24h1M37 24h2M36 25h2M39 25h1M35 26h2M38 26h2M36 27h3" />
<path stroke="#ffc300" d="M34 24h1M34 25h1M34 26h1M35 27h1M36 28h2" />
<path stroke="rgba(247,238,141,0.3607843137254902)" d="M36 24h1M39 24h1M35 25h1M38 25h1M37 26h1" />
</svg>