<svg xmlns="http://www.w3.org/2000/svg" viewBox="0 -0.5 576 576" shape-rendering="crispEdges">
<metadata>Made with Pixels to Svg https://codepen.io/shshaw/pen/XbxvNj</metadata>
<path stroke="#e8d6c8" d="M414 126h9M450 126h9M414 127h9M450 127h9M414 128h9M450 128h9M414 129h9M450 129h9M414 130h9M450 130h9M414 131h9M450 131h9M414 132h9M450 132h9M414 133h9M450 133h9M414 134h9M450 134h9M405 135h9M459 135h9M405 136h9M459 136h9M405 137h9M459 137h9M405 138h9M459 138h9M405 139h9M459 139h9M405 140h9M459 140h9M405 141h9M459 141h9M405 142h9M459 142h9M405 143h9M459 143h9M468 144h9M468 145h9M468 146h9M468 147h9M468 148h9M468 149h9M468 150h9M468 151h9M468 152h9M468 153h9M468 154h9M468 155h9M468 156h9M468 157h9M468 158h9M468 159h9M468 160h9M468 161h9M450 180h9M450 181h9M450 182h9M450 183h9M450 184h9M450 185h9M450 186h9M450 187h9M450 188h9M450 189h18M450 190h18M450 191h18M450 192h18M450 193h18M450 194h18M450 195h18M450 196h18M450 197h18" />
<path stroke="#fae6d7" d="M423 126h27M423 127h27M423 128h27M423 129h27M423 130h27M423 131h27M423 132h27M423 133h27M423 134h27M450 135h9M450 136h9M450 137h9M450 138h9M450 139h9M450 140h9M450 141h9M450 142h9M450 143h9M459 144h9M459 145h9M459 146h9M459 147h9M459 148h9M459 149h9M459 150h9M459 151h9M459 152h9M459 153h9M459 154h9M459 155h9M459 156h9M459 157h9M459 158h9M459 159h9M459 160h9M459 161h9M459 162h9M459 163h9M459 164h9M459 165h9M459 166h9M459 167h9M459 168h9M459 169h9M459 170h9M405 171h18M450 171h27M405 172h18M450 172h27M405 173h18M450 173h27M405 174h18M450 174h27M405 175h18M450 175h27M405 176h18M450 176h27M405 177h18M450 177h27M405 178h18M450 178h27M405 179h18M450 179h27M414 180h36M414 181h36M414 182h36M414 183h36M414 184h36M414 185h36M414 186h36M414 187h36M414 188h36M423 189h27M423 190h27M423 191h27M423 192h27M423 193h27M423 194h27M423 195h27M423 196h27M423 197h27" />
<path stroke="#eee5de" d="M414 135h9M414 136h9M414 137h9M414 138h9M414 139h9M414 140h9M414 141h9M414 142h9M414 143h9M405 144h9M405 145h9M405 146h9M405 147h9M405 148h9M405 149h9M405 150h9M405 151h9M405 152h9M405 153h9M405 154h9M405 155h9M405 156h9M405 157h9M405 158h9M405 159h9M405 160h9M405 161h9M405 162h9M405 163h9M405 164h9M405 165h9M405 166h9M405 167h9M405 168h9M405 169h9M405 170h9" />
<path stroke="#847e7a" d="M423 135h9M423 136h9M423 137h9M423 138h9M423 139h9M423 140h9M423 141h9M423 142h9M423 143h9M414 144h9M414 145h9M414 146h9M414 147h9M414 148h9M414 149h9M414 150h9M414 151h9M414 152h9" />
<path stroke="#3b2c22" d="M432 135h18M432 136h18M432 137h18M432 138h18M432 139h18M432 140h18M432 141h18M432 142h18M432 143h18M441 153h9M441 154h9M441 155h9M441 156h9M441 157h9M441 158h9M441 159h9M441 160h9M441 161h9M432 162h9M432 163h9M432 164h9M432 165h9M432 166h9M432 167h9M432 168h9M432 169h9M432 170h9" />
<path stroke="rgba(224,226,231,0.45098039215686275)" d="M396 144h9M396 145h9M396 146h9M396 147h9M396 148h9M396 149h9M396 150h9M396 151h9M396 152h9M387 153h18M387 154h18M387 155h18M387 156h18M387 157h18M387 158h18M387 159h18M387 160h18M387 161h18M378 162h27M378 163h27M378 164h27M378 165h27M378 166h27M378 167h27M378 168h27M378 169h27M378 170h27M360 171h9M378 171h27M360 172h9M378 172h27M360 173h9M378 173h27M360 174h9M378 174h27M360 175h9M378 175h27M360 176h9M378 176h27M360 177h9M378 177h27M360 178h9M378 178h27M360 179h9M378 179h27M378 180h18M378 181h18M378 182h18M378 183h18M378 184h18M378 185h18M378 186h18M378 187h18M378 188h18" />
<path stroke="#543f31" d="M423 144h18M423 145h18M423 146h18M423 147h18M423 148h18M423 149h18M423 150h18M423 151h18M423 152h18M423 153h9M423 154h9M423 155h9M423 156h9M423 157h9M423 158h9M423 159h9M423 160h9M423 161h9" />
<path stroke="#4a382b" d="M441 144h9M441 145h9M441 146h9M441 147h9M441 148h9M441 149h9M441 150h9M441 151h9M441 152h9M432 153h9M432 154h9M432 155h9M432 156h9M432 157h9M432 158h9M432 159h9M432 160h9M432 161h9M423 162h9M423 163h9M423 164h9M423 165h9M423 166h9M423 167h9M423 168h9M423 169h9M423 170h9" />
<path stroke="#2d221a" d="M450 144h9M450 145h9M450 146h9M450 147h9M450 148h9M450 149h9M450 150h9M450 151h9M450 152h9M450 153h9M450 154h9M450 155h9M450 156h9M450 157h9M450 158h9M450 159h9M450 160h9M450 161h9M441 162h18M441 163h18M441 164h18M441 165h18M441 166h18M441 167h18M441 168h18M441 169h18M441 170h18M432 171h18M432 172h18M432 173h18M432 174h18M432 175h18M432 176h18M432 177h18M432 178h18M432 179h18" />
<path stroke="#9b7547" d="M54 153h45M261 153h54M477 153h45M54 154h45M261 154h54M477 154h45M54 155h45M261 155h54M477 155h45M54 156h45M261 156h54M477 156h45M54 157h45M261 157h54M477 157h45M54 158h45M261 158h54M477 158h45M54 159h45M261 159h54M477 159h45M54 160h45M261 160h54M477 160h45M54 161h45M261 161h54M477 161h45M45 162h9M99 162h9M234 162h27M315 162h27M468 162h9M522 162h9M45 163h9M99 163h9M234 163h27M315 163h27M468 163h9M522 163h9M45 164h9M99 164h9M234 164h27M315 164h27M468 164h9M522 164h9M45 165h9M99 165h9M234 165h27M315 165h27M468 165h9M522 165h9M45 166h9M99 166h9M234 166h27M315 166h27M468 166h9M522 166h9M45 167h9M99 167h9M234 167h27M315 167h27M468 167h9M522 167h9M45 168h9M99 168h9M234 168h27M315 168h27M468 168h9M522 168h9M45 169h9M99 169h9M234 169h27M315 169h27M468 169h9M522 169h9M45 170h9M99 170h9M234 170h27M315 170h27M468 170h9M522 170h9M45 171h9M90 171h18M216 171h18M342 171h18M477 171h9M522 171h9M45 172h9M90 172h18M216 172h18M342 172h18M477 172h9M522 172h9M45 173h9M90 173h18M216 173h18M342 173h18M477 173h9M522 173h9M45 174h9M90 174h18M216 174h18M342 174h18M477 174h9M522 174h9M45 175h9M90 175h18M216 175h18M342 175h18M477 175h9M522 175h9M45 176h9M90 176h18M216 176h18M342 176h18M477 176h9M522 176h9M45 177h9M90 177h18M216 177h18M342 177h18M477 177h9M522 177h9M45 178h9M90 178h18M216 178h18M342 178h18M477 178h9M522 178h9M45 179h9M90 179h18M216 179h18M342 179h18M477 179h9M522 179h9M36 180h9M90 180h9M108 180h9M207 180h9M459 180h9M477 180h9M531 180h9M36 181h9M90 181h9M108 181h9M207 181h9M459 181h9M477 181h9M531 181h9M36 182h9M90 182h9M108 182h9M207 182h9M459 182h9M477 182h9M531 182h9M36 183h9M90 183h9M108 183h9M207 183h9M459 183h9M477 183h9M531 183h9M36 184h9M90 184h9M108 184h9M207 184h9M459 184h9M477 184h9M531 184h9M36 185h9M90 185h9M108 185h9M207 185h9M459 185h9M477 185h9M531 185h9M36 186h9M90 186h9M108 186h9M207 186h9M459 186h9M477 186h9M531 186h9M36 187h9M90 187h9M108 187h9M207 187h9M459 187h9M477 187h9M531 187h9M36 188h9M90 188h9M108 188h9M207 188h9M459 188h9M477 188h9M531 188h9M99 189h9M198 189h9M369 189h9M468 189h9M99 190h9M198 190h9M369 190h9M468 190h9M99 191h9M198 191h9M369 191h9M468 191h9M99 192h9M198 192h9M369 192h9M468 192h9M99 193h9M198 193h9M369 193h9M468 193h9M99 194h9M198 194h9M369 194h9M468 194h9M99 195h9M198 195h9M369 195h9M468 195h9M99 196h9M198 196h9M369 196h9M468 196h9M99 197h9M198 197h9M369 197h9M468 197h9M189 198h9M378 198h9M189 199h9M378 199h9M189 200h9M378 200h9M189 201h9M378 201h9M189 202h9M378 202h9M189 203h9M378 203h9M189 204h9M378 204h9M189 205h9M378 205h9M189 206h9M378 206h9M180 207h9M387 207h9M180 208h9M387 208h9M180 209h9M387 209h9M180 210h9M387 210h9M180 211h9M387 211h9M180 212h9M387 212h9M180 213h9M387 213h9M180 214h9M387 214h9M180 215h9M387 215h9M180 216h9M387 216h9M180 217h9M387 217h9M180 218h9M387 218h9M180 219h9M387 219h9M180 220h9M387 220h9M180 221h9M387 221h9M180 222h9M387 222h9M180 223h9M387 223h9M180 224h9M387 224h9M171 225h9M396 225h9M171 226h9M396 226h9M171 227h9M396 227h9M171 228h9M396 228h9M171 229h9M396 229h9M171 230h9M396 230h9M171 231h9M396 231h9M171 232h9M396 232h9M171 233h9M396 233h9M171 234h9M396 234h9M171 235h9M396 235h9M171 236h9M396 236h9M171 237h9M396 237h9M171 238h9M396 238h9M171 239h9M396 239h9M171 240h9M396 240h9M171 241h9M396 241h9M171 242h9M396 242h9M162 243h9M405 243h9M162 244h9M405 244h9M162 245h9M405 245h9M162 246h9M405 246h9M162 247h9M405 247h9M162 248h9M405 248h9M162 249h9M405 249h9M162 250h9M405 250h9M162 251h9M405 251h9M162 252h9M405 252h9M162 253h9M405 253h9M162 254h9M405 254h9M162 255h9M405 255h9M162 256h9M405 256h9M162 257h9M405 257h9M162 258h9M405 258h9M162 259h9M405 259h9M162 260h9M405 260h9" />
<path stroke="#928883" d="M414 153h9M414 154h9M414 155h9M414 156h9M414 157h9M414 158h9M414 159h9M414 160h9M414 161h9" />
<path stroke="#dbb07f" d="M54 162h18M54 163h18M54 164h18M54 165h18M54 166h18M54 167h18M54 168h18M54 169h18M54 170h18M54 171h9M234 171h18M333 171h9M54 172h9M234 172h18M333 172h9M54 173h9M234 173h18M333 173h9M54 174h9M234 174h18M333 174h9M54 175h9M234 175h18M333 175h9M54 176h9M234 176h18M333 176h9M54 177h9M234 177h18M333 177h9M54 178h9M234 178h18M333 178h9M54 179h9M234 179h18M333 179h9M45 180h18M216 180h9M351 180h9M45 181h18M216 181h9M351 181h9M45 182h18M216 182h9M351 182h9M45 183h18M216 183h9M351 183h9M45 184h18M216 184h9M351 184h9M45 185h18M216 185h9M351 185h9M45 186h18M216 186h9M351 186h9M45 187h18M216 187h9M351 187h9M45 188h18M216 188h9M351 188h9M207 189h9M207 190h9M207 191h9M207 192h9M207 193h9M207 194h9M207 195h9M207 196h9M207 197h9M198 198h9M369 198h9M198 199h9M369 199h9M198 200h9M369 200h9M198 201h9M369 201h9M198 202h9M369 202h9M198 203h9M369 203h9M198 204h9M369 204h9M198 205h9M369 205h9M198 206h9M369 206h9M189 207h9M378 207h9M189 208h9M378 208h9M189 209h9M378 209h9M189 210h9M378 210h9M189 211h9M378 211h9M189 212h9M378 212h9M189 213h9M378 213h9M189 214h9M378 214h9M189 215h9M378 215h9M189 216h9M189 217h9M189 218h9M189 219h9M189 220h9M189 221h9M189 222h9M189 223h9M189 224h9M180 225h9M387 225h9M180 226h9M387 226h9M180 227h9M387 227h9M180 228h9M387 228h9M180 229h9M387 229h9M180 230h9M387 230h9M180 231h9M387 231h9M180 232h9M387 232h9M180 233h9M387 233h9M180 234h9M180 235h9M180 236h9M180 237h9M180 238h9M180 239h9M180 240h9M180 241h9M180 242h9M171 243h9M396 243h9M171 244h9M396 244h9M171 245h9M396 245h9M171 246h9M396 246h9M171 247h9M396 247h9M171 248h9M396 248h9M171 249h9M396 249h9M171 250h9M396 250h9M171 251h9M396 251h9M171 252h9M171 253h9M171 254h9M171 255h9M171 256h9M171 257h9M171 258h9M171 259h9M171 260h9M171 261h9M171 262h9M171 263h9M171 264h9M171 265h9M171 266h9M171 267h9M171 268h9M171 269h9" />
<path stroke="#f9c990" d="M72 162h27M261 162h54M477 162h18M72 163h27M261 163h54M477 163h18M72 164h27M261 164h54M477 164h18M72 165h27M261 165h54M477 165h18M72 166h27M261 166h54M477 166h18M72 167h27M261 167h54M477 167h18M72 168h27M261 168h54M477 168h18M72 169h27M261 169h54M477 169h18M72 170h27M261 170h54M477 170h18M63 171h27M252 171h81M486 171h18M63 172h27M252 172h81M486 172h18M63 173h27M252 173h81M486 173h18M63 174h27M252 174h81M486 174h18M63 175h27M252 175h81M486 175h18M63 176h27M252 176h81M486 176h18M63 177h27M252 177h81M486 177h18M63 178h27M252 178h81M486 178h18M63 179h27M252 179h81M486 179h18M63 180h27M261 180h9M306 180h9M486 180h27M522 180h9M63 181h27M261 181h9M306 181h9M486 181h27M522 181h9M63 182h27M261 182h9M306 182h9M486 182h27M522 182h9M63 183h27M261 183h9M306 183h9M486 183h27M522 183h9M63 184h27M261 184h9M306 184h9M486 184h27M522 184h9M63 185h27M261 185h9M306 185h9M486 185h27M522 185h9M63 186h27M261 186h9M306 186h9M486 186h27M522 186h9M63 187h27M261 187h9M306 187h9M486 187h27M522 187h9M63 188h27M261 188h9M306 188h9M486 188h27M522 188h9M72 189h18M216 189h9M486 189h18M72 190h18M216 190h9M486 190h18M72 191h18M216 191h9M486 191h18M72 192h18M216 192h9M486 192h18M72 193h18M216 193h9M486 193h18M72 194h18M216 194h9M486 194h18M72 195h18M216 195h9M486 195h18M72 196h18M216 196h9M486 196h18M72 197h18M216 197h9M486 197h18M207 198h36M207 199h36M207 200h36M207 201h36M207 202h36M207 203h36M207 204h36M207 205h36M207 206h36M198 207h63M279 207h18M324 207h9M369 207h9M198 208h63M279 208h18M324 208h9M369 208h9M198 209h63M279 209h18M324 209h9M369 209h9M198 210h63M279 210h18M324 210h9M369 210h9M198 211h63M279 211h18M324 211h9M369 211h9M198 212h63M279 212h18M324 212h9M369 212h9M198 213h63M279 213h18M324 213h9M369 213h9M198 214h63M279 214h18M324 214h9M369 214h9M198 215h63M279 215h18M324 215h9M369 215h9M198 216h36M261 216h45M369 216h18M198 217h36M261 217h45M369 217h18M198 218h36M261 218h45M369 218h18M198 219h36M261 219h45M369 219h18M198 220h36M261 220h45M369 220h18M198 221h36M261 221h45M369 221h18M198 222h36M261 222h45M369 222h18M198 223h36M261 223h45M369 223h18M198 224h36M261 224h45M369 224h18M189 225h18M270 225h36M369 225h18M189 226h18M270 226h36M369 226h18M189 227h18M270 227h36M369 227h18M189 228h18M270 228h36M369 228h18M189 229h18M270 229h36M369 229h18M189 230h18M270 230h36M369 230h18M189 231h18M270 231h36M369 231h18M189 232h18M270 232h36M369 232h18M189 233h18M270 233h36M369 233h18M189 234h117M369 234h27M189 235h117M369 235h27M189 236h117M369 236h27M189 237h117M369 237h27M189 238h117M369 238h27M189 239h117M369 239h27M189 240h117M369 240h27M189 241h117M369 241h27M189 242h117M369 242h27M189 243h18M261 243h54M369 243h18M189 244h18M261 244h54M369 244h18M189 245h18M261 245h54M369 245h18M189 246h18M261 246h54M369 246h18M189 247h18M261 247h54M369 247h18M189 248h18M261 248h54M369 248h18M189 249h18M261 249h54M369 249h18M189 250h18M261 250h54M369 250h18M189 251h18M261 251h54M369 251h18M189 252h135M351 252h18M378 252h9M396 252h9M189 253h135M351 253h18M378 253h9M396 253h9M189 254h135M351 254h18M378 254h9M396 254h9M189 255h135M351 255h18M378 255h9M396 255h9M189 256h135M351 256h18M378 256h9M396 256h9M189 257h135M351 257h18M378 257h9M396 257h9M189 258h135M351 258h18M378 258h9M396 258h9M189 259h135M351 259h18M378 259h9M396 259h9M189 260h135M351 260h18M378 260h9M396 260h9M198 261h162M396 261h9M198 262h162M396 262h9M198 263h162M396 263h9M198 264h162M396 264h9M198 265h162M396 265h9M198 266h162M396 266h9M198 267h162M396 267h9M198 268h162M396 268h9M198 269h162M396 269h9M198 270h18M279 270h72M198 271h18M279 271h72M198 272h18M279 272h72M198 273h18M279 273h72M198 274h18M279 274h72M198 275h18M279 275h72M198 276h18M279 276h72M198 277h18M279 277h72M198 278h18M279 278h72" />
<path stroke="#000814" d="M369 162h9M369 163h9M369 164h9M369 165h9M369 166h9M369 167h9M369 168h9M369 169h9M369 170h9M360 189h9M360 190h9M360 191h9M360 192h9M360 193h9M360 194h9M360 195h9M360 196h9M360 197h9M351 198h18M351 199h18M351 200h18M351 201h18M351 202h18M351 203h18M351 204h18M351 205h18M351 206h18M360 207h9M360 208h9M360 209h9M360 210h9M360 211h9M360 212h9M360 213h9M360 214h9M360 215h9" />
<path stroke="#7d7976" d="M414 162h9M414 163h9M414 164h9M414 165h9M414 166h9M414 167h9M414 168h9M414 169h9M414 170h9M423 171h9M423 172h9M423 173h9M423 174h9M423 175h9M423 176h9M423 177h9M423 178h9M423 179h9" />
<path stroke="#ffd3a3" d="M495 162h9M495 163h9M495 164h9M495 165h9M495 166h9M495 167h9M495 168h9M495 169h9M495 170h9M504 171h9M504 172h9M504 173h9M504 174h9M504 175h9M504 176h9M504 177h9M504 178h9M504 179h9M99 180h9M468 180h9M513 180h9M99 181h9M468 181h9M513 181h9M99 182h9M468 182h9M513 182h9M99 183h9M468 183h9M513 183h9M99 184h9M468 184h9M513 184h9M99 185h9M468 185h9M513 185h9M99 186h9M468 186h9M513 186h9M99 187h9M468 187h9M513 187h9M99 188h9M468 188h9M513 188h9M90 189h9M477 189h9M90 190h9M477 190h9M90 191h9M477 191h9M90 192h9M477 192h9M90 193h9M477 193h9M90 194h9M477 194h9M90 195h9M477 195h9M90 196h9M477 196h9M90 197h9M477 197h9" />
<path stroke="#ffd7aa" d="M504 162h18M504 163h18M504 164h18M504 165h18M504 166h18M504 167h18M504 168h18M504 169h18M504 170h18M513 171h9M513 172h9M513 173h9M513 174h9M513 175h9M513 176h9M513 177h9M513 178h9M513 179h9" />
<path stroke="#646a73" d="M369 171h9M369 172h9M369 173h9M369 174h9M369 175h9M369 176h9M369 177h9M369 178h9M369 179h9M369 180h9M369 181h9M369 182h9M369 183h9M369 184h9M369 185h9M369 186h9M369 187h9M369 188h9" />
<path stroke="#b38b63" d="M225 180h9M225 181h9M225 182h9M225 183h9M225 184h9M225 185h9M225 186h9M225 187h9M225 188h9M171 270h9M171 271h9M171 272h9M171 273h9M171 274h9M171 275h9M171 276h9M171 277h9M171 278h9" />
<path stroke="#34230d" d="M234 180h9M333 180h9M234 181h9M333 181h9M234 182h9M333 182h9M234 183h9M333 183h9M234 184h9M333 184h9M234 185h9M333 185h9M234 186h9M333 186h9M234 187h9M333 187h9M234 188h9M333 188h9M225 189h9M243 189h18M270 189h36M315 189h18M342 189h9M225 190h9M243 190h18M270 190h36M315 190h18M342 190h9M225 191h9M243 191h18M270 191h36M315 191h18M342 191h9M225 192h9M243 192h18M270 192h36M315 192h18M342 192h9M225 193h9M243 193h18M270 193h36M315 193h18M342 193h9M225 194h9M243 194h18M270 194h36M315 194h18M342 194h9M225 195h9M243 195h18M270 195h36M315 195h18M342 195h9M225 196h9M243 196h18M270 196h36M315 196h18M342 196h9M225 197h9M243 197h18M270 197h36M315 197h18M342 197h9M252 198h63M252 199h63M252 200h63M252 201h63M252 202h63M252 203h63M252 204h63M252 205h63M252 206h63M270 207h9M297 207h9M270 208h9M297 208h9M270 209h9M297 209h9M270 210h9M297 210h9M270 211h9M297 211h9M270 212h9M297 212h9M270 213h9M297 213h9M270 214h9M297 214h9M270 215h9M297 215h9" />
<path stroke="#2c1e0b" d="M243 180h18M270 180h36M315 180h18M243 181h18M270 181h36M315 181h18M243 182h18M270 182h36M315 182h18M243 183h18M270 183h36M315 183h18M243 184h18M270 184h36M315 184h18M243 185h18M270 185h36M315 185h18M243 186h18M270 186h36M315 186h18M243 187h18M270 187h36M315 187h18M243 188h18M270 188h36M315 188h18M261 189h9M306 189h9M261 190h9M306 190h9M261 191h9M306 191h9M261 192h9M306 192h9M261 193h9M306 193h9M261 194h9M306 194h9M261 195h9M306 195h9M261 196h9M306 196h9M261 197h9M306 197h9" />
<path stroke="#cb9f71" d="M342 180h9M342 181h9M342 182h9M342 183h9M342 184h9M342 185h9M342 186h9M342 187h9M342 188h9M234 189h9M333 189h9M351 189h9M234 190h9M333 190h9M351 190h9M234 191h9M333 191h9M351 191h9M234 192h9M333 192h9M351 192h9M234 193h9M333 193h9M351 193h9M234 194h9M333 194h9M351 194h9M234 195h9M333 195h9M351 195h9M234 196h9M333 196h9M351 196h9M234 197h9M333 197h9M351 197h9M243 198h9M243 199h9M243 200h9M243 201h9M243 202h9M243 203h9M243 204h9M243 205h9M243 206h9M261 207h9M261 208h9M261 209h9M261 210h9M261 211h9M261 212h9M261 213h9M261 214h9M261 215h9M252 216h9M252 217h9M252 218h9M252 219h9M252 220h9M252 221h9M252 222h9M252 223h9M252 224h9M207 225h9M261 225h9M207 226h9M261 226h9M207 227h9M261 227h9M207 228h9M261 228h9M207 229h9M261 229h9M207 230h9M261 230h9M207 231h9M261 231h9M207 232h9M261 232h9M207 233h9M261 233h9M180 243h9M207 243h9M252 243h9M360 243h9M387 243h9M180 244h9M207 244h9M252 244h9M360 244h9M387 244h9M180 245h9M207 245h9M252 245h9M360 245h9M387 245h9M180 246h9M207 246h9M252 246h9M360 246h9M387 246h9M180 247h9M207 247h9M252 247h9M360 247h9M387 247h9M180 248h9M207 248h9M252 248h9M360 248h9M387 248h9M180 249h9M207 249h9M252 249h9M360 249h9M387 249h9M180 250h9M207 250h9M252 250h9M360 250h9M387 250h9M180 251h9M207 251h9M252 251h9M360 251h9M387 251h9M369 252h9M369 253h9M369 254h9M369 255h9M369 256h9M369 257h9M369 258h9M369 259h9M369 260h9M189 261h9M360 261h9M378 261h9M189 262h9M360 262h9M378 262h9M189 263h9M360 263h9M378 263h9M189 264h9M360 264h9M378 264h9M189 265h9M360 265h9M378 265h9M189 266h9M360 266h9M378 266h9M189 267h9M360 267h9M378 267h9M189 268h9M360 268h9M378 268h9M189 269h9M360 269h9M378 269h9M216 270h9M270 270h9M351 270h9M396 270h9M216 271h9M270 271h9M351 271h9M396 271h9M216 272h9M270 272h9M351 272h9M396 272h9M216 273h9M270 273h9M351 273h9M396 273h9M216 274h9M270 274h9M351 274h9M396 274h9M216 275h9M270 275h9M351 275h9M396 275h9M216 276h9M270 276h9M351 276h9M396 276h9M216 277h9M270 277h9M351 277h9M396 277h9M216 278h9M270 278h9M351 278h9M396 278h9M297 279h9M315 279h9M297 280h9M315 280h9M297 281h9M315 281h9M297 282h9M315 282h9M297 283h9M315 283h9M297 284h9M315 284h9M297 285h9M315 285h9M297 286h9M315 286h9M297 287h9M315 287h9" />
<path stroke="#815d37" d="M360 180h9M360 181h9M360 182h9M360 183h9M360 184h9M360 185h9M360 186h9M360 187h9M360 188h9" />
<path stroke="#dbcdbd" d="M36 189h9M531 189h9M36 190h9M531 190h9M36 191h9M531 191h9M36 192h9M531 192h9M36 193h9M531 193h9M36 194h9M531 194h9M36 195h9M531 195h9M36 196h9M531 196h9M36 197h9M531 197h9M90 198h9M477 198h9M90 199h9M477 199h9M90 200h9M477 200h9M90 201h9M477 201h9M90 202h9M477 202h9M90 203h9M477 203h9M90 204h9M477 204h9M90 205h9M477 205h9M90 206h9M477 206h9" />
<path stroke="#f2e2d1" d="M45 189h18M513 189h18M45 190h18M513 190h18M45 191h18M513 191h18M45 192h18M513 192h18M45 193h18M513 193h18M45 194h18M513 194h18M45 195h18M513 195h18M45 196h18M513 196h18M45 197h18M513 197h18M54 198h18M81 198h9M486 198h9M504 198h18M54 199h18M81 199h9M486 199h9M504 199h18M54 200h18M81 200h9M486 200h9M504 200h18M54 201h18M81 201h9M486 201h9M504 201h18M54 202h18M81 202h9M486 202h9M504 202h18M54 203h18M81 203h9M486 203h9M504 203h18M54 204h18M81 204h9M486 204h9M504 204h18M54 205h18M81 205h9M486 205h9M504 205h18M54 206h18M81 206h9M486 206h9M504 206h18" />
<path stroke="#fdecd7" d="M63 189h9M504 189h9M63 190h9M504 190h9M63 191h9M504 191h9M63 192h9M504 192h9M63 193h9M504 193h9M63 194h9M504 194h9M63 195h9M504 195h9M63 196h9M504 196h9M63 197h9M504 197h9M72 198h9M495 198h9M72 199h9M495 199h9M72 200h9M495 200h9M72 201h9M495 201h9M72 202h9M495 202h9M72 203h9M495 203h9M72 204h9M495 204h9M72 205h9M495 205h9M72 206h9M495 206h9M54 207h9M513 207h9M54 208h9M513 208h9M54 209h9M513 209h9M54 210h9M513 210h9M54 211h9M513 211h9M54 212h9M513 212h9M54 213h9M513 213h9M54 214h9M513 214h9M54 215h9M513 215h9" />
<path stroke="#111111" d="M27 198h27M522 198h27M27 199h27M522 199h27M27 200h27M522 200h27M27 201h27M522 201h27M27 202h27M522 202h27M27 203h27M522 203h27M27 204h27M522 204h27M27 205h27M522 205h27M27 206h27M522 206h27M27 207h9M63 207h36M117 207h63M396 207h63M477 207h36M540 207h9M27 208h9M63 208h36M117 208h63M396 208h63M477 208h36M540 208h9M27 209h9M63 209h36M117 209h63M396 209h63M477 209h36M540 209h9M27 210h9M63 210h36M117 210h63M396 210h63M477 210h36M540 210h9M27 211h9M63 211h36M117 211h63M396 211h63M477 211h36M540 211h9M27 212h9M63 212h36M117 212h63M396 212h63M477 212h36M540 212h9M27 213h9M63 213h36M117 213h63M396 213h63M477 213h36M540 213h9M27 214h9M63 214h36M117 214h63M396 214h63M477 214h36M540 214h9M27 215h9M63 215h36M117 215h63M396 215h63M477 215h36M540 215h9M27 216h9M54 216h9M90 216h27M135 216h18M459 216h27M513 216h9M540 216h9M27 217h9M54 217h9M90 217h27M135 217h18M459 217h27M513 217h9M540 217h9M27 218h9M54 218h9M90 218h27M135 218h18M459 218h27M513 218h9M540 218h9M27 219h9M54 219h9M90 219h27M135 219h18M459 219h27M513 219h9M540 219h9M27 220h9M54 220h9M90 220h27M135 220h18M459 220h27M513 220h9M540 220h9M27 221h9M54 221h9M90 221h27M135 221h18M459 221h27M513 221h9M540 221h9M27 222h9M54 222h9M90 222h27M135 222h18M459 222h27M513 222h9M540 222h9M27 223h9M54 223h9M90 223h27M135 223h18M459 223h27M513 223h9M540 223h9M27 224h9M54 224h9M90 224h27M135 224h18M459 224h27M513 224h9M540 224h9M27 225h9M81 225h9M486 225h9M540 225h9M27 226h9M81 226h9M486 226h9M540 226h9M27 227h9M81 227h9M486 227h9M540 227h9M27 228h9M81 228h9M486 228h9M540 228h9M27 229h9M81 229h9M486 229h9M540 229h9M27 230h9M81 230h9M486 230h9M540 230h9M27 231h9M81 231h9M486 231h9M540 231h9M27 232h9M81 232h9M486 232h9M540 232h9M27 233h9M81 233h9M486 233h9M540 233h9M18 234h9M72 234h9M495 234h9M549 234h9M18 235h9M72 235h9M495 235h9M549 235h9M18 236h9M72 236h9M495 236h9M549 236h9M18 237h9M72 237h9M495 237h9M549 237h9M18 238h9M72 238h9M495 238h9M549 238h9M18 239h9M72 239h9M495 239h9M549 239h9M18 240h9M72 240h9M495 240h9M549 240h9M18 241h9M72 241h9M495 241h9M549 241h9M18 242h9M72 242h9M495 242h9M549 242h9M18 243h9M63 243h9M504 243h9M549 243h9M18 244h9M63 244h9M504 244h9M549 244h9M18 245h9M63 245h9M504 245h9M549 245h9M18 246h9M63 246h9M504 246h9M549 246h9M18 247h9M63 247h9M504 247h9M549 247h9M18 248h9M63 248h9M504 248h9M549 248h9M18 249h9M63 249h9M504 249h9M549 249h9M18 250h9M63 250h9M504 250h9M549 250h9M18 251h9M63 251h9M504 251h9M549 251h9M9 252h9M54 252h9M513 252h9M558 252h9M9 253h9M54 253h9M513 253h9M558 253h9M9 254h9M54 254h9M513 254h9M558 254h9M9 255h9M54 255h9M513 255h9M558 255h9M9 256h9M54 256h9M513 256h9M558 256h9M9 257h9M54 257h9M513 257h9M558 257h9M9 258h9M54 258h9M513 258h9M558 258h9M9 259h9M54 259h9M513 259h9M558 259h9M9 260h9M54 260h9M513 260h9M558 260h9M9 261h9M558 261h9M9 262h9M558 262h9M9 263h9M558 263h9M9 264h9M558 264h9M9 265h9M558 265h9M9 266h9M558 266h9M9 267h9M558 267h9M9 268h9M558 268h9M9 269h9M558 269h9M9 270h9M558 270h9M9 271h9M558 271h9M9 272h9M558 272h9M9 273h9M558 273h9M9 274h9M558 274h9M9 275h9M558 275h9M9 276h9M558 276h9M9 277h9M558 277h9M9 278h9M558 278h9M0 279h9M54 279h9M513 279h9M567 279h9M0 280h9M54 280h9M513 280h9M567 280h9M0 281h9M54 281h9M513 281h9M567 281h9M0 282h9M54 282h9M513 282h9M567 282h9M0 283h9M54 283h9M513 283h9M567 283h9M0 284h9M54 284h9M513 284h9M567 284h9M0 285h9M54 285h9M513 285h9M567 285h9M0 286h9M54 286h9M513 286h9M567 286h9M0 287h9M54 287h9M513 287h9M567 287h9M0 288h9M54 288h9M513 288h9M567 288h9M0 289h9M54 289h9M513 289h9M567 289h9M0 290h9M54 290h9M513 290h9M567 290h9M0 291h9M54 291h9M513 291h9M567 291h9M0 292h9M54 292h9M513 292h9M567 292h9M0 293h9M54 293h9M513 293h9M567 293h9M0 294h9M54 294h9M513 294h9M567 294h9M0 295h9M54 295h9M513 295h9M567 295h9M0 296h9M54 296h9M513 296h9M567 296h9M0 297h9M54 297h9M513 297h9M567 297h9M0 298h9M54 298h9M513 298h9M567 298h9M0 299h9M54 299h9M513 299h9M567 299h9M0 300h9M54 300h9M513 300h9M567 300h9M0 301h9M54 301h9M513 301h9M567 301h9M0 302h9M54 302h9M513 302h9M567 302h9M0 303h9M54 303h9M513 303h9M567 303h9M0 304h9M54 304h9M513 304h9M567 304h9M0 305h9M54 305h9M513 305h9M567 305h9M0 306h9M54 306h9M513 306h9M567 306h9M0 307h9M54 307h9M513 307h9M567 307h9M0 308h9M54 308h9M513 308h9M567 308h9M0 309h9M54 309h9M513 309h9M567 309h9M0 310h9M54 310h9M513 310h9M567 310h9M0 311h9M54 311h9M513 311h9M567 311h9M0 312h9M54 312h9M513 312h9M567 312h9M0 313h9M54 313h9M513 313h9M567 313h9M0 314h9M54 314h9M513 314h9M567 314h9M0 315h9M54 315h9M513 315h9M567 315h9M0 316h9M54 316h9M513 316h9M567 316h9M0 317h9M54 317h9M513 317h9M567 317h9M0 318h9M54 318h9M513 318h9M567 318h9M0 319h9M54 319h9M513 319h9M567 319h9M0 320h9M54 320h9M513 320h9M567 320h9M0 321h9M54 321h9M513 321h9M567 321h9M0 322h9M54 322h9M513 322h9M567 322h9M0 323h9M54 323h9M513 323h9M567 323h9M0 324h9M567 324h9M0 325h9M567 325h9M0 326h9M567 326h9M0 327h9M567 327h9M0 328h9M567 328h9M0 329h9M567 329h9M0 330h9M567 330h9M0 331h9M567 331h9M0 332h9M567 332h9M9 333h9M558 333h9M9 334h9M558 334h9M9 335h9M558 335h9M9 336h9M558 336h9M9 337h9M558 337h9M9 338h9M558 338h9M9 339h9M558 339h9M9 340h9M558 340h9M9 341h9M558 341h9M9 342h9M558 342h9M9 343h9M558 343h9M9 344h9M558 344h9M9 345h9M558 345h9M9 346h9M558 346h9M9 347h9M558 347h9M9 348h9M558 348h9M9 349h9M558 349h9M9 350h9M558 350h9M18 351h9M549 351h9M18 352h9M549 352h9M18 353h9M549 353h9M18 354h9M549 354h9M18 355h9M549 355h9M18 356h9M549 356h9M18 357h9M549 357h9M18 358h9M549 358h9M18 359h9M549 359h9M27 360h9M540 360h9M27 361h9M540 361h9M27 362h9M540 362h9M27 363h9M540 363h9M27 364h9M540 364h9M27 365h9M540 365h9M27 366h9M540 366h9M27 367h9M540 367h9M27 368h9M540 368h9M36 369h9M531 369h9M36 370h9M531 370h9M36 371h9M531 371h9M36 372h9M531 372h9M36 373h9M531 373h9M36 374h9M531 374h9M36 375h9M531 375h9M36 376h9M531 376h9M36 377h9M531 377h9M45 378h27M504 378h27M45 379h27M504 379h27M45 380h27M504 380h27M45 381h27M504 381h27M45 382h27M504 382h27M45 383h27M504 383h27M45 384h27M504 384h27M45 385h27M504 385h27M45 386h27M504 386h27M72 387h27M477 387h27M72 388h27M477 388h27M72 389h27M477 389h27M72 390h27M477 390h27M72 391h27M477 391h27M72 392h27M477 392h27M72 393h27M477 393h27M72 394h27M477 394h27M72 395h27M477 395h27M99 396h27M450 396h27M99 397h27M450 397h27M99 398h27M450 398h27M99 399h27M450 399h27M99 400h27M450 400h27M99 401h27M450 401h27M99 402h27M450 402h27M99 403h27M450 403h27M99 404h27M450 404h27M126 405h36M126 406h36M126 407h36M126 408h36M126 409h36M126 410h36M126 411h36M126 412h36M126 413h36M162 414h63M351 414h9M369 414h9M162 415h63M351 415h9M369 415h9M162 416h63M351 416h9M369 416h9M162 417h63M351 417h9M369 417h9M162 418h63M351 418h9M369 418h9M162 419h63M351 419h9M369 419h9M162 420h63M351 420h9M369 420h9M162 421h63M351 421h9M369 421h9M162 422h63M351 422h9M369 422h9" />
<path stroke="#301c0a" d="M315 198h9M315 199h9M315 200h9M315 201h9M315 202h9M315 203h9M315 204h9M315 205h9M315 206h9" />
<path stroke="#ffea00" d="M324 198h9M324 199h9M324 200h9M324 201h9M324 202h9M324 203h9M324 204h9M324 205h9M324 206h9M360 225h9M360 226h9M360 227h9M360 228h9M360 229h9M360 230h9M360 231h9M360 232h9M360 233h9" />
<path stroke="#f8ef8c" d="M333 198h9M333 199h9M333 200h9M333 201h9M333 202h9M333 203h9M333 204h9M333 205h9M333 206h9M360 216h9M360 217h9M360 218h9M360 219h9M360 220h9M360 221h9M360 222h9M360 223h9M360 224h9" />
<path stroke="#fcf8cf" d="M342 198h9M342 199h9M342 200h9M342 201h9M342 202h9M342 203h9M342 204h9M342 205h9M342 206h9M351 207h9M351 208h9M351 209h9M351 210h9M351 211h9M351 212h9M351 213h9M351 214h9M351 215h9" />
<path stroke="#1b1b1b" d="M36 207h9M36 208h9M36 209h9M36 210h9M36 211h9M36 212h9M36 213h9M36 214h9M36 215h9M36 216h9M117 216h9M171 216h9M450 216h9M36 217h9M117 217h9M171 217h9M450 217h9M36 218h9M117 218h9M171 218h9M450 218h9M36 219h9M117 219h9M171 219h9M450 219h9M36 220h9M117 220h9M171 220h9M450 220h9M36 221h9M117 221h9M171 221h9M450 221h9M36 222h9M117 222h9M171 222h9M450 222h9M36 223h9M117 223h9M171 223h9M450 223h9M36 224h9M117 224h9M171 224h9M450 224h9M72 225h9M90 225h9M477 225h9M495 225h9M72 226h9M90 226h9M477 226h9M495 226h9M72 227h9M90 227h9M477 227h9M495 227h9M72 228h9M90 228h9M477 228h9M495 228h9M72 229h9M90 229h9M477 229h9M495 229h9M72 230h9M90 230h9M477 230h9M495 230h9M72 231h9M90 231h9M477 231h9M495 231h9M72 232h9M90 232h9M477 232h9M495 232h9M72 233h9M90 233h9M477 233h9M495 233h9M27 234h9M63 234h9M162 234h9M504 234h9M27 235h9M63 235h9M162 235h9M504 235h9M27 236h9M63 236h9M162 236h9M504 236h9M27 237h9M63 237h9M162 237h9M504 237h9M27 238h9M63 238h9M162 238h9M504 238h9M27 239h9M63 239h9M162 239h9M504 239h9M27 240h9M63 240h9M162 240h9M504 240h9M27 241h9M63 241h9M162 241h9M504 241h9M27 242h9M63 242h9M162 242h9M504 242h9M54 243h9M513 243h9M54 244h9M513 244h9M54 245h9M513 245h9M54 246h9M513 246h9M54 247h9M513 247h9M54 248h9M513 248h9M54 249h9M513 249h9M54 250h9M513 250h9M54 251h9M513 251h9M18 252h9M18 253h9M18 254h9M18 255h9M18 256h9M18 257h9M18 258h9M18 259h9M18 260h9M153 270h9M153 271h9M153 272h9M153 273h9M153 274h9M153 275h9M153 276h9M153 277h9M153 278h9M9 279h9M153 279h9M9 280h9M153 280h9M9 281h9M153 281h9M9 282h9M153 282h9M9 283h9M153 283h9M9 284h9M153 284h9M9 285h9M153 285h9M9 286h9M153 286h9M9 287h9M153 287h9M153 288h9M153 289h9M153 290h9M153 291h9M153 292h9M153 293h9M153 294h9M153 295h9M153 296h9M153 297h9M153 298h9M153 299h9M153 300h9M153 301h9M153 302h9M153 303h9M153 304h9M153 305h9M153 306h9M153 307h9M153 308h9M153 309h9M153 310h9M153 311h9M153 312h9M153 313h9M153 314h9M153 315h9M153 316h9M153 317h9M153 318h9M153 319h9M153 320h9M153 321h9M153 322h9M153 323h9M9 324h9M54 324h9M153 324h9M513 324h9M9 325h9M54 325h9M153 325h9M513 325h9M9 326h9M54 326h9M153 326h9M513 326h9M9 327h9M54 327h9M153 327h9M513 327h9M9 328h9M54 328h9M153 328h9M513 328h9M9 329h9M54 329h9M153 329h9M513 329h9M9 330h9M54 330h9M153 330h9M513 330h9M9 331h9M54 331h9M153 331h9M513 331h9M9 332h9M54 332h9M153 332h9M513 332h9M36 333h9M522 333h9M36 334h9M522 334h9M36 335h9M522 335h9M36 336h9M522 336h9M36 337h9M522 337h9M36 338h9M522 338h9M36 339h9M522 339h9M36 340h9M522 340h9M36 341h9M522 341h9M18 342h27M522 342h18M18 343h27M522 343h18M18 344h27M522 344h18M18 345h27M522 345h18M18 346h27M522 346h18M18 347h27M522 347h18M18 348h27M522 348h18M18 349h27M522 349h18M18 350h27M522 350h18M27 351h27M162 351h9M522 351h27M27 352h27M162 352h9M522 352h27M27 353h27M162 353h9M522 353h27M27 354h27M162 354h9M522 354h27M27 355h27M162 355h9M522 355h27M27 356h27M162 356h9M522 356h27M27 357h27M162 357h9M522 357h27M27 358h27M162 358h9M522 358h27M27 359h27M162 359h9M522 359h27M36 360h18M522 360h18M36 361h18M522 361h18M36 362h18M522 362h18M36 363h18M522 363h18M36 364h18M522 364h18M36 365h18M522 365h18M36 366h18M522 366h18M36 367h18M522 367h18M36 368h18M522 368h18M45 369h9M171 369h9M522 369h9M45 370h9M171 370h9M522 370h9M45 371h9M171 371h9M522 371h9M45 372h9M171 372h9M522 372h9M45 373h9M171 373h9M522 373h9M45 374h9M171 374h9M522 374h9M45 375h9M171 375h9M522 375h9M45 376h9M171 376h9M522 376h9M45 377h9M171 377h9M522 377h9M72 378h9M72 379h9M72 380h9M72 381h9M72 382h9M72 383h9M72 384h9M72 385h9M72 386h9M99 387h9M180 387h9M387 387h9M99 388h9M180 388h9M387 388h9M99 389h9M180 389h9M387 389h9M99 390h9M180 390h9M387 390h9M99 391h9M180 391h9M387 391h9M99 392h9M180 392h9M387 392h9M99 393h9M180 393h9M387 393h9M99 394h9M180 394h9M387 394h9M99 395h9M180 395h9M387 395h9M126 396h9M171 396h27M378 396h27M441 396h9M126 397h9M171 397h27M378 397h27M441 397h9M126 398h9M171 398h27M378 398h27M441 398h9M126 399h9M171 399h27M378 399h27M441 399h9M126 400h9M171 400h27M378 400h27M441 400h9M126 401h9M171 401h27M378 401h27M441 401h9M126 402h9M171 402h27M378 402h27M441 402h9M126 403h9M171 403h27M378 403h27M441 403h9M126 404h9M171 404h27M378 404h27M441 404h9M162 405h54M360 405h27M162 406h54M360 406h27M162 407h54M360 407h27M162 408h54M360 408h27M162 409h54M360 409h27M162 410h54M360 410h27M162 411h54M360 411h27M162 412h54M360 412h27M162 413h54M360 413h27" />
<path stroke="#2a2a2a" d="M45 207h9M531 207h9M45 208h9M531 208h9M45 209h9M531 209h9M45 210h9M531 210h9M45 211h9M531 211h9M45 212h9M531 212h9M45 213h9M531 213h9M45 214h9M531 214h9M45 215h9M531 215h9M45 216h9M63 216h9M405 216h36M504 216h9M531 216h9M45 217h9M63 217h9M405 217h36M504 217h9M531 217h9M45 218h9M63 218h9M405 218h36M504 218h9M531 218h9M45 219h9M63 219h9M405 219h36M504 219h9M531 219h9M45 220h9M63 220h9M405 220h36M504 220h9M531 220h9M45 221h9M63 221h9M405 221h36M504 221h9M531 221h9M45 222h9M63 222h9M405 222h36M504 222h9M531 222h9M45 223h9M63 223h9M405 223h36M504 223h9M531 223h9M45 224h9M63 224h9M405 224h36M504 224h9M531 224h9M45 225h18M108 225h27M405 225h63M513 225h27M45 226h18M108 226h27M405 226h63M513 226h27M45 227h18M108 227h27M405 227h63M513 227h27M45 228h18M108 228h27M405 228h63M513 228h27M45 229h18M108 229h27M405 229h63M513 229h27M45 230h18M108 230h27M405 230h63M513 230h27M45 231h18M108 231h27M405 231h63M513 231h27M45 232h18M108 232h27M405 232h63M513 232h27M45 233h18M108 233h27M405 233h63M513 233h27M45 234h9M81 234h63M414 234h81M522 234h27M45 235h9M81 235h63M414 235h81M522 235h27M45 236h9M81 236h63M414 236h81M522 236h27M45 237h9M81 237h63M414 237h81M522 237h27M45 238h9M81 238h63M414 238h81M522 238h27M45 239h9M81 239h63M414 239h81M522 239h27M45 240h9M81 240h63M414 240h81M522 240h27M45 241h9M81 241h63M414 241h81M522 241h27M45 242h9M81 242h63M414 242h81M522 242h27M36 243h18M72 243h72M414 243h90M522 243h27M36 244h18M72 244h72M414 244h90M522 244h27M36 245h18M72 245h72M414 245h90M522 245h27M36 246h18M72 246h72M414 246h90M522 246h27M36 247h18M72 247h72M414 247h90M522 247h27M36 248h18M72 248h72M414 248h90M522 248h27M36 249h18M72 249h72M414 249h90M522 249h27M36 250h18M72 250h72M414 250h90M522 250h27M36 251h18M72 251h72M414 251h90M522 251h27M36 252h18M72 252h72M414 252h90M522 252h27M36 253h18M72 253h72M414 253h90M522 253h27M36 254h18M72 254h72M414 254h90M522 254h27M36 255h18M72 255h72M414 255h90M522 255h27M36 256h18M72 256h72M414 256h90M522 256h27M36 257h18M72 257h72M414 257h90M522 257h27M36 258h18M72 258h72M414 258h90M522 258h27M36 259h18M72 259h72M414 259h90M522 259h27M36 260h18M72 260h72M414 260h90M522 260h27M36 261h18M63 261h72M414 261h99M522 261h36M36 262h18M63 262h72M414 262h99M522 262h36M36 263h18M63 263h72M414 263h99M522 263h36M36 264h18M63 264h72M414 264h99M522 264h36M36 265h18M63 265h72M414 265h99M522 265h36M36 266h18M63 266h72M414 266h99M522 266h36M36 267h18M63 267h72M414 267h99M522 267h36M36 268h18M63 268h72M414 268h99M522 268h36M36 269h18M63 269h72M414 269h99M522 269h36M27 270h108M414 270h108M531 270h27M27 271h108M414 271h108M531 271h27M27 272h108M414 272h108M531 272h27M27 273h108M414 273h108M531 273h27M27 274h108M414 274h108M531 274h27M27 275h108M414 275h108M531 275h27M27 276h108M414 276h108M531 276h27M27 277h108M414 277h108M531 277h27M27 278h108M414 278h108M531 278h27M27 279h27M63 279h72M414 279h99M531 279h27M27 280h27M63 280h72M414 280h99M531 280h27M27 281h27M63 281h72M414 281h99M531 281h27M27 282h27M63 282h72M414 282h99M531 282h27M27 283h27M63 283h72M414 283h99M531 283h27M27 284h27M63 284h72M414 284h99M531 284h27M27 285h27M63 285h72M414 285h99M531 285h27M27 286h27M63 286h72M414 286h99M531 286h27M27 287h27M63 287h72M414 287h99M531 287h27M27 288h27M63 288h72M414 288h99M531 288h36M27 289h27M63 289h72M414 289h99M531 289h36M27 290h27M63 290h72M414 290h99M531 290h36M27 291h27M63 291h72M414 291h99M531 291h36M27 292h27M63 292h72M414 292h99M531 292h36M27 293h27M63 293h72M414 293h99M531 293h36M27 294h27M63 294h72M414 294h99M531 294h36M27 295h27M63 295h72M414 295h99M531 295h36M27 296h27M63 296h72M414 296h99M531 296h36M27 297h18M63 297h72M414 297h99M531 297h36M27 298h18M63 298h72M414 298h99M531 298h36M27 299h18M63 299h72M414 299h99M531 299h36M27 300h18M63 300h72M414 300h99M531 300h36M27 301h18M63 301h72M414 301h99M531 301h36M27 302h18M63 302h72M414 302h99M531 302h36M27 303h18M63 303h72M414 303h99M531 303h36M27 304h18M63 304h72M414 304h99M531 304h36M27 305h18M63 305h72M414 305h99M531 305h36M27 306h18M63 306h72M414 306h99M531 306h27M27 307h18M63 307h72M414 307h99M531 307h27M27 308h18M63 308h72M414 308h99M531 308h27M27 309h18M63 309h72M414 309h99M531 309h27M27 310h18M63 310h72M414 310h99M531 310h27M27 311h18M63 311h72M414 311h99M531 311h27M27 312h18M63 312h72M414 312h99M531 312h27M27 313h18M63 313h72M414 313h99M531 313h27M27 314h18M63 314h72M414 314h99M531 314h27M36 315h9M63 315h72M414 315h99M531 315h27M36 316h9M63 316h72M414 316h99M531 316h27M36 317h9M63 317h72M414 317h99M531 317h27M36 318h9M63 318h72M414 318h99M531 318h27M36 319h9M63 319h72M414 319h99M531 319h27M36 320h9M63 320h72M414 320h99M531 320h27M36 321h9M63 321h72M414 321h99M531 321h27M36 322h9M63 322h72M414 322h99M531 322h27M36 323h9M63 323h72M414 323h99M531 323h27M63 324h72M414 324h99M540 324h18M63 325h72M414 325h99M540 325h18M63 326h72M414 326h99M540 326h18M63 327h72M414 327h99M540 327h18M63 328h72M414 328h99M540 328h18M63 329h72M414 329h99M540 329h18M63 330h72M414 330h99M540 330h18M63 331h72M414 331h99M540 331h18M63 332h72M414 332h99M540 332h18M63 333h72M414 333h99M540 333h9M63 334h72M414 334h99M540 334h9M63 335h72M414 335h99M540 335h9M63 336h72M414 336h99M540 336h9M63 337h72M414 337h99M540 337h9M63 338h72M414 338h99M540 338h9M63 339h72M414 339h99M540 339h9M63 340h72M414 340h99M540 340h9M63 341h72M414 341h99M540 341h9M54 342h90M414 342h99M54 343h90M414 343h99M54 344h90M414 344h99M54 345h90M414 345h99M54 346h90M414 346h99M54 347h90M414 347h99M54 348h90M414 348h99M54 349h90M414 349h99M54 350h90M414 350h99M54 351h90M414 351h90M54 352h90M414 352h90M54 353h90M414 353h90M54 354h90M414 354h90M54 355h90M414 355h90M54 356h90M414 356h90M54 357h90M414 357h90M54 358h90M414 358h90M54 359h90M414 359h90M63 360h81M414 360h90M63 361h81M414 361h90M63 362h81M414 362h90M63 363h81M414 363h90M63 364h81M414 364h90M63 365h81M414 365h90M63 366h81M414 366h90M63 367h81M414 367h90M63 368h81M414 368h90M81 369h54M423 369h72M81 370h54M423 370h72M81 371h54M423 371h72M81 372h54M423 372h72M81 373h54M423 373h72M81 374h54M423 374h72M81 375h54M423 375h72M81 376h54M423 376h72M81 377h54M423 377h72M450 378h36M450 379h36M450 380h36M450 381h36M450 382h36M450 383h36M450 384h36M450 385h36M450 386h36M405 396h9M423 396h9M405 397h9M423 397h9M405 398h9M423 398h9M405 399h9M423 399h9M405 400h9M423 400h9M405 401h9M423 401h9M405 402h9M423 402h9M405 403h9M423 403h9M405 404h9M423 404h9M396 405h9M414 405h9M432 405h9M396 406h9M414 406h9M432 406h9M396 407h9M414 407h9M432 407h9M396 408h9M414 408h9M432 408h9M396 409h9M414 409h9M432 409h9M396 410h9M414 410h9M432 410h9M396 411h9M414 411h9M432 411h9M396 412h9M414 412h9M432 412h9M396 413h9M414 413h9M432 413h9M405 414h9M423 414h9M405 415h9M423 415h9M405 416h9M423 416h9M405 417h9M423 417h9M405 418h9M423 418h9M405 419h9M423 419h9M405 420h9M423 420h9M405 421h9M423 421h9M405 422h9M423 422h9M405 423h9M423 423h9M405 424h9M423 424h9M405 425h9M423 425h9M405 426h9M423 426h9M405 427h9M423 427h9M405 428h9M423 428h9M405 429h9M423 429h9M405 430h9M423 430h9M405 431h9M423 431h9M513 477h9M513 478h9M513 479h9M513 480h9M513 481h9M513 482h9M513 483h9M513 484h9M513 485h9M504 495h9M504 496h9M504 497h9M504 498h9M504 499h9M504 500h9M504 501h9M504 502h9M504 503h9" />
<path stroke="#a77e58" d="M306 207h9M306 208h9M306 209h9M306 210h9M306 211h9M306 212h9M306 213h9M306 214h9M306 215h9" />
<path stroke="#ffdd00" d="M315 207h9M315 208h9M315 209h9M315 210h9M315 211h9M315 212h9M315 213h9M315 214h9M315 215h9M360 234h9M360 235h9M360 236h9M360 237h9M360 238h9M360 239h9M360 240h9M360 241h9M360 242h9M351 243h9M351 244h9M351 245h9M351 246h9M351 247h9M351 248h9M351 249h9M351 250h9M351 251h9M342 252h9M342 253h9M342 254h9M342 255h9M342 256h9M342 257h9M342 258h9M342 259h9M342 260h9" />
<path stroke="#f8d08f" d="M333 207h18M333 208h18M333 209h18M333 210h18M333 211h18M333 212h18M333 213h18M333 214h18M333 215h18M342 216h9M342 217h9M342 218h9M342 219h9M342 220h9M342 221h9M342 222h9M342 223h9M342 224h9M315 234h18M342 234h18M315 235h18M342 235h18M315 236h18M342 236h18M315 237h18M342 237h18M315 238h18M342 238h18M315 239h18M342 239h18M315 240h18M342 240h18M315 241h18M342 241h18M315 242h18M342 242h18" />
<path stroke="#232323" d="M522 207h9M522 208h9M522 209h9M522 210h9M522 211h9M522 212h9M522 213h9M522 214h9M522 215h9M72 216h18M126 216h9M396 216h9M441 216h9M486 216h18M522 216h9M72 217h18M126 217h9M396 217h9M441 217h9M486 217h18M522 217h9M72 218h18M126 218h9M396 218h9M441 218h9M486 218h18M522 218h9M72 219h18M126 219h9M396 219h9M441 219h9M486 219h18M522 219h9M72 220h18M126 220h9M396 220h9M441 220h9M486 220h18M522 220h9M72 221h18M126 221h9M396 221h9M441 221h9M486 221h18M522 221h9M72 222h18M126 222h9M396 222h9M441 222h9M486 222h18M522 222h9M72 223h18M126 223h9M396 223h9M441 223h9M486 223h18M522 223h9M72 224h18M126 224h9M396 224h9M441 224h9M486 224h18M522 224h9M36 225h9M63 225h9M99 225h9M153 225h18M468 225h9M504 225h9M36 226h9M63 226h9M99 226h9M153 226h18M468 226h9M504 226h9M36 227h9M63 227h9M99 227h9M153 227h18M468 227h9M504 227h9M36 228h9M63 228h9M99 228h9M153 228h18M468 228h9M504 228h9M36 229h9M63 229h9M99 229h9M153 229h18M468 229h9M504 229h9M36 230h9M63 230h9M99 230h9M153 230h18M468 230h9M504 230h9M36 231h9M63 231h9M99 231h9M153 231h18M468 231h9M504 231h9M36 232h9M63 232h9M99 232h9M153 232h18M468 232h9M504 232h9M36 233h9M63 233h9M99 233h9M153 233h18M468 233h9M504 233h9M36 234h9M54 234h9M144 234h18M405 234h9M513 234h9M36 235h9M54 235h9M144 235h18M405 235h9M513 235h9M36 236h9M54 236h9M144 236h18M405 236h9M513 236h9M36 237h9M54 237h9M144 237h18M405 237h9M513 237h9M36 238h9M54 238h9M144 238h18M405 238h9M513 238h9M36 239h9M54 239h9M144 239h18M405 239h9M513 239h9M36 240h9M54 240h9M144 240h18M405 240h9M513 240h9M36 241h9M54 241h9M144 241h18M405 241h9M513 241h9M36 242h9M54 242h9M144 242h18M405 242h9M513 242h9M27 243h9M144 243h18M27 244h9M144 244h18M27 245h9M144 245h18M27 246h9M144 246h18M27 247h9M144 247h18M27 248h9M144 248h18M27 249h9M144 249h18M27 250h9M144 250h18M27 251h9M144 251h18M27 252h9M63 252h9M144 252h18M504 252h9M549 252h9M27 253h9M63 253h9M144 253h18M504 253h9M549 253h9M27 254h9M63 254h9M144 254h18M504 254h9M549 254h9M27 255h9M63 255h9M144 255h18M504 255h9M549 255h9M27 256h9M63 256h9M144 256h18M504 256h9M549 256h9M27 257h9M63 257h9M144 257h18M504 257h9M549 257h9M27 258h9M63 258h9M144 258h18M504 258h9M549 258h9M27 259h9M63 259h9M144 259h18M504 259h9M549 259h9M27 260h9M63 260h9M144 260h18M504 260h9M549 260h9M18 261h18M54 261h9M135 261h27M513 261h9M18 262h18M54 262h9M135 262h27M513 262h9M18 263h18M54 263h9M135 263h27M513 263h9M18 264h18M54 264h9M135 264h27M513 264h9M18 265h18M54 265h9M135 265h27M513 265h9M18 266h18M54 266h9M135 266h27M513 266h9M18 267h18M54 267h9M135 267h27M513 267h9M18 268h18M54 268h9M135 268h27M513 268h9M18 269h18M54 269h9M135 269h27M513 269h9M18 270h9M135 270h18M522 270h9M18 271h9M135 271h18M522 271h9M18 272h9M135 272h18M522 272h9M18 273h9M135 273h18M522 273h9M18 274h9M135 274h18M522 274h9M18 275h9M135 275h18M522 275h9M18 276h9M135 276h18M522 276h9M18 277h9M135 277h18M522 277h9M18 278h9M135 278h18M522 278h9M18 279h9M135 279h18M522 279h9M558 279h9M18 280h9M135 280h18M522 280h9M558 280h9M18 281h9M135 281h18M522 281h9M558 281h9M18 282h9M135 282h18M522 282h9M558 282h9M18 283h9M135 283h18M522 283h9M558 283h9M18 284h9M135 284h18M522 284h9M558 284h9M18 285h9M135 285h18M522 285h9M558 285h9M18 286h9M135 286h18M522 286h9M558 286h9M18 287h9M135 287h18M522 287h9M558 287h9M9 288h18M135 288h18M522 288h9M9 289h18M135 289h18M522 289h9M9 290h18M135 290h18M522 290h9M9 291h18M135 291h18M522 291h9M9 292h18M135 292h18M522 292h9M9 293h18M135 293h18M522 293h9M9 294h18M135 294h18M522 294h9M9 295h18M135 295h18M522 295h9M9 296h18M135 296h18M522 296h9M9 297h18M45 297h9M135 297h18M522 297h9M9 298h18M45 298h9M135 298h18M522 298h9M9 299h18M45 299h9M135 299h18M522 299h9M9 300h18M45 300h9M135 300h18M522 300h9M9 301h18M45 301h9M135 301h18M522 301h9M9 302h18M45 302h9M135 302h18M522 302h9M9 303h18M45 303h9M135 303h18M522 303h9M9 304h18M45 304h9M135 304h18M522 304h9M9 305h18M45 305h9M135 305h18M522 305h9M9 306h18M45 306h9M135 306h18M522 306h9M558 306h9M9 307h18M45 307h9M135 307h18M522 307h9M558 307h9M9 308h18M45 308h9M135 308h18M522 308h9M558 308h9M9 309h18M45 309h9M135 309h18M522 309h9M558 309h9M9 310h18M45 310h9M135 310h18M522 310h9M558 310h9M9 311h18M45 311h9M135 311h18M522 311h9M558 311h9M9 312h18M45 312h9M135 312h18M522 312h9M558 312h9M9 313h18M45 313h9M135 313h18M522 313h9M558 313h9M9 314h18M45 314h9M135 314h18M522 314h9M558 314h9M9 315h27M45 315h9M135 315h18M522 315h9M558 315h9M9 316h27M45 316h9M135 316h18M522 316h9M558 316h9M9 317h27M45 317h9M135 317h18M522 317h9M558 317h9M9 318h27M45 318h9M135 318h18M522 318h9M558 318h9M9 319h27M45 319h9M135 319h18M522 319h9M558 319h9M9 320h27M45 320h9M135 320h18M522 320h9M558 320h9M9 321h27M45 321h9M135 321h18M522 321h9M558 321h9M9 322h27M45 322h9M135 322h18M522 322h9M558 322h9M9 323h27M45 323h9M135 323h18M522 323h9M558 323h9M18 324h36M135 324h18M522 324h18M558 324h9M18 325h36M135 325h18M522 325h18M558 325h9M18 326h36M135 326h18M522 326h18M558 326h9M18 327h36M135 327h18M522 327h18M558 327h9M18 328h36M135 328h18M522 328h18M558 328h9M18 329h36M135 329h18M522 329h18M558 329h9M18 330h36M135 330h18M522 330h18M558 330h9M18 331h36M135 331h18M522 331h18M558 331h9M18 332h36M135 332h18M522 332h18M558 332h9M18 333h18M45 333h18M135 333h27M513 333h9M531 333h9M549 333h9M18 334h18M45 334h18M135 334h27M513 334h9M531 334h9M549 334h9M18 335h18M45 335h18M135 335h27M513 335h9M531 335h9M549 335h9M18 336h18M45 336h18M135 336h27M513 336h9M531 336h9M549 336h9M18 337h18M45 337h18M135 337h27M513 337h9M531 337h9M549 337h9M18 338h18M45 338h18M135 338h27M513 338h9M531 338h9M549 338h9M18 339h18M45 339h18M135 339h27M513 339h9M531 339h9M549 339h9M18 340h18M45 340h18M135 340h27M513 340h9M531 340h9M549 340h9M18 341h18M45 341h18M135 341h27M513 341h9M531 341h9M549 341h9M45 342h9M144 342h18M513 342h9M540 342h18M45 343h9M144 343h18M513 343h9M540 343h18M45 344h9M144 344h18M513 344h9M540 344h18M45 345h9M144 345h18M513 345h9M540 345h18M45 346h9M144 346h18M513 346h9M540 346h18M45 347h9M144 347h18M513 347h9M540 347h18M45 348h9M144 348h18M513 348h9M540 348h18M45 349h9M144 349h18M513 349h9M540 349h18M45 350h9M144 350h18M513 350h9M540 350h18M144 351h18M405 351h9M504 351h18M144 352h18M405 352h9M504 352h18M144 353h18M405 353h9M504 353h18M144 354h18M405 354h9M504 354h18M144 355h18M405 355h9M504 355h18M144 356h18M405 356h9M504 356h18M144 357h18M405 357h9M504 357h18M144 358h18M405 358h9M504 358h18M144 359h18M405 359h9M504 359h18M54 360h9M144 360h27M405 360h9M504 360h18M54 361h9M144 361h27M405 361h9M504 361h18M54 362h9M144 362h27M405 362h9M504 362h18M54 363h9M144 363h27M405 363h9M504 363h18M54 364h9M144 364h27M405 364h9M504 364h18M54 365h9M144 365h27M405 365h9M504 365h18M54 366h9M144 366h27M405 366h9M504 366h18M54 367h9M144 367h27M405 367h9M504 367h18M54 368h9M144 368h27M405 368h9M504 368h18M54 369h27M135 369h36M396 369h27M495 369h27M54 370h27M135 370h36M396 370h27M495 370h27M54 371h27M135 371h36M396 371h27M495 371h27M54 372h27M135 372h36M396 372h27M495 372h27M54 373h27M135 373h36M396 373h27M495 373h27M54 374h27M135 374h36M396 374h27M495 374h27M54 375h27M135 375h36M396 375h27M495 375h27M54 376h27M135 376h36M396 376h27M495 376h27M54 377h27M135 377h36M396 377h27M495 377h27M81 378h99M396 378h54M486 378h18M81 379h99M396 379h54M486 379h18M81 380h99M396 380h54M486 380h18M81 381h99M396 381h54M486 381h18M81 382h99M396 382h54M486 382h18M81 383h99M396 383h54M486 383h18M81 384h99M396 384h54M486 384h18M81 385h99M396 385h54M486 385h18M81 386h99M396 386h54M486 386h18M108 387h72M396 387h81M108 388h72M396 388h81M108 389h72M396 389h81M108 390h72M396 390h81M108 391h72M396 391h81M108 392h72M396 392h81M108 393h72M396 393h81M108 394h72M396 394h81M108 395h72M396 395h81M135 396h36M135 397h36M135 398h36M135 399h36M135 400h36M135 401h36M135 402h36M135 403h36M135 404h36" />
<path stroke="#d1d1d1" d="M153 216h18M153 217h18M153 218h18M153 219h18M153 220h18M153 221h18M153 222h18M153 223h18M153 224h18M135 225h18M135 226h18M135 227h18M135 228h18M135 229h18M135 230h18M135 231h18M135 232h18M135 233h18" />
<path stroke="#45302a" d="M234 216h18M234 217h18M234 218h18M234 219h18M234 220h18M234 221h18M234 222h18M234 223h18M234 224h18M216 225h45M216 226h45M216 227h45M216 228h45M216 229h45M216 230h45M216 231h45M216 232h45M216 233h45M216 243h36M216 244h36M216 245h36M216 246h36M216 247h36M216 248h36M216 249h36M216 250h36M216 251h36" />
<path stroke="#ffc300" d="M306 216h9M306 217h9M306 218h9M306 219h9M306 220h9M306 221h9M306 222h9M306 223h9M306 224h9M306 225h9M306 226h9M306 227h9M306 228h9M306 229h9M306 230h9M306 231h9M306 232h9M306 233h9M306 234h9M306 235h9M306 236h9M306 237h9M306 238h9M306 239h9M306 240h9M306 241h9M306 242h9M315 243h9M315 244h9M315 245h9M315 246h9M315 247h9M315 248h9M315 249h9M315 250h9M315 251h9M324 252h18M324 253h18M324 254h18M324 255h18M324 256h18M324 257h18M324 258h18M324 259h18M324 260h18" />
<path stroke="#d4af76" d="M315 216h9M315 217h9M315 218h9M315 219h9M315 220h9M315 221h9M315 222h9M315 223h9M315 224h9" />
<path stroke="#85744d" d="M324 216h9M324 217h9M324 218h9M324 219h9M324 220h9M324 221h9M324 222h9M324 223h9M324 224h9M315 225h9M342 225h9M315 226h9M342 226h9M315 227h9M342 227h9M315 228h9M342 228h9M315 229h9M342 229h9M315 230h9M342 230h9M315 231h9M342 231h9M315 232h9M342 232h9M315 233h9M342 233h9" />
<path stroke="#68563d" d="M333 216h9M333 217h9M333 218h9M333 219h9M333 220h9M333 221h9M333 222h9M333 223h9M333 224h9M324 225h18M351 225h9M324 226h18M351 226h9M324 227h18M351 227h9M324 228h18M351 228h9M324 229h18M351 229h9M324 230h18M351 230h9M324 231h18M351 231h9M324 232h18M351 232h9M324 233h18M351 233h9M324 243h27M324 244h27M324 245h27M324 246h27M324 247h27M324 248h27M324 249h27M324 250h27M324 251h27" />
<path stroke="#f8d68e" d="M351 216h9M351 217h9M351 218h9M351 219h9M351 220h9M351 221h9M351 222h9M351 223h9M351 224h9M333 234h9M333 235h9M333 236h9M333 237h9M333 238h9M333 239h9M333 240h9M333 241h9M333 242h9" />
<path stroke="#4d3e23" d="M180 252h9M387 252h9M180 253h9M387 253h9M180 254h9M387 254h9M180 255h9M387 255h9M180 256h9M387 256h9M180 257h9M387 257h9M180 258h9M387 258h9M180 259h9M387 259h9M180 260h9M387 260h9M162 261h9M180 261h9M369 261h9M387 261h9M405 261h9M162 262h9M180 262h9M369 262h9M387 262h9M405 262h9M162 263h9M180 263h9M369 263h9M387 263h9M405 263h9M162 264h9M180 264h9M369 264h9M387 264h9M405 264h9M162 265h9M180 265h9M369 265h9M387 265h9M405 265h9M162 266h9M180 266h9M369 266h9M387 266h9M405 266h9M162 267h9M180 267h9M369 267h9M387 267h9M405 267h9M162 268h9M180 268h9M369 268h9M387 268h9M405 268h9M162 269h9M180 269h9M369 269h9M387 269h9M405 269h9M162 270h9M180 270h18M225 270h9M252 270h18M360 270h9M378 270h18M405 270h9M162 271h9M180 271h18M225 271h9M252 271h18M360 271h9M378 271h18M405 271h9M162 272h9M180 272h18M225 272h9M252 272h18M360 272h9M378 272h18M405 272h9M162 273h9M180 273h18M225 273h9M252 273h18M360 273h9M378 273h18M405 273h9M162 274h9M180 274h18M225 274h9M252 274h18M360 274h9M378 274h18M405 274h9M162 275h9M180 275h18M225 275h9M252 275h18M360 275h9M378 275h18M405 275h9M162 276h9M180 276h18M225 276h9M252 276h18M360 276h9M378 276h18M405 276h9M162 277h9M180 277h18M225 277h9M252 277h18M360 277h9M378 277h18M405 277h9M162 278h9M180 278h18M225 278h9M252 278h18M360 278h9M378 278h18M405 278h9M162 279h18M198 279h18M261 279h18M306 279h9M324 279h18M378 279h9M405 279h9M162 280h18M198 280h18M261 280h18M306 280h9M324 280h18M378 280h9M405 280h9M162 281h18M198 281h18M261 281h18M306 281h9M324 281h18M378 281h9M405 281h9M162 282h18M198 282h18M261 282h18M306 282h9M324 282h18M378 282h9M405 282h9M162 283h18M198 283h18M261 283h18M306 283h9M324 283h18M378 283h9M405 283h9M162 284h18M198 284h18M261 284h18M306 284h9M324 284h18M378 284h9M405 284h9M162 285h18M198 285h18M261 285h18M306 285h9M324 285h18M378 285h9M405 285h9M162 286h18M198 286h18M261 286h18M306 286h9M324 286h18M378 286h9M405 286h9M162 287h18M198 287h18M261 287h18M306 287h9M324 287h18M378 287h9M405 287h9M162 288h9M198 288h9M252 288h9M297 288h9M315 288h9M396 288h18M162 289h9M198 289h9M252 289h9M297 289h9M315 289h9M396 289h18M162 290h9M198 290h9M252 290h9M297 290h9M315 290h9M396 290h18M162 291h9M198 291h9M252 291h9M297 291h9M315 291h9M396 291h18M162 292h9M198 292h9M252 292h9M297 292h9M315 292h9M396 292h18M162 293h9M198 293h9M252 293h9M297 293h9M315 293h9M396 293h18M162 294h9M198 294h9M252 294h9M297 294h9M315 294h9M396 294h18M162 295h9M198 295h9M252 295h9M297 295h9M315 295h9M396 295h18M162 296h9M198 296h9M252 296h9M297 296h9M315 296h9M396 296h18M162 297h18M189 297h9M243 297h9M378 297h18M405 297h9M162 298h18M189 298h9M243 298h9M378 298h18M405 298h9M162 299h18M189 299h9M243 299h9M378 299h18M405 299h9M162 300h18M189 300h9M243 300h9M378 300h18M405 300h9M162 301h18M189 301h9M243 301h9M378 301h18M405 301h9M162 302h18M189 302h9M243 302h9M378 302h18M405 302h9M162 303h18M189 303h9M243 303h9M378 303h18M405 303h9M162 304h18M189 304h9M243 304h9M378 304h18M405 304h9M162 305h18M189 305h9M243 305h9M378 305h18M405 305h9M162 306h18M189 306h9M243 306h9M378 306h9M396 306h9M162 307h18M189 307h9M243 307h9M378 307h9M396 307h9M162 308h18M189 308h9M243 308h9M378 308h9M396 308h9M162 309h18M189 309h9M243 309h9M378 309h9M396 309h9M162 310h18M189 310h9M243 310h9M378 310h9M396 310h9M162 311h18M189 311h9M243 311h9M378 311h9M396 311h9M162 312h18M189 312h9M243 312h9M378 312h9M396 312h9M162 313h18M189 313h9M243 313h9M378 313h9M396 313h9M162 314h18M189 314h9M243 314h9M378 314h9M396 314h9M162 315h9M378 315h18M405 315h9M162 316h9M378 316h18M405 316h9M162 317h9M378 317h18M405 317h9M162 318h9M378 318h18M405 318h9M162 319h9M378 319h18M405 319h9M162 320h9M378 320h18M405 320h9M162 321h9M378 321h18M405 321h9M162 322h9M378 322h18M405 322h9M162 323h9M378 323h18M405 323h9M162 324h9M207 324h9M378 324h9M396 324h9M162 325h9M207 325h9M378 325h9M396 325h9M162 326h9M207 326h9M378 326h9M396 326h9M162 327h9M207 327h9M378 327h9M396 327h9M162 328h9M207 328h9M378 328h9M396 328h9M162 329h9M207 329h9M378 329h9M396 329h9M162 330h9M207 330h9M378 330h9M396 330h9M162 331h9M207 331h9M378 331h9M396 331h9M162 332h9M207 332h9M378 332h9M396 332h9M261 333h9M369 333h27M405 333h9M261 334h9M369 334h27M405 334h9M261 335h9M369 335h27M405 335h9M261 336h9M369 336h27M405 336h9M261 337h9M369 337h27M405 337h9M261 338h9M369 338h27M405 338h9M261 339h9M369 339h27M405 339h9M261 340h9M369 340h27M405 340h9M261 341h9M369 341h27M405 341h9M198 342h9M369 342h18M396 342h9M198 343h9M369 343h18M396 343h9M198 344h9M369 344h18M396 344h9M198 345h9M369 345h18M396 345h9M198 346h9M369 346h18M396 346h9M198 347h9M369 347h18M396 347h9M198 348h9M369 348h18M396 348h9M198 349h9M369 349h18M396 349h9M198 350h9M369 350h18M396 350h9M252 351h9M369 351h27M252 352h9M369 352h27M252 353h9M369 353h27M252 354h9M369 354h27M252 355h9M369 355h27M252 356h9M369 356h27M252 357h9M369 357h27M252 358h9M369 358h27M252 359h9M369 359h27M171 360h9M360 360h18M396 360h9M171 361h9M360 361h18M396 361h9M171 362h9M360 362h18M396 362h9M171 363h9M360 363h18M396 363h9M171 364h9M360 364h18M396 364h9M171 365h9M360 365h18M396 365h9M171 366h9M360 366h18M396 366h9M171 367h9M360 367h18M396 367h9M171 368h9M360 368h18M396 368h9M351 369h36M351 370h36M351 371h36M351 372h36M351 373h36M351 374h36M351 375h36M351 376h36M351 377h36M180 378h9M351 378h18M387 378h9M180 379h9M351 379h18M387 379h9M180 380h9M351 380h18M387 380h9M180 381h9M351 381h18M387 381h9M180 382h9M351 382h18M387 382h9M180 383h9M351 383h18M387 383h9M180 384h9M351 384h18M387 384h9M180 385h9M351 385h18M387 385h9M180 386h9M351 386h18M387 386h9M198 387h9M351 387h27M198 388h9M351 388h27M198 389h9M351 389h27M198 390h9M351 390h27M198 391h9M351 391h27M198 392h9M351 392h27M198 393h9M351 393h27M198 394h9M351 394h27M198 395h9M351 395h27M261 396h9M351 396h9M261 397h9M351 397h9M261 398h9M351 398h9M261 399h9M351 399h9M261 400h9M351 400h9M261 401h9M351 401h9M261 402h9M351 402h9M261 403h9M351 403h9M261 404h9M351 404h9M351 405h9M351 406h9M351 407h9M351 408h9M351 409h9M351 410h9M351 411h9M351 412h9M351 413h9M279 414h9M279 415h9M279 416h9M279 417h9M279 418h9M279 419h9M279 420h9M279 421h9M279 422h9M234 423h9M297 423h9M234 424h9M297 424h9M234 425h9M297 425h9M234 426h9M297 426h9M234 427h9M297 427h9M234 428h9M297 428h9M234 429h9M297 429h9M234 430h9M297 430h9M234 431h9M297 431h9M243 432h9M306 432h9M243 433h9M306 433h9M243 434h9M306 434h9M243 435h9M306 435h9M243 436h9M306 436h9M243 437h9M306 437h9M243 438h9M306 438h9M243 439h9M306 439h9M243 440h9M306 440h9" />
<path stroke="#5f4c2a" d="M234 270h18M234 271h18M234 272h18M234 273h18M234 274h18M234 275h18M234 276h18M234 277h18M234 278h18M180 279h18M216 279h45M279 279h18M342 279h18M387 279h18M180 280h18M216 280h45M279 280h18M342 280h18M387 280h18M180 281h18M216 281h45M279 281h18M342 281h18M387 281h18M180 282h18M216 282h45M279 282h18M342 282h18M387 282h18M180 283h18M216 283h45M279 283h18M342 283h18M387 283h18M180 284h18M216 284h45M279 284h18M342 284h18M387 284h18M180 285h18M216 285h45M279 285h18M342 285h18M387 285h18M180 286h18M216 286h45M279 286h18M342 286h18M387 286h18M180 287h18M216 287h45M279 287h18M342 287h18M387 287h18M171 288h27M207 288h9M225 288h9M261 288h36M306 288h9M324 288h9M387 288h9M171 289h27M207 289h9M225 289h9M261 289h36M306 289h9M324 289h9M387 289h9M171 290h27M207 290h9M225 290h9M261 290h36M306 290h9M324 290h9M387 290h9M171 291h27M207 291h9M225 291h9M261 291h36M306 291h9M324 291h9M387 291h9M171 292h27M207 292h9M225 292h9M261 292h36M306 292h9M324 292h9M387 292h9M171 293h27M207 293h9M225 293h9M261 293h36M306 293h9M324 293h9M387 293h9M171 294h27M207 294h9M225 294h9M261 294h36M306 294h9M324 294h9M387 294h9M171 295h27M207 295h9M225 295h9M261 295h36M306 295h9M324 295h9M387 295h9M171 296h27M207 296h9M225 296h9M261 296h36M306 296h9M324 296h9M387 296h9M180 297h9M198 297h9M252 297h18M279 297h9M297 297h9M315 297h9M396 297h9M180 298h9M198 298h9M252 298h18M279 298h9M297 298h9M315 298h9M396 298h9M180 299h9M198 299h9M252 299h18M279 299h9M297 299h9M315 299h9M396 299h9M180 300h9M198 300h9M252 300h18M279 300h9M297 300h9M315 300h9M396 300h9M180 301h9M198 301h9M252 301h18M279 301h9M297 301h9M315 301h9M396 301h9M180 302h9M198 302h9M252 302h18M279 302h9M297 302h9M315 302h9M396 302h9M180 303h9M198 303h9M252 303h18M279 303h9M297 303h9M315 303h9M396 303h9M180 304h9M198 304h9M252 304h18M279 304h9M297 304h9M315 304h9M396 304h9M180 305h9M198 305h9M252 305h18M279 305h9M297 305h9M315 305h9M396 305h9M225 306h9M252 306h9M387 306h9M405 306h9M225 307h9M252 307h9M387 307h9M405 307h9M225 308h9M252 308h9M387 308h9M405 308h9M225 309h9M252 309h9M387 309h9M405 309h9M225 310h9M252 310h9M387 310h9M405 310h9M225 311h9M252 311h9M387 311h9M405 311h9M225 312h9M252 312h9M387 312h9M405 312h9M225 313h9M252 313h9M387 313h9M405 313h9M225 314h9M252 314h9M387 314h9M405 314h9M171 315h9M189 315h9M216 315h9M243 315h9M279 315h9M396 315h9M171 316h9M189 316h9M216 316h9M243 316h9M279 316h9M396 316h9M171 317h9M189 317h9M216 317h9M243 317h9M279 317h9M396 317h9M171 318h9M189 318h9M216 318h9M243 318h9M279 318h9M396 318h9M171 319h9M189 319h9M216 319h9M243 319h9M279 319h9M396 319h9M171 320h9M189 320h9M216 320h9M243 320h9M279 320h9M396 320h9M171 321h9M189 321h9M216 321h9M243 321h9M279 321h9M396 321h9M171 322h9M189 322h9M216 322h9M243 322h9M279 322h9M396 322h9M171 323h9M189 323h9M216 323h9M243 323h9M279 323h9M396 323h9M171 324h9M270 324h9M387 324h9M405 324h9M171 325h9M270 325h9M387 325h9M405 325h9M171 326h9M270 326h9M387 326h9M405 326h9M171 327h9M270 327h9M387 327h9M405 327h9M171 328h9M270 328h9M387 328h9M405 328h9M171 329h9M270 329h9M387 329h9M405 329h9M171 330h9M270 330h9M387 330h9M405 330h9M171 331h9M270 331h9M387 331h9M405 331h9M171 332h9M270 332h9M387 332h9M405 332h9M162 333h18M207 333h9M234 333h9M396 333h9M162 334h18M207 334h9M234 334h9M396 334h9M162 335h18M207 335h9M234 335h9M396 335h9M162 336h18M207 336h9M234 336h9M396 336h9M162 337h18M207 337h9M234 337h9M396 337h9M162 338h18M207 338h9M234 338h9M396 338h9M162 339h18M207 339h9M234 339h9M396 339h9M162 340h18M207 340h9M234 340h9M396 340h9M162 341h18M207 341h9M234 341h9M396 341h9M162 342h18M261 342h9M387 342h9M405 342h9M162 343h18M261 343h9M387 343h9M405 343h9M162 344h18M261 344h9M387 344h9M405 344h9M162 345h18M261 345h9M387 345h9M405 345h9M162 346h18M261 346h9M387 346h9M405 346h9M162 347h18M261 347h9M387 347h9M405 347h9M162 348h18M261 348h9M387 348h9M405 348h9M162 349h18M261 349h9M387 349h9M405 349h9M162 350h18M261 350h9M387 350h9M405 350h9M171 351h9M198 351h9M360 351h9M396 351h9M171 352h9M198 352h9M360 352h9M396 352h9M171 353h9M198 353h9M360 353h9M396 353h9M171 354h9M198 354h9M360 354h9M396 354h9M171 355h9M198 355h9M360 355h9M396 355h9M171 356h9M198 356h9M360 356h9M396 356h9M171 357h9M198 357h9M360 357h9M396 357h9M171 358h9M198 358h9M360 358h9M396 358h9M171 359h9M198 359h9M360 359h9M396 359h9M180 360h9M198 360h9M252 360h9M351 360h9M378 360h18M180 361h9M198 361h9M252 361h9M351 361h9M378 361h18M180 362h9M198 362h9M252 362h9M351 362h9M378 362h18M180 363h9M198 363h9M252 363h9M351 363h9M378 363h18M180 364h9M198 364h9M252 364h9M351 364h9M378 364h18M180 365h9M198 365h9M252 365h9M351 365h9M378 365h18M180 366h9M198 366h9M252 366h9M351 366h9M378 366h18M180 367h9M198 367h9M252 367h9M351 367h9M378 367h18M180 368h9M198 368h9M252 368h9M351 368h9M378 368h18M180 369h9M252 369h9M387 369h9M180 370h9M252 370h9M387 370h9M180 371h9M252 371h9M387 371h9M180 372h9M252 372h9M387 372h9M180 373h9M252 373h9M387 373h9M180 374h9M252 374h9M387 374h9M180 375h9M252 375h9M387 375h9M180 376h9M252 376h9M387 376h9M180 377h9M252 377h9M387 377h9M189 378h9M207 378h9M369 378h18M189 379h9M207 379h9M369 379h18M189 380h9M207 380h9M369 380h18M189 381h9M207 381h9M369 381h18M189 382h9M207 382h9M369 382h18M189 383h9M207 383h9M369 383h18M189 384h9M207 384h9M369 384h18M189 385h9M207 385h9M369 385h18M189 386h9M207 386h9M369 386h18M189 387h9M207 387h9M270 387h9M378 387h9M189 388h9M207 388h9M270 388h9M378 388h9M189 389h9M207 389h9M270 389h9M378 389h9M189 390h9M207 390h9M270 390h9M378 390h9M189 391h9M207 391h9M270 391h9M378 391h9M189 392h9M207 392h9M270 392h9M378 392h9M189 393h9M207 393h9M270 393h9M378 393h9M189 394h9M207 394h9M270 394h9M378 394h9M189 395h9M207 395h9M270 395h9M378 395h9M198 396h18M270 396h9M360 396h18M198 397h18M270 397h9M360 397h18M198 398h18M270 398h9M360 398h18M198 399h18M270 399h9M360 399h18M198 400h18M270 400h9M360 400h18M198 401h18M270 401h9M360 401h18M198 402h18M270 402h9M360 402h18M198 403h18M270 403h9M360 403h18M198 404h18M270 404h9M360 404h18M216 405h9M261 405h18M216 406h9M261 406h18M216 407h9M261 407h18M216 408h9M261 408h18M216 409h9M261 409h18M216 410h9M261 410h18M216 411h9M261 411h18M216 412h9M261 412h18M216 413h9M261 413h18M225 414h9M243 414h9M270 414h9M288 414h9M306 414h9M225 415h9M243 415h9M270 415h9M288 415h9M306 415h9M225 416h9M243 416h9M270 416h9M288 416h9M306 416h9M225 417h9M243 417h9M270 417h9M288 417h9M306 417h9M225 418h9M243 418h9M270 418h9M288 418h9M306 418h9M225 419h9M243 419h9M270 419h9M288 419h9M306 419h9M225 420h9M243 420h9M270 420h9M288 420h9M306 420h9M225 421h9M243 421h9M270 421h9M288 421h9M306 421h9M225 422h9M243 422h9M270 422h9M288 422h9M306 422h9M243 423h9M270 423h27M306 423h9M243 424h9M270 424h27M306 424h9M243 425h9M270 425h27M306 425h9M243 426h9M270 426h27M306 426h9M243 427h9M270 427h27M306 427h9M243 428h9M270 428h27M306 428h9M243 429h9M270 429h27M306 429h9M243 430h9M270 430h27M306 430h9M243 431h9M270 431h27M306 431h9M315 432h9M315 433h9M315 434h9M315 435h9M315 436h9M315 437h9M315 438h9M315 439h9M315 440h9" />
<path stroke="#6e5831" d="M369 270h9M369 271h9M369 272h9M369 273h9M369 274h9M369 275h9M369 276h9M369 277h9M369 278h9M360 279h18M360 280h18M360 281h18M360 282h18M360 283h18M360 284h18M360 285h18M360 286h18M360 287h18M216 288h9M234 288h18M333 288h36M378 288h9M216 289h9M234 289h18M333 289h36M378 289h9M216 290h9M234 290h18M333 290h36M378 290h9M216 291h9M234 291h18M333 291h36M378 291h9M216 292h9M234 292h18M333 292h36M378 292h9M216 293h9M234 293h18M333 293h36M378 293h9M216 294h9M234 294h18M333 294h36M378 294h9M216 295h9M234 295h18M333 295h36M378 295h9M216 296h9M234 296h18M333 296h36M378 296h9M207 297h36M270 297h9M288 297h9M306 297h9M324 297h36M207 298h36M270 298h9M288 298h9M306 298h9M324 298h36M207 299h36M270 299h9M288 299h9M306 299h9M324 299h36M207 300h36M270 300h9M288 300h9M306 300h9M324 300h36M207 301h36M270 301h9M288 301h9M306 301h9M324 301h36M207 302h36M270 302h9M288 302h9M306 302h9M324 302h36M207 303h36M270 303h9M288 303h9M306 303h9M324 303h36M207 304h36M270 304h9M288 304h9M306 304h9M324 304h36M207 305h36M270 305h9M288 305h9M306 305h9M324 305h36M180 306h9M198 306h27M234 306h9M261 306h99M180 307h9M198 307h27M234 307h9M261 307h99M180 308h9M198 308h27M234 308h9M261 308h99M180 309h9M198 309h27M234 309h9M261 309h99M180 310h9M198 310h27M234 310h9M261 310h99M180 311h9M198 311h27M234 311h9M261 311h99M180 312h9M198 312h27M234 312h9M261 312h99M180 313h9M198 313h27M234 313h9M261 313h99M180 314h9M198 314h27M234 314h9M261 314h99M180 315h9M198 315h18M225 315h18M252 315h27M288 315h81M180 316h9M198 316h18M225 316h18M252 316h27M288 316h81M180 317h9M198 317h18M225 317h18M252 317h27M288 317h81M180 318h9M198 318h18M225 318h18M252 318h27M288 318h81M180 319h9M198 319h18M225 319h18M252 319h27M288 319h81M180 320h9M198 320h18M225 320h18M252 320h27M288 320h81M180 321h9M198 321h18M225 321h18M252 321h27M288 321h81M180 322h9M198 322h18M225 322h18M252 322h27M288 322h81M180 323h9M198 323h18M225 323h18M252 323h27M288 323h81M180 324h27M216 324h54M279 324h99M180 325h27M216 325h54M279 325h99M180 326h27M216 326h54M279 326h99M180 327h27M216 327h54M279 327h99M180 328h27M216 328h54M279 328h99M180 329h27M216 329h54M279 329h99M180 330h27M216 330h54M279 330h99M180 331h27M216 331h54M279 331h99M180 332h27M216 332h54M279 332h99M180 333h27M216 333h18M243 333h18M270 333h99M180 334h27M216 334h18M243 334h18M270 334h99M180 335h27M216 335h18M243 335h18M270 335h99M180 336h27M216 336h18M243 336h18M270 336h99M180 337h27M216 337h18M243 337h18M270 337h99M180 338h27M216 338h18M243 338h18M270 338h99M180 339h27M216 339h18M243 339h18M270 339h99M180 340h27M216 340h18M243 340h18M270 340h99M180 341h27M216 341h18M243 341h18M270 341h99M180 342h18M207 342h54M270 342h27M333 342h36M180 343h18M207 343h54M270 343h27M333 343h36M180 344h18M207 344h54M270 344h27M333 344h36M180 345h18M207 345h54M270 345h27M333 345h36M180 346h18M207 346h54M270 346h27M333 346h36M180 347h18M207 347h54M270 347h27M333 347h36M180 348h18M207 348h54M270 348h27M333 348h36M180 349h18M207 349h54M270 349h27M333 349h36M180 350h18M207 350h54M270 350h27M333 350h36M180 351h18M207 351h9M225 351h27M261 351h18M342 351h18M180 352h18M207 352h9M225 352h27M261 352h18M342 352h18M180 353h18M207 353h9M225 353h27M261 353h18M342 353h18M180 354h18M207 354h9M225 354h27M261 354h18M342 354h18M180 355h18M207 355h9M225 355h27M261 355h18M342 355h18M180 356h18M207 356h9M225 356h27M261 356h18M342 356h18M180 357h18M207 357h9M225 357h27M261 357h18M342 357h18M180 358h18M207 358h9M225 358h27M261 358h18M342 358h18M180 359h18M207 359h9M225 359h27M261 359h18M342 359h18M189 360h9M207 360h45M261 360h9M342 360h9M189 361h9M207 361h45M261 361h9M342 361h9M189 362h9M207 362h45M261 362h9M342 362h9M189 363h9M207 363h45M261 363h9M342 363h9M189 364h9M207 364h45M261 364h9M342 364h9M189 365h9M207 365h45M261 365h9M342 365h9M189 366h9M207 366h45M261 366h9M342 366h9M189 367h9M207 367h45M261 367h9M342 367h9M189 368h9M207 368h45M261 368h9M342 368h9M189 369h63M261 369h18M288 369h9M315 369h9M333 369h18M189 370h63M261 370h18M288 370h9M315 370h9M333 370h18M189 371h63M261 371h18M288 371h9M315 371h9M333 371h18M189 372h63M261 372h18M288 372h9M315 372h9M333 372h18M189 373h63M261 373h18M288 373h9M315 373h9M333 373h18M189 374h63M261 374h18M288 374h9M315 374h9M333 374h18M189 375h63M261 375h18M288 375h9M315 375h9M333 375h18M189 376h63M261 376h18M288 376h9M315 376h9M333 376h18M189 377h63M261 377h18M288 377h9M315 377h9M333 377h18M198 378h9M234 378h18M261 378h45M315 378h18M342 378h9M198 379h9M234 379h18M261 379h45M315 379h18M342 379h9M198 380h9M234 380h18M261 380h45M315 380h18M342 380h9M198 381h9M234 381h18M261 381h45M315 381h18M342 381h9M198 382h9M234 382h18M261 382h45M315 382h18M342 382h9M198 383h9M234 383h18M261 383h45M315 383h18M342 383h9M198 384h9M234 384h18M261 384h45M315 384h18M342 384h9M198 385h9M234 385h18M261 385h45M315 385h18M342 385h9M198 386h9M234 386h18M261 386h45M315 386h18M342 386h9M234 387h18M261 387h9M279 387h36M324 387h27M234 388h18M261 388h9M279 388h36M324 388h27M234 389h18M261 389h9M279 389h36M324 389h27M234 390h18M261 390h9M279 390h36M324 390h27M234 391h18M261 391h9M279 391h36M324 391h27M234 392h18M261 392h9M279 392h36M324 392h27M234 393h18M261 393h9M279 393h36M324 393h27M234 394h18M261 394h9M279 394h36M324 394h27M234 395h18M261 395h9M279 395h36M324 395h27M234 396h27M279 396h72M234 397h27M279 397h72M234 398h27M279 398h72M234 399h27M279 399h72M234 400h27M279 400h72M234 401h27M279 401h72M234 402h27M279 402h72M234 403h27M279 403h72M234 404h27M279 404h72M234 405h27M279 405h72M234 406h27M279 406h72M234 407h27M279 407h72M234 408h27M279 408h72M234 409h27M279 409h72M234 410h27M279 410h72M234 411h27M279 411h72M234 412h27M279 412h72M234 413h27M279 413h72M234 414h9M252 414h18M297 414h9M315 414h36M234 415h9M252 415h18M297 415h9M315 415h36M234 416h9M252 416h18M297 416h9M315 416h36M234 417h9M252 417h18M297 417h9M315 417h36M234 418h9M252 418h18M297 418h9M315 418h36M234 419h9M252 419h18M297 419h9M315 419h36M234 420h9M252 420h18M297 420h9M315 420h36M234 421h9M252 421h18M297 421h9M315 421h36M234 422h9M252 422h18M297 422h9M315 422h36M252 423h18M315 423h18M252 424h18M315 424h18M252 425h18M315 425h18M252 426h18M315 426h18M252 427h18M315 427h18M252 428h18M315 428h18M252 429h18M315 429h18M252 430h18M315 430h18M252 431h18M315 431h18M324 432h18M324 433h18M324 434h18M324 435h18M324 436h18M324 437h18M324 438h18M324 439h18M324 440h18" />
<path stroke="#7e683f" d="M369 288h9M369 289h9M369 290h9M369 291h9M369 292h9M369 293h9M369 294h9M369 295h9M369 296h9M360 297h18M360 298h18M360 299h18M360 300h18M360 301h18M360 302h18M360 303h18M360 304h18M360 305h18M360 306h18M360 307h18M360 308h18M360 309h18M360 310h18M360 311h18M360 312h18M360 313h18M360 314h18M369 315h9M369 316h9M369 317h9M369 318h9M369 319h9M369 320h9M369 321h9M369 322h9M369 323h9M297 342h36M297 343h36M297 344h36M297 345h36M297 346h36M297 347h36M297 348h36M297 349h36M297 350h36M216 351h9M279 351h63M216 352h9M279 352h63M216 353h9M279 353h63M216 354h9M279 354h63M216 355h9M279 355h63M216 356h9M279 356h63M216 357h9M279 357h63M216 358h9M279 358h63M216 359h9M279 359h63M270 360h72M270 361h72M270 362h72M270 363h72M270 364h72M270 365h72M270 366h72M270 367h72M270 368h72M279 369h9M297 369h18M324 369h9M279 370h9M297 370h18M324 370h9M279 371h9M297 371h18M324 371h9M279 372h9M297 372h18M324 372h9M279 373h9M297 373h18M324 373h9M279 374h9M297 374h18M324 374h9M279 375h9M297 375h18M324 375h9M279 376h9M297 376h18M324 376h9M279 377h9M297 377h18M324 377h9M216 378h18M252 378h9M306 378h9M333 378h9M216 379h18M252 379h9M306 379h9M333 379h9M216 380h18M252 380h9M306 380h9M333 380h9M216 381h18M252 381h9M306 381h9M333 381h9M216 382h18M252 382h9M306 382h9M333 382h9M216 383h18M252 383h9M306 383h9M333 383h9M216 384h18M252 384h9M306 384h9M333 384h9M216 385h18M252 385h9M306 385h9M333 385h9M216 386h18M252 386h9M306 386h9M333 386h9M216 387h18M252 387h9M315 387h9M216 388h18M252 388h9M315 388h9M216 389h18M252 389h9M315 389h9M216 390h18M252 390h9M315 390h9M216 391h18M252 391h9M315 391h9M216 392h18M252 392h9M315 392h9M216 393h18M252 393h9M315 393h9M216 394h18M252 394h9M315 394h9M216 395h18M252 395h9M315 395h9M216 396h18M216 397h18M216 398h18M216 399h18M216 400h18M216 401h18M216 402h18M216 403h18M216 404h18M225 405h9M225 406h9M225 407h9M225 408h9M225 409h9M225 410h9M225 411h9M225 412h9M225 413h9" />
<path stroke="#161616" d="M414 396h9M432 396h9M414 397h9M432 397h9M414 398h9M432 398h9M414 399h9M432 399h9M414 400h9M432 400h9M414 401h9M432 401h9M414 402h9M432 402h9M414 403h9M432 403h9M414 404h9M432 404h9M405 405h9M423 405h9M441 405h27M405 406h9M423 406h9M441 406h27M405 407h9M423 407h9M441 407h27M405 408h9M423 408h9M441 408h27M405 409h9M423 409h9M441 409h27M405 410h9M423 410h9M441 410h27M405 411h9M423 411h9M441 411h27M405 412h9M423 412h9M441 412h27M405 413h9M423 413h9M441 413h27M396 414h9M414 414h9M432 414h9M396 415h9M414 415h9M432 415h9M396 416h9M414 416h9M432 416h9M396 417h9M414 417h9M432 417h9M396 418h9M414 418h9M432 418h9M396 419h9M414 419h9M432 419h9M396 420h9M414 420h9M432 420h9M396 421h9M414 421h9M432 421h9M396 422h9M414 422h9M432 422h9M396 423h9M414 423h9M432 423h9M459 423h18M396 424h9M414 424h9M432 424h9M459 424h18M396 425h9M414 425h9M432 425h9M459 425h18M396 426h9M414 426h9M432 426h9M459 426h18M396 427h9M414 427h9M432 427h9M459 427h18M396 428h9M414 428h9M432 428h9M459 428h18M396 429h9M414 429h9M432 429h9M459 429h18M396 430h9M414 430h9M432 430h9M459 430h18M396 431h9M414 431h9M432 431h9M459 431h18M405 432h45M459 432h18M405 433h45M459 433h18M405 434h45M459 434h18M405 435h45M459 435h18M405 436h45M459 436h18M405 437h45M459 437h18M405 438h45M459 438h18M405 439h45M459 439h18M405 440h45M459 440h18M423 441h36M423 442h36M423 443h36M423 444h36M423 445h36M423 446h36M423 447h36M423 448h36M423 449h36M495 468h27M495 469h27M495 470h27M495 471h27M495 472h27M495 473h27M495 474h27M495 475h27M495 476h27M486 477h27M486 478h27M486 479h27M486 480h27M486 481h27M486 482h27M486 483h27M486 484h27M486 485h27M486 486h27M486 487h27M486 488h27M486 489h27M486 490h27M486 491h27M486 492h27M486 493h27M486 494h27M486 495h18M486 496h18M486 497h18M486 498h18M486 499h18M486 500h18M486 501h18M486 502h18M486 503h18" />
<path stroke="#42230b" d="M387 405h9M387 406h9M387 407h9M387 408h9M387 409h9M387 410h9M387 411h9M387 412h9M387 413h9M378 414h18M378 415h18M378 416h18M378 417h18M378 418h18M378 419h18M378 420h18M378 421h18M378 422h18M360 423h27M360 424h27M360 425h27M360 426h27M360 427h27M360 428h27M360 429h27M360 430h27M360 431h27M360 432h18M360 433h18M360 434h18M360 435h18M360 436h18M360 437h18M360 438h18M360 439h18M360 440h18M360 441h18M360 442h18M360 443h18M360 444h18M360 445h18M360 446h18M360 447h18M360 448h18M360 449h18M369 450h18M369 451h18M369 452h18M369 453h18M369 454h18M369 455h18M369 456h18M369 457h18M369 458h18M378 459h9M378 460h9M378 461h9M378 462h9M378 463h9M378 464h9M378 465h9M378 466h9M378 467h9" />
<path stroke="#121212" d="M360 414h9M360 415h9M360 416h9M360 417h9M360 418h9M360 419h9M360 420h9M360 421h9M360 422h9" />
<path stroke="#463f3a" d="M441 414h9M441 415h9M441 416h9M441 417h9M441 418h9M441 419h9M441 420h9M441 421h9M441 422h9M441 423h18M441 424h18M441 425h18M441 426h18M441 427h18M441 428h18M441 429h18M441 430h18M441 431h18M450 432h9M450 433h9M450 434h9M450 435h9M450 436h9M450 437h9M450 438h9M450 439h9M450 440h9M405 441h9M405 442h9M405 443h9M405 444h9M405 445h9M405 446h9M405 447h9M405 448h9M405 449h9M423 450h18M423 451h18M423 452h18M423 453h18M423 454h18M423 455h18M423 456h18M423 457h18M423 458h18M441 459h27M441 460h27M441 461h27M441 462h27M441 463h27M441 464h27M441 465h27M441 466h27M441 467h27M450 468h45M450 469h45M450 470h45M450 471h45M450 472h45M450 473h45M450 474h45M450 475h45M450 476h45M459 477h27M459 478h27M459 479h27M459 480h27M459 481h27M459 482h27M459 483h27M459 484h27M459 485h27M477 486h9M513 486h9M477 487h9M513 487h9M477 488h9M513 488h9M477 489h9M513 489h9M477 490h9M513 490h9M477 491h9M513 491h9M477 492h9M513 492h9M477 493h9M513 493h9M477 494h9M513 494h9M513 495h9M513 496h9M513 497h9M513 498h9M513 499h9M513 500h9M513 501h9M513 502h9M513 503h9M495 504h18M495 505h18M495 506h18M495 507h18M495 508h18M495 509h18M495 510h18M495 511h18M495 512h18M495 531h9M495 532h9M495 533h9M495 534h9M495 535h9M495 536h9M495 537h9M495 538h9M495 539h9" />
<path stroke="#35302c" d="M450 414h27M450 415h27M450 416h27M450 417h27M450 418h27M450 419h27M450 420h27M450 421h27M450 422h27M387 423h9M477 423h9M387 424h9M477 424h9M387 425h9M477 425h9M387 426h9M477 426h9M387 427h9M477 427h9M387 428h9M477 428h9M387 429h9M477 429h9M387 430h9M477 430h9M387 431h9M477 431h9M387 432h18M477 432h9M387 433h18M477 433h9M387 434h18M477 434h9M387 435h18M477 435h9M387 436h18M477 436h9M387 437h18M477 437h9M387 438h18M477 438h9M387 439h18M477 439h9M387 440h18M477 440h9M387 441h18M414 441h9M459 441h18M387 442h18M414 442h9M459 442h18M387 443h18M414 443h9M459 443h18M387 444h18M414 444h9M459 444h18M387 445h18M414 445h9M459 445h18M387 446h18M414 446h9M459 446h18M387 447h18M414 447h9M459 447h18M387 448h18M414 448h9M459 448h18M387 449h18M414 449h9M459 449h18M396 450h27M441 450h27M396 451h27M441 451h27M396 452h27M441 452h27M396 453h27M441 453h27M396 454h27M441 454h27M396 455h27M441 455h27M396 456h27M441 456h27M396 457h27M441 457h27M396 458h27M441 458h27M405 459h36M468 459h54M405 460h36M468 460h54M405 461h36M468 461h54M405 462h36M468 462h54M405 463h36M468 463h54M405 464h36M468 464h54M405 465h36M468 465h54M405 466h36M468 466h54M405 467h36M468 467h54M423 468h27M522 468h9M423 469h27M522 469h9M423 470h27M522 470h9M423 471h27M522 471h9M423 472h27M522 472h9M423 473h27M522 473h9M423 474h27M522 474h9M423 475h27M522 475h9M423 476h27M522 476h9M441 477h18M522 477h9M441 478h18M522 478h9M441 479h18M522 479h9M441 480h18M522 480h9M441 481h18M522 481h9M441 482h18M522 482h9M441 483h18M522 483h9M441 484h18M522 484h9M441 485h18M522 485h9M459 486h18M522 486h9M459 487h18M522 487h9M459 488h18M522 488h9M459 489h18M522 489h9M459 490h18M522 490h9M459 491h18M522 491h9M459 492h18M522 492h9M459 493h18M522 493h9M459 494h18M522 494h9M468 495h18M522 495h9M468 496h18M522 496h9M468 497h18M522 497h9M468 498h18M522 498h9M468 499h18M522 499h9M468 500h18M522 500h9M468 501h18M522 501h9M468 502h18M522 502h9M468 503h18M522 503h9M477 504h18M513 504h18M477 505h18M513 505h18M477 506h18M513 506h18M477 507h18M513 507h18M477 508h18M513 508h18M477 509h18M513 509h18M477 510h18M513 510h18M477 511h18M513 511h18M477 512h18M513 512h18M486 513h36M486 514h36M486 515h36M486 516h36M486 517h36M486 518h36M486 519h36M486 520h36M486 521h36" />
<path stroke="#582f0e" d="M378 432h9M378 433h9M378 434h9M378 435h9M378 436h9M378 437h9M378 438h9M378 439h9M378 440h9M378 441h9M378 442h9M378 443h9M378 444h9M378 445h9M378 446h9M378 447h9M378 448h9M378 449h9M387 450h9M387 451h9M387 452h9M387 453h9M387 454h9M387 455h9M387 456h9M387 457h9M387 458h9M387 459h18M387 460h18M387 461h18M387 462h18M387 463h18M387 464h18M387 465h18M387 466h18M387 467h18" />
<path stroke="#1f1f1f" d="M477 441h9M477 442h9M477 443h9M477 444h9M477 445h9M477 446h9M477 447h9M477 448h9M477 449h9M468 450h18M468 451h18M468 452h18M468 453h18M468 454h18M468 455h18M468 456h18M468 457h18M468 458h18M414 468h9M414 469h9M414 470h9M414 471h9M414 472h9M414 473h9M414 474h9M414 475h9M414 476h9M432 477h9M432 478h9M432 479h9M432 480h9M432 481h9M432 482h9M432 483h9M432 484h9M432 485h9M450 486h9M450 487h9M450 488h9M450 489h9M450 490h9M450 491h9M450 492h9M450 493h9M450 494h9M459 495h9M459 496h9M459 497h9M459 498h9M459 499h9M459 500h9M459 501h9M459 502h9M459 503h9M468 504h9M468 505h9M468 506h9M468 507h9M468 508h9M468 509h9M468 510h9M468 511h9M468 512h9" />
<path stroke="rgba(64,64,64,0.047058823529411764)" d="M531 468h9M531 469h9M531 470h9M531 471h9M531 472h9M531 473h9M531 474h9M531 475h9M531 476h9" />
<path stroke="#625c58" d="M477 513h9M477 514h9M477 515h9M477 516h9M477 517h9M477 518h9M477 519h9M477 520h9M477 521h9M486 522h27M486 523h27M486 524h27M486 525h27M486 526h27M486 527h27M486 528h27M486 529h27M486 530h27" />
</svg>