<svg xmlns="http://www.w3.org/2000/svg" viewBox="0 -0.5 64 64" shape-rendering="crispEdges">
<metadata>Made with Pixels to Svg https://codepen.io/shshaw/pen/XbxvNj</metadata>
<path stroke="rgba(37,9,0,0.21568627450980393)" d="M25 20h1M38 20h1M26 21h1M37 21h1M27 22h1M36 22h1M29 23h1M34 23h1M28 24h1M35 24h1M23 25h1M29 25h1M34 25h1M40 25h1M23 27h1M28 27h1M35 27h1M40 27h1" />
<path stroke="#34230d" d="M26 20h1M37 20h1M25 21h1M27 21h2M30 21h4M35 21h2M38 21h1M28 22h8M30 23h1M33 23h1" />
<path stroke="#2c1e0b" d="M27 20h2M30 20h4M35 20h2M29 21h1M34 21h1" />
<path stroke="rgba(20,6,14,0.7843137254901961)" d="M26 24h2M36 24h2M24 25h5M35 25h5M24 27h4M36 27h4" />
</svg>