<svg xmlns="http://www.w3.org/2000/svg" viewBox="0 -0.5 64 64" shape-rendering="crispEdges">
<metadata>Made with Pixels to Svg https://codepen.io/shshaw/pen/XbxvNj</metadata>
<path stroke="#bf986b" d="M6 17h5M29 17h6M53 17h5M5 18h1M11 18h1M26 18h3M35 18h3M52 18h1M58 18h1M5 19h1M10 19h2M24 19h2M38 19h2M52 19h2M58 19h1M4 20h1M10 20h1M12 20h1M23 20h1M40 20h1M51 20h1M53 20h1M59 20h1M4 21h1M11 21h1M22 21h1M41 21h1M52 21h1M59 21h1M4 22h1M10 22h1M21 22h1M42 22h1M53 22h1M59 22h1M4 23h1M10 23h1M13 23h8M43 23h8M53 23h1M59 23h1M3 24h1M10 24h3M20 24h1M43 24h1M51 24h3M60 24h1M3 25h1M9 25h1M19 25h1M44 25h1M54 25h1M60 25h1M2 26h1M8 26h1M19 26h1M44 26h1M55 26h1M61 26h1M2 27h1M7 27h1M18 27h1M45 27h1M56 27h1M61 27h1M1 28h1M6 28h1M18 28h1M45 28h1M57 28h1M62 28h1M1 29h1M18 29h1M45 29h1M62 29h1M1 30h1M18 30h1M45 30h1M62 30h1M0 31h1M18 31h1M45 31h1M63 31h1M0 32h1M18 32h1M45 32h1M63 32h1M0 33h1M18 33h1M45 33h1M63 33h1M0 34h1M18 34h1M45 34h1M63 34h1M0 35h1M18 35h1M45 35h1M63 35h1M0 36h1M18 36h1M45 36h1M63 36h1M1 37h1M18 37h1M45 37h1M62 37h1M1 38h1M18 38h1M45 38h1M62 38h1M2 39h1M19 39h1M44 39h1M61 39h1M3 40h1M19 40h1M44 40h1M60 40h1M4 41h1M20 41h1M43 41h1M59 41h1M5 42h3M20 42h1M43 42h1M56 42h3M8 43h3M21 43h1M42 43h1M53 43h3M11 44h3M22 44h2M40 44h2M50 44h3M14 45h4M24 45h1M39 45h1M46 45h4M18 46h9M37 46h9M27 47h10" />
<path stroke="#f1c695" d="M6 18h2M6 19h1M26 19h2M37 19h1M5 20h2M24 20h2M39 20h1M5 21h2M23 21h1M40 21h1M58 21h1M5 22h3M9 22h1M22 22h1M41 22h1M56 22h3M5 23h1M9 23h1M21 23h1M42 23h1M4 24h2M8 24h2M13 24h7M21 24h1M44 24h1M50 24h1M54 24h1M59 24h1M4 25h1M8 25h1M10 25h3M17 25h2M20 25h1M43 25h1M53 25h1M55 25h1M3 26h2M7 26h1M9 26h2M16 26h3M20 26h1M45 26h1M60 26h1M3 27h1M6 27h1M8 27h1M16 27h2M19 27h1M44 27h1M2 28h2M7 28h1M16 28h2M19 28h1M61 28h1M2 29h2M6 29h1M15 29h3M19 29h1M57 29h1M2 30h1M15 30h3M19 30h1M1 31h2M15 31h3M19 31h1M62 31h1M1 32h2M15 32h3M19 32h1M1 33h2M15 33h3M19 33h1M1 34h2M15 34h3M19 34h1M1 35h3M15 35h3M19 35h1M62 35h1M1 36h3M15 36h3M19 36h1M62 36h1M2 37h3M15 37h3M19 37h2M2 38h4M15 38h3M19 38h2M44 38h1M61 38h1M3 39h4M16 39h3M20 39h2M45 39h1M60 39h1M4 40h4M16 40h3M20 40h3M43 40h1M45 40h1M59 40h1M5 41h5M15 41h5M21 41h3M44 41h3M57 41h2M8 42h12M21 42h4M42 42h1M44 42h6M54 42h2M11 43h10M22 43h5M41 43h1M43 43h10M14 44h8M24 44h7M39 44h1M42 44h8M18 45h6M25 45h14M40 45h6M27 46h10" />
<path stroke="#ffe2a9" d="M8 18h3M29 18h6M53 18h2M7 19h3M28 19h9M54 19h2M7 20h3M26 20h13M54 20h3M58 20h1M7 21h3M24 21h16M54 21h4M8 22h1M23 22h18M54 22h2M6 23h3M22 23h20M54 23h5M6 24h2M22 24h21M45 24h5M55 24h4M5 25h3M13 25h4M21 25h22M45 25h8M56 25h4M5 26h2M11 26h5M21 26h23M46 26h9M56 26h4M4 27h2M9 27h7M20 27h24M46 27h10M57 27h4M4 28h2M8 28h8M20 28h25M46 28h11M58 28h3M4 29h2M7 29h8M20 29h25M46 29h11M58 29h4M3 30h12M20 30h25M46 30h16M3 31h12M20 31h17M40 31h5M46 31h16M3 32h12M20 32h16M40 32h5M46 32h17M3 33h12M20 33h16M40 33h5M46 33h17M3 34h12M20 34h16M39 34h6M46 34h17M4 35h11M20 35h14M35 35h10M46 35h16M4 36h11M20 36h25M46 36h16M5 37h10M21 37h24M46 37h16M6 38h9M21 38h23M46 38h15M7 39h9M22 39h22M46 39h14M8 40h8M23 40h20M46 40h13M10 41h5M24 41h19M47 41h10M25 42h17M50 42h4M27 43h14M31 44h8" />
<path stroke="#ffe9be" d="M55 18h1M56 19h1M11 20h1M52 20h1M57 20h1M10 21h1M53 21h1M36 32h1M38 34h1" />
<path stroke="#ffefd1" d="M56 18h2M57 19h1M37 31h3M37 32h3M36 33h4M36 34h2M34 35h1" />
</svg>